<svg xmlns="http://www.w3.org/2000/svg" viewBox="0 0 200 200"><defs><style>.cls-1{isolation:isolate;}.cls-2{fill:#f1f1f1;}.cls-3{fill:#d7d7d7;}.cls-10,.cls-4{fill:#5e6db7;}.cls-5{fill:#2d355c;}.cls-6,.cls-9{fill:#fff;}.cls-7{fill:#fc6d00;}.cls-8{fill:#435aa3;}.cls-9{opacity:0.22;mix-blend-mode:lighten;}.cls-10{opacity:0.24;}</style></defs><g class="cls-1"><g id="Layer_1" data-name="Layer 1"><circle class="cls-2" cx="100.01" cy="99.81" r="94.09"/><ellipse class="cls-3" cx="101.49" cy="172.77" rx="36.01" ry="12.15"/><path class="cls-4" d="M100.49,48.27A51.54,51.54,0,1,0,152,99.81,51.55,51.55,0,0,0,100.49,48.27Z"/><path class="cls-5" d="M101.38,61.37a39.33,39.33,0,1,0,39.33,39.33A39.33,39.33,0,0,0,101.38,61.37Z"/><path class="cls-6" d="M100.06,62.19a37.19,37.19,0,1,0,37.19,37.19A37.19,37.19,0,0,0,100.06,62.19Z"/><path class="cls-7" d="M100.06,68.4A30,30,0,0,0,71,91.26a25.18,25.18,0,0,1,23.28-15.6c13.9,0,25.14,10.11,25.14,24l11.67-.28C131.05,82.84,116.6,68.4,100.06,68.4Z"/><path class="cls-8" d="M50.65,101.12a51.53,51.53,0,0,1,51.53-51.54c12.19,0,24.39,5.25,33.21,12.32A51.53,51.53,0,1,0,68.29,140C58.06,130.62,50.65,116.11,50.65,101.12Z"/><path class="cls-9" d="M50.55,107.59s-.15-1.39-.33-3.84c0-.61-.09-1.29-.14-2s.07-1.56.11-2.42.09-1.8.14-2.78a26.68,26.68,0,0,1,.44-3c.18-1.06.37-2.16.56-3.3l1-3.44a54.49,54.49,0,0,1,2.77-7.26,56.76,56.76,0,0,1,4.23-7.17,64.83,64.83,0,0,1,5.4-6.72A65.26,65.26,0,0,1,71.22,60a48.45,48.45,0,0,1,14.12-7.6l3.39-1.14L92,50.5a34.65,34.65,0,0,1,5.75-.85l2.4-.23,2,0c2.48,0,3.86.12,3.86.12s-1.39.29-3.78.71l-2,.35-2.29.6a46.8,46.8,0,0,0-5.38,1.6l-3,1.06-3.11,1.39c-2.17.84-4.22,2.25-6.47,3.38a75.13,75.13,0,0,0-6.34,4.51,62.45,62.45,0,0,0-5.95,5.36,59.6,59.6,0,0,0-5.12,6.15,73.14,73.14,0,0,0-4.25,6.51c-.57,1.13-1.12,2.25-1.66,3.34a24.17,24.17,0,0,0-1.45,3.27L54,91c-.32,1.06-.62,2.08-.92,3.06a46.1,46.1,0,0,0-1.33,5.42c-.17.82-.34,1.59-.49,2.31s-.17,1.4-.24,2C50.76,106.2,50.55,107.59,50.55,107.59Z"/><path class="cls-10" d="M104.25,130.32s-.7.24-1.94.62l-1,.3-1.25.2-1.44.21a11.89,11.89,0,0,1-1.59,0H95.26l-1.86-.26a23.4,23.4,0,0,1-4-1,26.88,26.88,0,0,1-4.09-1.92,34.86,34.86,0,0,1-4-2.71,36.65,36.65,0,0,1-3.52-3.53,35.23,35.23,0,0,1-3-4,37.58,37.58,0,0,1-2.26-4.21c-.32-.7-.62-1.38-.92-2l-.68-2a26.36,26.36,0,0,1-1-3.56c-.12-.54-.24-1-.35-1.51s-.12-.91-.18-1.31c-.21-1.57-.31-2.47-.31-2.47s.28.86.73,2.34c.12.36.24.77.37,1.22s.34.89.53,1.38c.38,1,.78,2.11,1.34,3.26l.84,1.8c.32.59.66,1.2,1,1.82.64,1.3,1.56,2.45,2.36,3.76a44.34,44.34,0,0,0,2.93,3.54,37.32,37.32,0,0,0,3.32,3.22,32.45,32.45,0,0,0,3.65,2.59,34.26,34.26,0,0,0,3.75,2l1.87.69a10,10,0,0,0,1.82.57l1.74.46,1.66.25a18.75,18.75,0,0,0,2.91.26l1.23.07,1-.07C103.52,130.33,104.25,130.32,104.25,130.32Z"/><circle class="cls-5" cx="100.54" cy="99.96" r="5.99"/><path class="cls-5" d="M96.71,97.86l20.32-17a1.94,1.94,0,0,1,2.76,0h0a1.94,1.94,0,0,1,0,2.75l-17.15,20.18C101.88,104.55,96,98.62,96.71,97.86Z"/></g></g></svg>