<svg xmlns="http://www.w3.org/2000/svg" viewBox="0 0 407.44 314.3"><defs><style>.cls-6{fill:#629fe2}.cls-10,.cls-16,.cls-17,.cls-9{fill:none;stroke-linecap:round;stroke-miterlimit:10}.cls-8{fill:#0d3fd5;opacity:.34}.cls-16,.cls-9{stroke:#0d3fd5}.cls-10,.cls-9{stroke-width:4px}.cls-9{opacity:.3}.cls-10{stroke:#fff}.cls-11{fill:#ff4f48}.cls-12{fill:#ff8782}.cls-16,.cls-17{stroke-width:3px}.cls-16{opacity:.6}.cls-17{stroke:#e84747}</style></defs><g id="Layer_2" data-name="Layer 2"><g id="Layer_3" data-name="Layer 3"><path d="M200.3 269.59c-4.54-2.74-3.78-7.63-1-11.6s7.32-7.56 9.91-11.57a6.93 6.93 0 001.43-4.41 7.54 7.54 0 00-2.62-4.17 31.55 31.55 0 00-6.21-4.62c-2.76-1.6-6-3.07-7.13-5.35" stroke-width="2" stroke-linejoin="round" stroke="#7abdcf" fill="none" stroke-linecap="round"/><path d="M196.51 219.72c13.07 4.68 20.73 14.17 18.62 24-1.15 5.36-5 10.59-6.38 15.94s.33 11.39 7.68 13.75" stroke-miterlimit="10" stroke="#414670" stroke-width="2" fill="none" stroke-linecap="round"/><path d="M234.91 216c-10.13 7.42-13.72 17.74-9 26a11.22 11.22 0 005.43 5 14.19 14.19 0 009.87.29c5.37-2 4.92-7.36-.1-9s-12.14 0-16.37 2.92a17 17 0 00-7 10.34c-1.09 4.29-1.11 8.67 1 12.57s6.54 7.29 12.77 8.81" stroke="#ff4f48" stroke-width="2" stroke-linejoin="round" fill="none" stroke-linecap="round"/><rect x="160.87" y="218.74" width="108.68" height="17.9" rx="7.18" transform="rotate(-4.48 215.015 227.457)" fill="#414670"/><rect class="cls-6" x="160.87" y="218.74" width="108.68" height="17.9" rx="7.18" transform="rotate(-4.48 215.015 227.457)"/><path d="M367.25 211.44L50.81 241.86a4.5 4.5 0 01-4.9-4.06L35.77 131c-.23-2.48 0-6.15 4.66-6.68L352.45 93c2.47-.23 8.44 3.74 8.72 7.21l10.13 106.3a4.49 4.49 0 01-4.05 4.93z" fill="#2a7cdd"/><path class="cls-6" d="M367.25 211.44l-312.09 30a4.5 4.5 0 01-4.9-4.05L40.13 130.57a4.5 4.5 0 014-4.9l312.14-29.48a4.5 4.5 0 014.9 4l10.13 106.3a4.49 4.49 0 01-4.05 4.95z"/><path class="cls-8" d="M235.09 180.31c-11.44 25-31.28 40.38-44.5 34.44s-14.47-31.14-3-56.11 58.92-3.58 47.5 21.67z"/><path class="cls-9" d="M309.72 139.6l-42.37 4.06"/><path class="cls-10" d="M352.45 135.53l-45.99 4.33"/><path class="cls-9" d="M295.34 172.12l-24.17 2.31"/><path class="cls-10" d="M356.27 166.3l-60.93 5.82"/><path class="cls-8" d="M306.54 152.83c-4.22-2.33-6.44-8.43-4.68-13.74s6.37-7.53 10.58-5.2 6.44 8.42 4.68 13.73-6.26 7.67-10.58 5.21z"/><circle class="cls-11" cx="308.61" cy="139.6" r="8.34"/><path class="cls-8" d="M290.65 185.29c-4.22-2.33-6.44-8.43-4.68-13.74s6.36-7.52 10.58-5.2 6.44 8.42 4.68 13.73c-1.48 5.11-6.36 7.53-10.58 5.21z"/><circle class="cls-11" cx="292.69" cy="171.98" r="8.34"/><path class="cls-12" d="M285 168.4a8.16 8.16 0 012.65-3.17 9 9 0 014.1-1.43 10.2 10.2 0 014.26.59 6.66 6.66 0 013.17 2.65 16.61 16.61 0 00-7.27-1.22 13.22 13.22 0 00-6.91 2.58zm16.13-32.4a8.16 8.16 0 012.65-3.17 9 9 0 014.1-1.43 10 10 0 014.26.59 6.56 6.56 0 013.17 2.65 16.56 16.56 0 00-7.31-1.24 15.54 15.54 0 00-6.87 2.6z"/><path class="cls-9" d="M214.89 207a38.68 38.68 0 01-7.31-77"/><path d="M207.58 130a38.51 38.51 0 0142.15 34.85" stroke-width="4" stroke="#ff4f48" stroke-linejoin="round" fill="none" stroke-linecap="round"/><path class="cls-10" d="M249.73 164.82A38.85 38.85 0 01214.91 207"/><circle cx="211.23" cy="168.48" r="26.07" fill="#1559d7"/><circle cx="199.01" cy="161" r="4.3" fill="#fff"/><path class="cls-16" d="M91.73 223.71l-8.18-85.82"/><path class="cls-17" d="M91.73 223.71l-5.22-55.35"/><path class="cls-16" d="M67.77 226.68l-8.18-85.81"/><path class="cls-17" d="M67.77 226.68l-6.39-66.99"/><path class="cls-8" d="M58.49 167.78c-3.07-2.16-4.29-7.06-2.48-11s5.55-5.3 8.63-3.15 4.28 7.06 2.48 11c-1.57 3.83-5.56 5.3-8.63 3.15z"/><circle class="cls-11" cx="61.18" cy="157.64" r="6.49"/><path class="cls-12" d="M55.52 154.23a6.33 6.33 0 012.31-2.23 7 7 0 013.3-.77 8 8 0 013.25.81 5.13 5.13 0 012.23 2.31 13 13 0 00-5.53-1.54 10.23 10.23 0 00-5.56 1.42z"/><path class="cls-8" d="M83.74 178.43c-3.07-2.16-4.28-7.06-2.48-11s5.56-5.3 8.63-3.15 4.28 7.06 2.48 11c-1.57 3.83-5.55 5.3-8.63 3.15z"/><circle class="cls-11" cx="86.43" cy="168.29" r="6.49"/><path class="cls-12" d="M80.77 164.88a6.28 6.28 0 012.32-2.23 6.9 6.9 0 013.29-.77 8 8 0 013.25.81 5.08 5.08 0 012.23 2.31 12.93 12.93 0 00-5.52-1.54 10.26 10.26 0 00-5.57 1.42z"/><path class="cls-16" d="M140.11 219.12l-8.18-85.82"/><path class="cls-17" d="M140.11 219.12l-7.17-75.84"/><path class="cls-16" d="M116.14 222.09l-8.18-85.81"/><path class="cls-17" d="M116.14 222.09l-2.01-20.99"/><path class="cls-8" d="M111.31 209.72c-3.07-2.15-4.28-7.06-2.48-11s5.56-5.3 8.63-3.15 4.28 7.06 2.48 11c-1.57 3.83-5.55 5.3-8.63 3.15z"/><circle class="cls-11" cx="114" cy="199.59" r="6.49"/><path class="cls-12" d="M108.34 196.18a6.21 6.21 0 012.32-2.23 6.79 6.79 0 013.29-.77 7.65 7.65 0 013.25.81 5.16 5.16 0 012.24 2.31 12.89 12.89 0 00-5.53-1.55 10.37 10.37 0 00-5.57 1.43z"/><path class="cls-8" d="M130.45 155.09c-3.07-2.15-4.28-7.06-2.48-11s5.55-5.3 8.63-3.15 4.28 7.06 2.48 11c-1.57 3.83-5.55 5.3-8.63 3.15z"/><circle class="cls-11" cx="133.14" cy="144.95" r="6.49"/><path class="cls-12" d="M127.48 141.54a6.28 6.28 0 012.32-2.23 7 7 0 013.29-.77 8 8 0 013.25.81 5.08 5.08 0 012.23 2.31 12.93 12.93 0 00-5.52-1.54 10.24 10.24 0 00-5.57 1.42z"/></g></g></svg>