<svg xmlns="http://www.w3.org/2000/svg" viewBox="0 0 408.04 312.77"><defs><clipPath id="clip-path"><circle class="cls-1" cx="269.23" cy="221.63" r="42.25"/></clipPath><style>.cls-1{fill:#cfefff}.cls-11{fill:#629fe2}.cls-3{fill:#0b4aaf}.cls-4{fill:#063b91}.cls-5{fill:#696c6e}.cls-6{fill:#868baa}.cls-24,.cls-7{fill:#fff}.cls-7{opacity:.08}.cls-8{opacity:.17}.cls-9{fill:#7abdcf}.cls-10{fill:#0b6fd5;opacity:.14}.cls-16{fill:#e53232}.cls-17{fill:#ff4f48}.cls-19{fill:#9e0000}</style></defs><g id="Layer_2" data-name="Layer 2"><g id="Layer_3" data-name="Layer 3"><path class="cls-3" d="M220.55 218c-1 .16-2 .3-3 .43-28.7 3.54-76.83-13.26-96.08-34.83l3-2.65c18.4 20.61 65.21 36.92 92.63 33.53 6.77-.84 11.89-2.34 16.09-4.75s8.13-6.06 12.59-11.77c5.1-6.54 8.46-12.57 10.28-18.43a52.28 52.28 0 001.95-17.79 30.07 30.07 0 01-27.82 2.42c-10.22-4.33-18.42-14.2-21.92-26.41-1.95-6.79-1.45-12.43 1.44-16.32s7.44-5.29 10.82-5.84c10.6-1.69 22.41 3.27 30.09 12.63 5.32 6.47 8.9 15 10.5 24.95 4.52-6.58 5.62-16 3.37-28.81l-.17-1c-.64-3.57-1.31-7.26-.62-11 1.26-6.87 6.39-11.48 11.35-16 3.36-3 6.83-6.16 8.9-9.89l3.48 1.94c-2.39 4.3-6.12 7.66-9.72 10.9-4.67 4.21-9.08 8.18-10.09 13.72-.56 3 0 6.24.61 9.61l.18 1c2.62 14.86.92 25.76-5.18 33.32-.45.56-.94 1.11-1.44 1.62v.42a57.26 57.26 0 01-2 21.67c-2 6.34-5.54 12.78-10.94 19.7-4.8 6.14-9 10.09-13.75 12.78a42.63 42.63 0 01-14.55 4.85zm.43-98.46c-3.66.6-6.55 2.11-8.15 4.26-2.68 3.61-1.92 9-.81 12.85 3.18 11.07 10.52 20 19.65 23.84 8.79 3.73 19.28 2.18 25.89-3.44-1.19-10.64-4.66-19.7-10.08-26.31-6.8-8.28-17.16-12.69-26.39-11.22z"/><path class="cls-4" d="M257.56 157.07c-1.19-10.64-4.66-19.7-10.08-26.31-6.8-8.28-17.16-12.69-26.39-11.22h-.11c-3.66.6-6.55 2.11-8.15 4.26a7.72 7.72 0 00-.74 1.23 12.89 12.89 0 017.77-3.83h.14c9.23-1.47 19.59 2.93 26.39 11.22 5.3 6.46 8.73 15.26 10 25.59.38-.29.78-.61 1.17-.94zM229 165.85a30.07 30.07 0 0027.82-2.43 52.06 52.06 0 01-1.95 17.8 50.88 50.88 0 01-6.18 12.68 52.77 52.77 0 007.3-14.35 52.28 52.28 0 001.95-17.79 30.07 30.07 0 01-27.82 2.42c-10.22-4.33-18.42-14.2-21.92-26.41-1.75-6.08-1.51-11.23.63-15l-.31.38c-2.89 3.89-3.39 9.54-1.44 16.32 3.5 12.18 11.7 22.05 21.92 26.38zm34.3-39.8c2.06 11.67 1.31 20.55-2.27 27a.5.5 0 000 .12c4.52-6.58 5.62-16 3.37-28.81l-.17-1c-.64-3.57-1.31-7.26-.62-11a18.22 18.22 0 012.48-6.3 19.06 19.06 0 00-3.59 8c-.69 3.76 0 7.46.61 11zm19.51-37.83c-.11.2-.24.38-.36.58zm-33.96 112.2c-4.8 6.14-9 10.09-13.75 12.78a42.63 42.63 0 01-14.55 4.8c-1 .16-2 .3-3 .43C189 222 141 205.32 121.78 184l-1.46 1.3c19.25 21.57 67.39 38.37 96.08 34.83 1-.13 2.06-.27 3-.44a42.36 42.36 0 0014.6-4.82c4.71-2.7 9-6.64 13.75-12.78 1.59-2 3-4 4.28-6-1.03 1.44-2.03 2.91-3.18 4.33zm28.79-101.05c-3.22 2.91-6.32 5.7-8.26 9a52.58 52.58 0 017.14-7.3c3.35-3 6.8-6.14 9.19-10a56 56 0 01-8.07 8.3zM263.16 157c-.45.56-.94 1.11-1.44 1.62v.38c.09-.11.2-.22.3-.33A27 27 0 00264 156c-.31.31-.56.67-.84 1z"/><path class="cls-5" transform="rotate(-50.93 81.264 150.295)" d="M72.04 138.42h18.44v23.73H72.04z"/><path class="cls-6" transform="rotate(-50.93 81.264 150.295)" d="M72.04 138.42h18.44v23.73H72.04z"/><path class="cls-7" d="M76.76 137.81c-.13-.12-.24-.25-.35-.37L66.23 150l9.18 7.45c5.9-4.84 6.92-14.28 1.35-19.64z"/><path class="cls-4" d="M91.46 156.55l-.21.26-3.52-2.85-.78.95-11.25-9.13.78-.95-1.29-1.05-.77.96-2.38-1.93.22-.26 2.11 1.71.77-.96 1.82 1.48-.78.95 10.72 8.7.78-.95 3.78 3.07z"/><path class="cls-4" d="M91.35 156.68l-.21.26-3.52-2.85-.78.96-11.25-9.14.78-.95-1.28-1.04-.78.95-2.37-1.93.21-.26 2.11 1.71.78-.95 1.81 1.47-.77.96 10.71 8.7.78-.96 3.78 3.07z"/><path class="cls-4" d="M84.66 164.93l-18.43-14.96 11.62-14.32-10.9 14.22 17.71 15.06z"/><path class="cls-4" transform="rotate(-50.93 76.474 152.535)" d="M74.33 150.7h4.29v3.66h-4.29z"/><path class="cls-7" d="M73.7 153.04l2.7-3.32 2.84 2.3-2.7 3.33 2.83-3.33-2.98-2.42-2.69 3.44z"/><path class="cls-4" transform="rotate(-50.93 75.28 154.015)" d="M75.03 152.18h.49v3.66h-.49z"/><path class="cls-4" transform="rotate(-50.93 82.359 145.291)" d="M80.21 143.46h4.29v3.66h-4.29z"/><path class="cls-7" d="M79.58 145.8l2.7-3.33 2.84 2.31-2.7 3.32 2.83-3.32-2.98-2.42-2.69 3.44z"/><path class="cls-4" transform="rotate(-50.93 81.154 146.765)" d="M80.91 144.93h.49v3.66h-.49z"/><path class="cls-4" d="M257.56 157.07c-1.19-10.64-4.66-19.7-10.08-26.31-6.8-8.28-17.16-12.69-26.39-11.22h-.11c-3.66.6-6.55 2.11-8.15 4.26a7.72 7.72 0 00-.74 1.23 12.89 12.89 0 017.77-3.83h.14c9.23-1.47 19.59 2.93 26.39 11.22 5.3 6.46 8.73 15.26 10 25.59.38-.29.78-.61 1.17-.94zM229 165.85a30.07 30.07 0 0027.82-2.43 52.06 52.06 0 01-1.95 17.8 50.88 50.88 0 01-6.18 12.68 52.77 52.77 0 007.3-14.35 52.28 52.28 0 001.95-17.79 30.07 30.07 0 01-27.82 2.42c-10.22-4.33-18.42-14.2-21.92-26.41-1.75-6.08-1.51-11.23.63-15l-.31.38c-2.89 3.89-3.39 9.54-1.44 16.32 3.5 12.18 11.7 22.05 21.92 26.38zm34.3-39.8c2.06 11.67 1.31 20.55-2.27 27a.5.5 0 000 .12c4.52-6.58 5.62-16 3.37-28.81l-.17-1c-.64-3.57-1.31-7.26-.62-11a18.22 18.22 0 012.48-6.3 19.06 19.06 0 00-3.59 8c-.69 3.76 0 7.46.61 11zm19.51-37.83c-.11.2-.24.38-.36.58zm-33.96 112.2c-4.8 6.14-9 10.09-13.75 12.78a42.63 42.63 0 01-14.55 4.8c-1 .16-2 .3-3 .43C189 222 141 205.32 121.78 184l-1.46 1.3c19.25 21.57 67.39 38.37 96.08 34.83 1-.13 2.06-.27 3-.44a42.36 42.36 0 0014.6-4.82c4.71-2.7 9-6.64 13.75-12.78 1.59-2 3-4 4.28-6-1.03 1.44-2.03 2.91-3.18 4.33zm28.79-101.05c-3.22 2.91-6.32 5.7-8.26 9a52.58 52.58 0 017.14-7.3c3.35-3 6.8-6.14 9.19-10a56 56 0 01-8.07 8.3zM263.16 157c-.45.56-.94 1.11-1.44 1.62v.38c.09-.11.2-.22.3-.33A27 27 0 00264 156c-.31.31-.56.67-.84 1z"/><path class="cls-3" d="M257.56 157.07c-1.19-10.64-4.66-19.7-10.08-26.31-6.8-8.28-17.16-12.69-26.39-11.22h-.11c-3.66.6-6.55 2.11-8.15 4.26a7.72 7.72 0 00-.74 1.23 12.89 12.89 0 017.77-3.83h.14c9.23-1.47 19.59 2.93 26.39 11.22 5.3 6.46 8.73 15.26 10 25.59.38-.29.78-.61 1.17-.94zM229 165.85a30.07 30.07 0 0027.82-2.43 52.06 52.06 0 01-1.95 17.8 50.88 50.88 0 01-6.18 12.68 52.77 52.77 0 007.3-14.35 52.28 52.28 0 001.95-17.79 30.07 30.07 0 01-27.82 2.42c-10.22-4.33-18.42-14.2-21.92-26.41-1.75-6.08-1.51-11.23.63-15l-.31.38c-2.89 3.89-3.39 9.54-1.44 16.32 3.5 12.18 11.7 22.05 21.92 26.38zm34.3-39.8c2.06 11.67 1.31 20.55-2.27 27a.5.5 0 000 .12c4.52-6.58 5.62-16 3.37-28.81l-.17-1c-.64-3.57-1.31-7.26-.62-11a18.22 18.22 0 012.48-6.3 19.06 19.06 0 00-3.59 8c-.69 3.76 0 7.46.61 11zm19.51-37.83c-.11.2-.24.38-.36.58zm-33.96 112.2c-4.8 6.14-9 10.09-13.75 12.78a42.63 42.63 0 01-14.55 4.8c-1 .16-2 .3-3 .43C189 222 141 205.32 121.78 184l-1.46 1.3c19.25 21.57 67.39 38.37 96.08 34.83 1-.13 2.06-.27 3-.44a42.36 42.36 0 0014.6-4.82c4.71-2.7 9-6.64 13.75-12.78 1.59-2 3-4 4.28-6-1.03 1.44-2.03 2.91-3.18 4.33zm28.79-101.05c-3.22 2.91-6.32 5.7-8.26 9a52.58 52.58 0 017.14-7.3c3.35-3 6.8-6.14 9.19-10a56 56 0 01-8.07 8.3zM263.16 157c-.45.56-.94 1.11-1.44 1.62v.38c.09-.11.2-.22.3-.33A27 27 0 00264 156c-.31.31-.56.67-.84 1z"/><path class="cls-4" d="M257.56 157.07c-1.19-10.64-4.66-19.7-10.08-26.31-6.8-8.28-17.16-12.69-26.39-11.22h-.11c-3.66.6-6.55 2.11-8.15 4.26a7.72 7.72 0 00-.74 1.23 12.89 12.89 0 017.77-3.83h.14c9.23-1.47 19.59 2.93 26.39 11.22 5.3 6.46 8.73 15.26 10 25.59.38-.29.78-.61 1.17-.94zM229 165.85a30.07 30.07 0 0027.82-2.43 52.06 52.06 0 01-1.95 17.8 50.88 50.88 0 01-6.18 12.68 52.77 52.77 0 007.3-14.35 52.28 52.28 0 001.95-17.79 30.07 30.07 0 01-27.82 2.42c-10.22-4.33-18.42-14.2-21.92-26.41-1.75-6.08-1.51-11.23.63-15l-.31.38c-2.89 3.89-3.39 9.54-1.44 16.32 3.5 12.18 11.7 22.05 21.92 26.38zm34.3-39.8c2.06 11.67 1.31 20.55-2.27 27a.5.5 0 000 .12c4.52-6.58 5.62-16 3.37-28.81l-.17-1c-.64-3.57-1.31-7.26-.62-11a18.22 18.22 0 012.48-6.3 19.06 19.06 0 00-3.59 8c-.69 3.76 0 7.46.61 11zm19.51-37.83c-.11.2-.24.38-.36.58zm-33.96 112.2c-4.8 6.14-9 10.09-13.75 12.78a42.63 42.63 0 01-14.55 4.8c-1 .16-2 .3-3 .43C189 222 141 205.32 121.78 184l-1.46 1.3c19.25 21.57 67.39 38.37 96.08 34.83 1-.13 2.06-.27 3-.44a42.36 42.36 0 0014.6-4.82c4.71-2.7 9-6.64 13.75-12.78 1.59-2 3-4 4.28-6-1.03 1.44-2.03 2.91-3.18 4.33zm28.79-101.05c-3.22 2.91-6.32 5.7-8.26 9a52.58 52.58 0 017.14-7.3c3.35-3 6.8-6.14 9.19-10a56 56 0 01-8.07 8.3zM263.16 157c-.45.56-.94 1.11-1.44 1.62v.38c.09-.11.2-.22.3-.33A27 27 0 00264 156c-.31.31-.56.67-.84 1z"/><path class="cls-4" d="M257.56 157.07c-1.19-10.64-4.66-19.7-10.08-26.31-6.8-8.28-17.16-12.69-26.39-11.22h-.11c-3.66.6-6.55 2.11-8.15 4.26a7.72 7.72 0 00-.74 1.23 12.89 12.89 0 017.77-3.83h.14c9.23-1.47 19.59 2.93 26.39 11.22 5.3 6.46 8.73 15.26 10 25.59.38-.29.78-.61 1.17-.94zM229 165.85a30.07 30.07 0 0027.82-2.43 52.06 52.06 0 01-1.95 17.8 50.88 50.88 0 01-6.18 12.68 52.77 52.77 0 007.3-14.35 52.28 52.28 0 001.95-17.79 30.07 30.07 0 01-27.82 2.42c-10.22-4.33-18.42-14.2-21.92-26.41-1.75-6.08-1.51-11.23.63-15l-.31.38c-2.89 3.89-3.39 9.54-1.44 16.32 3.5 12.18 11.7 22.05 21.92 26.38zm34.3-39.8c2.06 11.67 1.31 20.55-2.27 27a.5.5 0 000 .12c4.52-6.58 5.62-16 3.37-28.81l-.17-1c-.64-3.57-1.31-7.26-.62-11a18.22 18.22 0 012.48-6.3 19.06 19.06 0 00-3.59 8c-.69 3.76 0 7.46.61 11zm19.51-37.83c-.11.2-.24.38-.36.58zm-33.96 112.2c-4.8 6.14-9 10.09-13.75 12.78a42.63 42.63 0 01-14.55 4.8c-1 .16-2 .3-3 .43C189 222 141 205.32 121.78 184l-1.46 1.3c19.25 21.57 67.39 38.37 96.08 34.83 1-.13 2.06-.27 3-.44a42.36 42.36 0 0014.6-4.82c4.71-2.7 9-6.64 13.75-12.78 1.59-2 3-4 4.28-6-1.03 1.44-2.03 2.91-3.18 4.33zm28.79-101.05c-3.22 2.91-6.32 5.7-8.26 9a52.58 52.58 0 017.14-7.3c3.35-3 6.8-6.14 9.19-10a56 56 0 01-8.07 8.3zM263.16 157c-.45.56-.94 1.11-1.44 1.62v.38c.09-.11.2-.22.3-.33A27 27 0 00264 156c-.31.31-.56.67-.84 1z"/><path class="cls-4" d="M257.56 157.07c-1.19-10.64-4.66-19.7-10.08-26.31-6.8-8.28-17.16-12.69-26.39-11.22h-.11c-3.66.6-6.55 2.11-8.15 4.26a7.72 7.72 0 00-.74 1.23 12.89 12.89 0 017.77-3.83h.14c9.23-1.47 19.59 2.93 26.39 11.22 5.3 6.46 8.73 15.26 10 25.59.38-.29.78-.61 1.17-.94zM229 165.85a30.07 30.07 0 0027.82-2.43 52.06 52.06 0 01-1.95 17.8 50.88 50.88 0 01-6.18 12.68 52.77 52.77 0 007.3-14.35 52.28 52.28 0 001.95-17.79 30.07 30.07 0 01-27.82 2.42c-10.22-4.33-18.42-14.2-21.92-26.41-1.75-6.08-1.51-11.23.63-15l-.31.38c-2.89 3.89-3.39 9.54-1.44 16.32 3.5 12.18 11.7 22.05 21.92 26.38zm34.3-39.8c2.06 11.67 1.31 20.55-2.27 27a.5.5 0 000 .12c4.52-6.58 5.62-16 3.37-28.81l-.17-1c-.64-3.57-1.31-7.26-.62-11a18.22 18.22 0 012.48-6.3 19.06 19.06 0 00-3.59 8c-.69 3.76 0 7.46.61 11zm19.51-37.83c-.11.2-.24.38-.36.58zm-33.96 112.2c-4.8 6.14-9 10.09-13.75 12.78a42.63 42.63 0 01-14.55 4.8c-1 .16-2 .3-3 .43C189 222 141 205.32 121.78 184l-1.46 1.3c19.25 21.57 67.39 38.37 96.08 34.83 1-.13 2.06-.27 3-.44a42.36 42.36 0 0014.6-4.82c4.71-2.7 9-6.64 13.75-12.78 1.59-2 3-4 4.28-6-1.03 1.44-2.03 2.91-3.18 4.33zm28.79-101.05c-3.22 2.91-6.32 5.7-8.26 9a52.58 52.58 0 017.14-7.3c3.35-3 6.8-6.14 9.19-10a56 56 0 01-8.07 8.3zM263.16 157c-.45.56-.94 1.11-1.44 1.62v.38c.09-.11.2-.22.3-.33A27 27 0 00264 156c-.31.31-.56.67-.84 1z"/><path class="cls-4" d="M257.56 157.07c-1.19-10.64-4.66-19.7-10.08-26.31-6.8-8.28-17.16-12.69-26.39-11.22h-.11c-3.66.6-6.55 2.11-8.15 4.26a7.72 7.72 0 00-.74 1.23 12.89 12.89 0 017.77-3.83h.14c9.23-1.47 19.59 2.93 26.39 11.22 5.3 6.46 8.73 15.26 10 25.59.38-.29.78-.61 1.17-.94zM229 165.85a30.07 30.07 0 0027.82-2.43 52.06 52.06 0 01-1.95 17.8 50.88 50.88 0 01-6.18 12.68 52.77 52.77 0 007.3-14.35 52.28 52.28 0 001.95-17.79 30.07 30.07 0 01-27.82 2.42c-10.22-4.33-18.42-14.2-21.92-26.41-1.75-6.08-1.51-11.23.63-15l-.31.38c-2.89 3.89-3.39 9.54-1.44 16.32 3.5 12.18 11.7 22.05 21.92 26.38zm34.3-39.8c2.06 11.67 1.31 20.55-2.27 27a.5.5 0 000 .12c4.52-6.58 5.62-16 3.37-28.81l-.17-1c-.64-3.57-1.31-7.26-.62-11a18.22 18.22 0 012.48-6.3 19.06 19.06 0 00-3.59 8c-.69 3.76 0 7.46.61 11zm19.51-37.83c-.11.2-.24.38-.36.58zm-33.96 112.2c-4.8 6.14-9 10.09-13.75 12.78a42.63 42.63 0 01-14.55 4.8c-1 .16-2 .3-3 .43C189 222 141 205.32 121.78 184l-1.46 1.3c19.25 21.57 67.39 38.37 96.08 34.83 1-.13 2.06-.27 3-.44a42.36 42.36 0 0014.6-4.82c4.71-2.7 9-6.64 13.75-12.78 1.59-2 3-4 4.28-6-1.03 1.44-2.03 2.91-3.18 4.33zm28.79-101.05c-3.22 2.91-6.32 5.7-8.26 9a52.58 52.58 0 017.14-7.3c3.35-3 6.8-6.14 9.19-10a56 56 0 01-8.07 8.3zM263.16 157c-.45.56-.94 1.11-1.44 1.62v.38c.09-.11.2-.22.3-.33A27 27 0 00264 156c-.31.31-.56.67-.84 1z"/><path class="cls-3" d="M257.56 157.07c-1.19-10.64-4.66-19.7-10.08-26.31-6.8-8.28-17.16-12.69-26.39-11.22h-.11c-3.66.6-6.55 2.11-8.15 4.26a7.72 7.72 0 00-.74 1.23 12.89 12.89 0 017.77-3.83h.14c9.23-1.47 19.59 2.93 26.39 11.22 5.3 6.46 8.73 15.26 10 25.59.38-.29.78-.61 1.17-.94zM229 165.85a30.07 30.07 0 0027.82-2.43 52.06 52.06 0 01-1.95 17.8 50.88 50.88 0 01-6.18 12.68 52.77 52.77 0 007.3-14.35 52.28 52.28 0 001.95-17.79 30.07 30.07 0 01-27.82 2.42c-10.22-4.33-18.42-14.2-21.92-26.41-1.75-6.08-1.51-11.23.63-15l-.31.38c-2.89 3.89-3.39 9.54-1.44 16.32 3.5 12.18 11.7 22.05 21.92 26.38zm34.3-39.8c2.06 11.67 1.31 20.55-2.27 27a.5.5 0 000 .12c4.52-6.58 5.62-16 3.37-28.81l-.17-1c-.64-3.57-1.31-7.26-.62-11a18.22 18.22 0 012.48-6.3 19.06 19.06 0 00-3.59 8c-.69 3.76 0 7.46.61 11zm-14.45 74.37c-4.8 6.14-9 10.09-13.75 12.78a42.63 42.63 0 01-14.55 4.8c-1 .16-2 .3-3 .43C189 222 141 205.32 121.78 184l-1.46 1.3c19.25 21.57 67.39 38.37 96.08 34.83 1-.13 2.06-.27 3-.44a42.36 42.36 0 0014.6-4.82c4.71-2.7 9-6.64 13.75-12.78 1.59-2 3-4 4.28-6-1.03 1.44-2.03 2.91-3.18 4.33zm28.79-101.05c-3.22 2.91-6.32 5.7-8.26 9a52.58 52.58 0 017.14-7.3c3.35-3 6.8-6.14 9.19-10a56 56 0 01-8.07 8.3zM263.16 157c-.45.56-.94 1.11-1.44 1.62v.38c.09-.11.2-.22.3-.33A27 27 0 00264 156c-.31.31-.56.67-.84 1z"/><path class="cls-4" d="M257.56 157.07c-1.19-10.64-4.66-19.7-10.08-26.31-6.8-8.28-17.16-12.69-26.39-11.22h-.11c-3.66.6-6.55 2.11-8.15 4.26a7.72 7.72 0 00-.74 1.23 12.89 12.89 0 017.77-3.83h.14c9.23-1.47 19.59 2.93 26.39 11.22 5.3 6.46 8.73 15.26 10 25.59.38-.29.78-.61 1.17-.94zM229 165.85a30.07 30.07 0 0027.82-2.43 52.06 52.06 0 01-1.95 17.8 50.88 50.88 0 01-6.18 12.68 52.77 52.77 0 007.3-14.35 52.28 52.28 0 001.95-17.79 30.07 30.07 0 01-27.82 2.42c-10.22-4.33-18.42-14.2-21.92-26.41-1.75-6.08-1.51-11.23.63-15l-.31.38c-2.89 3.89-3.39 9.54-1.44 16.32 3.5 12.18 11.7 22.05 21.92 26.38zm34.3-39.8c2.06 11.67 1.31 20.55-2.27 27a.5.5 0 000 .12c4.52-6.58 5.62-16 3.37-28.81l-.17-1c-.64-3.57-1.31-7.26-.62-11a18.22 18.22 0 012.48-6.3 19.06 19.06 0 00-3.59 8c-.69 3.76 0 7.46.61 11zm-14.45 74.37c-4.8 6.14-9 10.09-13.75 12.78a42.63 42.63 0 01-14.55 4.8c-1 .16-2 .3-3 .43C189 222 141 205.32 121.78 184l-1.46 1.3c19.25 21.57 67.39 38.37 96.08 34.83 1-.13 2.06-.27 3-.44a42.36 42.36 0 0014.6-4.82c4.71-2.7 9-6.64 13.75-12.78 1.59-2 3-4 4.28-6-1.03 1.44-2.03 2.91-3.18 4.33zm28.79-101.05c-3.22 2.91-6.32 5.7-8.26 9a52.58 52.58 0 017.14-7.3c3.35-3 6.8-6.14 9.19-10a56 56 0 01-8.07 8.3zM263.16 157c-.45.56-.94 1.11-1.44 1.62v.38c.09-.11.2-.22.3-.33A27 27 0 00264 156c-.31.31-.56.67-.84 1z"/><path class="cls-3" d="M121.33 174.38l6.78 5.5a2.22 2.22 0 01.32 3.13l-5.43 6.72a2.21 2.21 0 01-3.13.33l-6.77-5.5z"/><g class="cls-8"><path class="cls-4" d="M121.33 174.38l6.78 5.5a2.22 2.22 0 01.32 3.13l-5.43 6.72a2.21 2.21 0 01-3.13.33l-6.77-5.5z"/></g><g class="cls-8"><path class="cls-4" d="M121.33 174.38l6.78 5.5a2.22 2.22 0 01.32 3.13l-5.43 6.72a2.21 2.21 0 01-3.13.33l-6.77-5.5z"/></g><path class="cls-4" d="M113.07 184.56l1.19 1s6.27-8.31 11.81-7.31l-4.74-3.84z"/><rect class="cls-3" x="89.22" y="149.66" width="27.22" height="36.74" rx="2.06" transform="rotate(-50.93 102.832 168.024)"/><path class="cls-4" d="M98.81 148.14l24.46 20a1.58 1.58 0 01.29 2.21l-12 15.66s9.85-12.41 9.14-16.18c-.54-2.83-15.47-16.76-21.89-21.69z"/><path class="cls-3" d="M284.58 92.57a1.3 1.3 0 001.77-.45l2.4-4c.43-.73.39-1.55-.1-1.84l-3.44-2c-.49-.29-1.24.06-1.67.79l-2.4 4a1.29 1.29 0 00.45 1.77z"/><path class="cls-4" d="M283.93 84.41l-.54.9s4.26 2.24 3.61 5.79l2.14-3.6z"/><path class="cls-5" d="M304 69.79l-10.88-6.47 5-8.38a2.15 2.15 0 012.94-.74l7.24 4.3a2.09 2.09 0 01.73 2.87z"/><path class="cls-6" d="M308.27 58.49a2.12 2.12 0 01.73 2.91l-5 8.39-10.88-6.47 5-8.43a2.07 2.07 0 012.84-.73z"/><path class="cls-7" d="M301.1 64.26c-1.68-.41-5.7-2.77-5.84-4.52l2.89-4.85a2.07 2.07 0 012.84-.73l7.09 4.22c-3.21 5.79-4.33 6.53-6.98 5.88z"/><rect class="cls-3" x="280.23" y="67.61" width="25.23" height="16.73" rx="1.21" transform="rotate(-59.27 292.854 75.964)"/><path class="cls-4" d="M305.34 69.59l-12.18 20.49-12.84-7.63s9.45 5.83 12 5c1.91-.57 10.12-12.98 13.02-17.86z"/><rect class="cls-3" x="301.47" y="53.1" width="3.31" height="11.21" rx=".7" transform="rotate(-59.27 303.14 58.7)"/><path class="cls-9" d="M209.4 270.2s-24.25 2.57-32.36 2.57-32.37-2.57-32.37-2.57a4.89 4.89 0 01-4.88-4.88 4.9 4.9 0 014.88-4.88h64.73a4.89 4.89 0 014.88 4.88 4.89 4.89 0 01-4.88 4.88z"/><path class="cls-10" d="M209.4 270.2s-24.25 2.57-32.36 2.57-32.37-2.57-32.37-2.57a4.89 4.89 0 01-4.88-4.88 4.9 4.9 0 014.88-4.88h64.73a4.89 4.89 0 014.88 4.88 4.89 4.89 0 01-4.88 4.88z"/><path class="cls-10" d="M209.4 270.2s-24.25 2.57-32.36 2.57-32.37-2.57-32.37-2.57a4.89 4.89 0 01-4.88-4.88 4.9 4.9 0 014.88-4.88h64.73a4.89 4.89 0 014.88 4.88 4.89 4.89 0 01-4.88 4.88z"/><path class="cls-10" d="M209.4 270.2s-24.25 2.57-32.36 2.57-32.37-2.57-32.37-2.57a4.89 4.89 0 01-4.88-4.88 4.9 4.9 0 014.88-4.88h64.73a4.89 4.89 0 014.88 4.88 4.89 4.89 0 01-4.88 4.88z"/><path class="cls-9" d="M127.19 95.45s6.52 52.45 7.33 79.6 2.72 89.76 2.72 89.76c2.55 4.76 74.49 6.69 79.59 0 0 0 1.91-62.61 2.72-89.76s7.33-79.6 7.33-79.6z"/><path class="cls-11" d="M127.19 95.45s6.52 52.45 7.33 79.6 2.72 89.76 2.72 89.76c2.55 4.76 74.49 6.69 79.59 0 0 0 1.91-62.61 2.72-89.76s7.33-79.6 7.33-79.6z"/><path d="M127.19 95.45s6.52 52.45 7.33 79.6 2.72 89.76 2.72 89.76c.3 1.8 12 2.86 18.06 3.42-13.57-62.38-28.21-80.31 10.8-136.88 14.14-20 35.94-23.75 59.35-23.83.85-7.35 1.43-12.07 1.43-12.07z" fill="#0d3fd5" opacity=".1"/><path d="M227.37 97.58l-94.54-.07a47 47 0 01-5.32 0 2 2 0 01-1.6-1.66 2.41 2.41 0 01.16-.88c.64-1.73 3.74-1 3.58-6.64-.11-3.73-2.7-5.49-2.78-6.37a2.11 2.11 0 01.42-1.33 3.71 3.71 0 012.47-1.63 11.43 11.43 0 011.42.1h94c2.92 0 2.92 7.57 1.13 7.57 4.53.12 4.28 10.91 1.06 10.91z" fill="#1559d7"/><path d="M139.29 85.22c0-3.21-7.89-3.06-12.42-3.29.08.88 2.67 2.64 2.78 6.37.16 5.67-2.94 4.91-3.58 6.64a2.41 2.41 0 00-.16.88 1.32 1.32 0 00.13.48c6.77-2.07 13.25-7.81 13.25-11.08z" opacity=".56" fill="#0d3fd5"/><path class="cls-11" d="M134.51 76.44c-1.34-2.29-4.23-3.25-6.89-3.2a5.34 5.34 0 00-2.43.51 4.88 4.88 0 00-1.31 1.09 9.46 9.46 0 00-1.81 9.3 4.28 4.28 0 002.08 2.58 2.08 2.08 0 002.8-1.07c.35-1.22-.81-2.42-.72-3.69s1.77-2.46 3.12-2.83h5.91a4.29 4.29 0 00-.75-2.69z"/><path class="cls-11" d="M129.74 73.42l34.99 5.71H132.6l-2.86-5.71z"/><path d="M231.2 275.94L180 281.5c-4.6.5-8.37-3.75-8.37-9.44l.06-116.33c0-5.7 3.77-10.62 8.37-10.94l57.9-3.54c4.6-.32 8.37 4 8.37 9.57l-6.74 114.06c-.02 5.59-3.78 10.57-8.39 11.06z" fill="#ef806a"/><path class="cls-16" d="M231.2 275.94L180 281.5c-4.6.5-8.37-3.75-8.37-9.44l.06-116.33c0-5.7 3.77-10.62 8.37-10.94l57.9-3.54c4.6-.32 8.37 4 8.37 9.57l-6.74 114.06c-.02 5.59-3.78 10.57-8.39 11.06z"/><path class="cls-17" d="M237.94 275.21l-51.22 5.56c-4.61.5-8.37-3.74-8.37-9.42l.05-113.94c0-5.68 3.77-10.6 8.37-10.91l51.17-3.5c4.6-.32 8.37 4 8.37 9.55v111.62c0 5.58-3.77 10.54-8.37 11.04z"/><path class="cls-16" d="M217.98 187.65l-10.71 25.54-2.24-4 9.19-.81 4.27-.38-2.08 4.47-15.67 33.88 11.28-36.1 2.19 4.09-9.18.83-3.45.31 1.22-4.31 7.66-26.96 7.52 3.44zM175.22 175a1.86 1.86 0 01-1.78-2.07v-11.1a2.25 2.25 0 011.79-2.34 1.86 1.86 0 011.77 2.07v11.1a2.23 2.23 0 01-1.78 2.34z"/><path d="M177 173.13a2.14 2.14 0 01-1.74 1.89 1.86 1.86 0 01-1.78-2.06v-11.11a2.36 2.36 0 011.42-2.27 3.42 3.42 0 000 .46v11.1a1.85 1.85 0 001.78 2.06 1.36 1.36 0 00.32-.07z" opacity=".57" fill="#9e0000"/><path class="cls-19" d="M177 161.59v11.09a3.27 3.27 0 010 .45 1.36 1.36 0 01-.35.07 1.85 1.85 0 01-1.78-2.06V160a3.42 3.42 0 010-.46 2.05 2.05 0 01.34-.07 1.5 1.5 0 011.26.55 2.35 2.35 0 01.53 1.57z"/><circle class="cls-19" cx="175.22" cy="183.05" r="1.16"/><circle cx="175.22" cy="188.12" r="1.16" opacity=".75" fill="#9e0000"/><circle cx="175.22" cy="192.69" r="1.16" opacity=".5" fill="#9e0000"/><circle cx="175.22" cy="197.26" r="1.16" opacity=".25" fill="#9e0000"/><circle class="cls-3" cx="270" cy="225.38" r="50.79"/><circle class="cls-4" cx="270" cy="225.38" r="50.79"/><circle class="cls-4" cx="270" cy="225.38" r="50.79"/><circle class="cls-4" cx="270" cy="225.38" r="50.79"/><path class="cls-17" transform="rotate(19.86 286.829 173.056)" d="M281.79 170.08h10.01v5.86h-10.01z"/><path class="cls-6" transform="rotate(19.86 286.987 172.616)" d="M281.94 169.65h10.01v5.86h-10.01z"/><path class="cls-4" transform="rotate(19.86 286.987 172.616)" d="M281.94 169.65h10.01v5.86h-10.01z"/><path class="cls-4" transform="rotate(19.86 287.7 170.637)" d="M282.66 169.78h10.01v1.66h-10.01z"/><rect class="cls-3" x="281.52" y="165.37" width="13.95" height="5.86" rx="2.76" transform="rotate(19.86 288.535 168.342)"/><path class="cls-4" d="M296.06 167.91l-1 2.77-13.12-4.74.99-2.77"/><rect class="cls-3" x="279.7" y="162.21" width="19.88" height="5.86" rx="2.76" transform="rotate(19.86 289.687 165.167)"/><circle class="cls-3" cx="269.23" cy="221.63" r="50.79"/><circle class="cls-4" cx="269.23" cy="221.63" r="45.6"/><circle class="cls-1" cx="269.23" cy="221.63" r="42.25"/><g clip-path="url(#clip-path)"><circle class="cls-24" cx="269.37" cy="224.06" r="42.25"/><circle class="cls-24" cx="269.37" cy="224.06" r="42.25"/></g><circle cx="269.26" cy="221.54" r="18.93" fill="none" stroke="#a3c6cf" stroke-miterlimit="10" stroke-width="2" opacity=".5"/><circle cx="269.37" cy="221.73" r="24.5" transform="rotate(-60.74 269.357 221.722)" stroke-linecap="round" stroke-dasharray="7" fill="none" stroke="#a3c6cf" stroke-miterlimit="10" stroke-width="2" opacity=".5"/><path fill-rule="evenodd" fill="#ff4f48" d="M266.89 216.63l-31.41 20.84 36.09-10.84 31.41-20.84-36.09 10.84z"/><path d="M235.53 237.36l36.09-10.84 31.4-20.83-67.49 31.67zm41-44.78l5.73-7.01-.08 9.05-5.65-2.04z" fill-rule="evenodd" fill="#e53232"/><path d="M256.36 248.42l-.08 9.05 5.73-7.01-5.65-2.04zm39.79-13.87l9.05.08-7.01-5.73-2.04 5.65zm-53.8-25.95l-9.05-.08 7.01 5.73 2.04-5.65z" fill="#52b2bf" fill-rule="evenodd"/><circle class="cls-24" cx="269.23" cy="221.63" r="4.49"/><circle cx="269.22" cy="221.67" r="3.03" transform="rotate(-60.92 269.214 221.671)" fill="#52b2bf"/></g></g></svg>