<svg xmlns="http://www.w3.org/2000/svg" xmlns:xlink="http://www.w3.org/1999/xlink" id="Layer_1" x="0" y="0" enable-background="new 0 0 1920.6 384.2" version="1.1" viewBox="0 0 1920.6 384.2" xml:space="preserve"><style type="text/css">.st13{fill:#e48a6b}.st14{fill:#6b1414}.st15{fill:#e06c4b}.st16{fill:#aaa8cf}.st20{fill:#eacec1}.st22{opacity:.2;fill:#6b1414}.st23{fill:#232053}.st25{fill:#413c6b}.st26{fill:#cac7d2}.st27{fill:#646084}.st28{fill:none;stroke:#b93630;stroke-width:.3952;stroke-miterlimit:10}.st30{fill:#fff}.st32{opacity:.5;fill:#ebe7ef}.st36{fill:#233061}.st40{fill:#d93717}.st41{fill:#932717}.st42{fill:#d27313}.st43{fill:#a8d7d6}.st44{fill:#c8aed4}.st45{fill:#aa85bb}.st46{fill:#492775}.st47{fill:#7c519a}.st53{fill:#e17b0d}.st54{fill:#f2f9fb}</style><title>Asset 3</title><g id="Layer_2_1_"><g id="Layer_1-2"><linearGradient id="SVGID_1_" x1="960.829" x2="959.147" y1="-22.492" y2="398.026" gradientUnits="userSpaceOnUse"><stop offset="0" stop-color="#1c7ec0"/><stop offset=".094" stop-color="#1e65a9"/><stop offset=".198" stop-color="#205095"/><stop offset=".302" stop-color="#21448a"/><stop offset=".403" stop-color="#214086"/><stop offset=".409" stop-color="#213f85"/><stop offset=".526" stop-color="#223771"/><stop offset=".643" stop-color="#233265"/><stop offset=".76" stop-color="#233061"/></linearGradient><rect width="1920" height="371.2" x="0" y="0" fill="url(#SVGID_1_)"/><g><linearGradient id="SVGID_2_" x1="1489.32" x2="1036.062" y1="145.302" y2="133.134" gradientUnits="userSpaceOnUse"><stop offset="0" stop-color="#1c7ec0"/><stop offset=".836" stop-color="#224a8d"/><stop offset=".999" stop-color="#233f83"/></linearGradient><path fill="url(#SVGID_2_)" d="M1281.6,108.9c19.1-9,34.3-13.9,60.2-29.8c37.8-23.2,49-39.3,69.9-38.8c27.2,0.7,46.6,29,52.4,36.9 c71.4,95.8,360.9,136.5,359,158.4c-1.4,16.5-169.3,22.8-729.7-1.2C1192.8,157.6,1248.5,124.5,1281.6,108.9z"/><linearGradient id="SVGID_3_" x1="1458.163" x2="1458.163" y1="88.451" y2="241.321" gradientUnits="userSpaceOnUse"><stop offset="0" stop-color="#1c7ec0" stop-opacity="0"/><stop offset=".174" stop-color="#1b76b7" stop-opacity=".174"/><stop offset=".462" stop-color="#195f9e" stop-opacity=".462"/><stop offset=".826" stop-color="#153b75" stop-opacity=".827"/><stop offset=".999" stop-color="#13285f"/></linearGradient><path fill="url(#SVGID_3_)" d="M1281.6,108.9c19.1-9,34.3-13.9,60.2-29.8c37.8-23.2,49-39.3,69.9-38.8c27.2,0.7,46.6,29,52.4,36.9 c71.4,95.8,360.9,136.5,359,158.4c-1.4,16.5-169.3,22.8-729.7-1.2C1192.8,157.6,1248.5,124.5,1281.6,108.9z" opacity=".55"/></g><g><linearGradient id="SVGID_4_" x1="1304.236" x2="897.197" y1="179.297" y2="186.834" gradientUnits="userSpaceOnUse"><stop offset="0" stop-color="#1c7ec0"/><stop offset=".836" stop-color="#224a8d"/><stop offset=".999" stop-color="#233f83"/></linearGradient><path fill="url(#SVGID_4_)" d="M970.4,246.8c47.1-66.1,85.9-82.9,113.4-85.2c14.1-1.2,38.8,0.2,62.6-16c19-12.9,18.1-23.8,32.1-32 c36.2-21.3,97.5,19.6,108,26.7c56.7,37.9,51.4,71,98.7,94.7c47.3,23.7,97.4,13,97.4,11.9C1482.5,245.2,1368,244.5,970.4,246.8z"/><linearGradient id="SVGID_5_" x1="1226.424" x2="1226.424" y1="114.751" y2="247.119" gradientUnits="userSpaceOnUse"><stop offset="0" stop-color="#1c7ec0" stop-opacity="0"/><stop offset=".174" stop-color="#1b76b7" stop-opacity=".174"/><stop offset=".462" stop-color="#195f9e" stop-opacity=".462"/><stop offset=".826" stop-color="#153b75" stop-opacity=".827"/><stop offset=".999" stop-color="#13285f"/></linearGradient><path fill="url(#SVGID_5_)" d="M970.4,246.8c47.1-66.1,85.9-82.9,113.4-85.2c14.1-1.2,38.8,0.2,62.6-16c19-12.9,18.1-23.8,32.1-32 c36.2-21.3,97.5,19.6,108,26.7c56.7,37.9,51.4,71,98.7,94.7c47.3,23.7,97.4,13,97.4,11.9C1482.5,245.2,1368,244.5,970.4,246.8z" opacity=".55"/></g><g><linearGradient id="SVGID_6_" x1="365.297" x2="698.734" y1="158.622" y2="189.85" gradientUnits="userSpaceOnUse"><stop offset="0" stop-color="#1c7ec0"/><stop offset=".836" stop-color="#224a8d"/><stop offset=".999" stop-color="#233f83"/></linearGradient><path fill="url(#SVGID_6_)" d="M691.9,235.4c-63.5-89-115.7-111.6-152.6-114.8c-19-1.6-52.2,0.3-84.3-21.6c-25.5-17.4-24.4-32.1-43.2-43.1 C363,27.3,280.5,82.4,266.3,91.9c-76.4,51.1-69.3,95.6-132.9,127.5c-63.8,32-131.1,17.5-131.1,16 C2.3,233.2,156.4,232.2,691.9,235.4z"/><linearGradient id="SVGID_7_" x1="347.109" x2="347.109" y1="120.926" y2="238.258" gradientUnits="userSpaceOnUse"><stop offset="0" stop-color="#1c7ec0" stop-opacity="0"/><stop offset=".174" stop-color="#1b76b7" stop-opacity=".174"/><stop offset=".462" stop-color="#195f9e" stop-opacity=".462"/><stop offset=".826" stop-color="#153b75" stop-opacity=".827"/><stop offset=".999" stop-color="#13285f"/></linearGradient><path fill="url(#SVGID_7_)" d="M691.9,235.4c-63.5-89-115.7-111.6-152.6-114.8c-19-1.6-52.2,0.3-84.3-21.6c-25.5-17.4-24.4-32.1-43.2-43.1 C363,27.3,280.5,82.4,266.3,91.9c-76.4,51.1-69.3,95.6-132.9,127.5c-63.8,32-131.1,17.5-131.1,16 C2.3,233.2,156.4,232.2,691.9,235.4z" opacity=".55"/></g><g><linearGradient id="SVGID_8_" x1="530.476" x2="859.977" y1="199.818" y2="199.818" gradientUnits="userSpaceOnUse"><stop offset="0" stop-color="#1c7ec0"/><stop offset=".836" stop-color="#224a8d"/><stop offset=".999" stop-color="#233f83"/></linearGradient><path fill="url(#SVGID_8_)" d="M592.8,181.5c13.2-10.1,28.1-20.7,44.7-19.6c20.3,1.4,35.4,19.6,54.7,25.9c15,4.9,31.2,2.2,46.9,0.1 c7.3-1,14.7-1.8,21.9-0.2c6.3,1.4,12.1,4.6,17.6,8.1c13.1,8.2,25,18.2,38.1,26.4c13.1,8.2,27.8,15.7,43.2,15.7H530.6 c-0.4-2.2,0-4.6,1-6.6c10.1-6.8,17.7-16.2,26.9-23.7C569.7,198.6,581.4,190.2,592.8,181.5z"/><linearGradient id="SVGID_9_" x1="530.476" x2="859.977" y1="199.818" y2="199.818" gradientUnits="userSpaceOnUse"><stop offset="0" stop-color="#1c7ec0" stop-opacity="0"/><stop offset=".174" stop-color="#1b76b7" stop-opacity=".174"/><stop offset=".462" stop-color="#195f9e" stop-opacity=".462"/><stop offset=".826" stop-color="#153b75" stop-opacity=".827"/><stop offset=".999" stop-color="#13285f"/></linearGradient><path fill="url(#SVGID_9_)" d="M592.8,181.5c13.2-10.1,28.1-20.7,44.7-19.6c20.3,1.4,35.4,19.6,54.7,25.9c15,4.9,31.2,2.2,46.9,0.1 c7.3-1,14.7-1.8,21.9-0.2c6.3,1.4,12.1,4.6,17.6,8.1c13.1,8.2,25,18.2,38.1,26.4c13.1,8.2,27.8,15.7,43.2,15.7H530.6 c-0.4-2.2,0-4.6,1-6.6c10.1-6.8,17.7-16.2,26.9-23.7C569.7,198.6,581.4,190.2,592.8,181.5z" opacity=".55"/></g><g><polygon fill="#25519e" points="1920 227 1920 384 722 383.8 722 384 0 384 0 227"/></g><path fill="#233061" d="M1920.5,384V227.3l-1920-0.5c-3.9,8.5,13.6,16.3,39.8,18.9s54.4,1.5,81.9,0.9c43.6-1,87.5-0.7,130.9,0.9 c20.9,0.8,48.4,5.1,40.6,11.2c-2.9,2.3-10.3,3.7-17.2,4.9c-25.6,4.6-51.1,9.1-76.7,13.7c-5,0.9-10.3,1.9-12.6,3.5 c-6.7,4.9,16.6,8.2,33.7,8.4c198.6,3.1,398.8-11,595.8-2.5c19,0.8,43.6,4.4,38.6,10.1c-2,2.3-8.7,3.9-14.9,5.3 c-27.7,6.3-55.5,12.6-83.2,18.9c-4.2,0.9-8.6,2-9.6,3.6c-2.1,3.2,10.7,5.3,21.1,6c173.8,12.4,356-2.4,533.5,2.8 c15.9,0.5,36.1,2.5,36.1,7.5c0,4.7-18.4,6.9-32.9,8.3c-14.5,1.4-31.6,5.4-25.3,9.7c4.1,2.8,15.6,3.5,25.4,3.8 C1507.5,369.8,1718.3,377,1920.5,384z" opacity=".15"/><path fill="#233061" d="M1910.3,338.5V384h-432.7c0.3-0.2,0.5,0.2,0.8,0l14.4-12.8l23.4-19.4l1.3-1.1c9.5-7.9,22.4-12.3,35.9-12.3 H1910.3z" opacity=".32"/><g><g><linearGradient id="SVGID_10_" x1="1218.097" x2="1461.139" y1="174.785" y2="174.785" gradientUnits="userSpaceOnUse"><stop offset="0" stop-color="#fff" stop-opacity="0"/><stop offset="1" stop-color="#fff"/></linearGradient><path fill="url(#SVGID_10_)" d="M1447.6,217.9c-8.7-1.1-13.5,5.9-17.8,3.4c-4.7-2.7-0.1-11.8-5.4-17.8c-5.7-6.4-14.8-0.1-22.6-5.3 c-10.8-7.3-1.7-25.3-11.3-34.1c-10.6-9.5-27.1,7.1-45.8-0.9c-18.5-7.8-13.9-28.1-32.3-37.1c-20.3-10-52.9,1.8-59.3,19.2 c-4.7,12.6,6.5,22,0,33.6c-6.1,10.9-18.9,7.8-27.5,16.6c-6.8,6.9-8.5,18.9-7.1,31.5h242.6 C1459.1,222.6,1453.4,218.6,1447.6,217.9z" opacity=".63"/><g><g><g><g><rect width="6.1" height="6.6" x="1363.6" y="157" class="st13"/><rect width="2.8" height="6.6" x="1369.7" y="157" class="st14"/><rect width=".9" height="6.6" x="1366.2" y="157" class="st14"/></g><g><g><rect width="12" height="12.8" x="1396" y="188.3" class="st15"/><rect width="5.5" height="12.8" x="1408" y="188.4" class="st16"/><rect width="1.8" height="12.7" x="1401.1" y="188.3" class="st13"/><rect width="13.7" height="2" x="1394.8" y="186.3" fill="#ded8e8"/><rect width="6.1" height="2" x="1408.5" y="186.3" fill="#c3b5d4"/><rect width="12" height="1.2" x="1396" y="188.4" fill="#8c86a3" enable-background="new" opacity=".2"/><rect width="5.5" height="1.2" x="1408" y="188.3" class="st14"/></g><g><rect width="11" height="11.9" x="1364.8" y="163.6" class="st14"/><rect width="5" height="11.9" x="1375.7" y="163.6" class="st14"/><rect width="1.6" height="11.8" x="1369.4" y="163.6" class="st14"/></g><g><rect width="23" height="25.6" x="1363.3" y="175.5" class="st15"/><rect width="10.4" height="25.6" x="1386.2" y="175.5" class="st16"/><rect width="3.5" height="25.4" x="1373.1" y="175.5" class="st13"/><polygon points="1386.3 175.5 1389.7 188.3 1396.7 188.3 1396.7 175.5" class="st14"/><polygon points="1396.7 175.5 1400.9 186.3 1390.4 186.3 1386.3 175.5" class="st15"/></g></g><rect width="12.6" height="5.5" x="1425.7" y="128.4" class="st20"/><path d="M1464.3,128.4h-30.8c-1.4,0-2.5,1.1-2.5,2.5v17.5h35.5v-17.7C1466.5,129.5,1465.5,128.4,1464.3,128.4z" class="st13"/><path fill="#6b1415" d="M1463.2,129.9h-28.5c-1.3,0-2.3,1-2.3,2.3v16.2h32.9V132C1465.2,130.8,1464.3,129.9,1463.2,129.9z" opacity=".2"/><path d="M1463.2,129.9h-28.5c-1.3,0-2.3,1-2.3,2.3v16.2h32.9V132C1465.2,130.8,1464.3,129.9,1463.2,129.9z" class="st22"/><circle cx="1473.2" cy="219.7" r="7.9" class="st23"/><circle cx="1406.3" cy="219.7" r="7.9" class="st23"/><path fill="#ebe7ef" d="M1500.4,187.8l-18.9-40.9c-0.4-0.8-1.1-1.3-2-1.3h-27.2l21,45.3h25.1 C1500,190.8,1501.1,189.2,1500.4,187.8z"/><path d="M1479.5,145.6H1450l1.3,2.8h26.8c0.8,0,1.6,0.5,2,1.3l19.1,41.2l-25.9,0v26.5h28.5v-26 c0-0.3-0.1-0.6-0.2-0.9l-20.2-43.6C1481.1,146.1,1480.3,145.6,1479.5,145.6z" class="st13"/><rect width="42.2" height="26.5" x="1431.1" y="190.8" class="st15" transform="matrix(-1 -1.224647e-16 1.224647e-16 -1 2904.3284 408.1387)"/><path d="M1369.7,217.3h61.4v-88.8h-59.8c-1.2,0-2.2,1-2.2,2.2v85.9C1369,217,1369.3,217.3,1369.7,217.3z" class="st20"/><path d="M1369,201.9h62.1v15.4h-61.4c-0.4,0-0.7-0.3-0.7-0.7V201.9z" class="st13"/><path d="M1384.8,217.3h17.7c-1-3.9-4.6-6.8-8.9-6.8S1385.9,213.4,1384.8,217.3z" class="st23"/><path d="M1451.7,217.3h17.7c-1-3.9-4.6-6.8-8.9-6.8S1452.8,213.4,1451.7,217.3z" class="st23"/><circle cx="1460.7" cy="219.7" r="7.9" class="st25"/><circle cx="1460.7" cy="219.7" r="4" class="st26"/><circle cx="1460.7" cy="219.7" r="1.6" class="st27"/><line x1="1431.1" x2="1369" y1="208.5" y2="208.5" class="st28"/><line x1="1431.1" x2="1369" y1="207.3" y2="207.3" class="st28"/><g opacity=".3"><line x1="1431.6" x2="1369.4" y1="131.2" y2="131.2" class="st28"/><line x1="1369" x2="1431.1" y1="134" y2="134" class="st28"/><line x1="1369" x2="1431.1" y1="136.7" y2="136.7" class="st28"/><line x1="1369" x2="1431.1" y1="139.5" y2="139.5" class="st28"/><line x1="1369" x2="1431.1" y1="142.3" y2="142.3" class="st28"/><line x1="1369" x2="1431.1" y1="145" y2="145" class="st28"/><line x1="1369" x2="1431.1" y1="147.8" y2="147.8" class="st28"/><line x1="1369" x2="1431.1" y1="153.3" y2="153.3" class="st28"/><line x1="1369" x2="1431.1" y1="150.8" y2="150.8" class="st28"/><line x1="1369" x2="1431.1" y1="156.1" y2="156.1" class="st28"/><line x1="1369" x2="1431.1" y1="158.8" y2="158.8" class="st28"/><line x1="1369" x2="1431.1" y1="161.6" y2="161.6" class="st28"/><line x1="1369" x2="1431.1" y1="164.4" y2="164.4" class="st28"/><line x1="1369" x2="1431.1" y1="167.1" y2="167.1" class="st28"/><line x1="1369" x2="1431.1" y1="169.9" y2="169.9" class="st28"/><line x1="1369" x2="1431.1" y1="172.6" y2="172.6" class="st28"/><line x1="1369" x2="1431.1" y1="175.4" y2="175.4" class="st28"/><line x1="1369" x2="1431.1" y1="178.2" y2="178.2" class="st28"/><line x1="1369" x2="1431.1" y1="180.9" y2="180.9" class="st28"/><line x1="1369" x2="1431.1" y1="183.7" y2="183.7" class="st28"/><line x1="1369" x2="1431.1" y1="186.4" y2="186.4" class="st28"/><line x1="1369" x2="1431.1" y1="189.2" y2="189.2" class="st28"/><line x1="1369" x2="1431.1" y1="192" y2="192" class="st28"/><line x1="1369" x2="1431.1" y1="194.7" y2="194.7" class="st28"/><line x1="1369" x2="1431.1" y1="197.5" y2="197.5" class="st28"/><line x1="1369" x2="1431.1" y1="200.3" y2="200.3" class="st28"/></g><path d="M1433.8,190.8h32.7v-42.5h-32.1c-0.3,0-0.6,0.3-0.6,0.6V190.8z" class="st14"/><path d="M1481.9,178.1c-2.3-2.1-5.5-2.9-8.5-2c-6.4,1.8-8.7,9.1-5.1,14.2c0.1,0.2,1.5,0.1,1.3-0.2 c-0.2-0.3-0.5-0.6-0.7-0.9c-0.4-0.7-0.7-1.3-0.9-2l7.9-1.6l-0.1-0.6l0.4,0.4l5-6.3c0.5,0.5,1,1.1,1.4,1.7 c2,3.3,1.4,7.5-1.4,10.1h1.6C1485.7,187.3,1485.7,181.7,1481.9,178.1z M1475.4,184.5l-7.7,1.6c-0.4-3.1,1-6.2,3.8-7.9 c2.8-1.7,6.2-1.5,8.8,0.2L1475.4,184.5z" class="st14"/><polygon points="1494.9 181.7 1466.5 181.7 1457.4 190.8 1473.3 190.8 1499.1 190.8" class="st22"/><g><path d="M1433.6,147h15.3c1.1,0,2.1,0.5,2.9,1.2l0.2,0.2c0.3,0.3,0.5,0.7,0.7,1.1l18.9,40.9 c0.2,0.4,0.3,0.9,0.3,1.4v9.9c0,0.9-0.7,1.6-1.6,1.6h-11.8c-5.5,0-10.3,2.8-13.1,7c-0.3,0.4-0.7,0.6-1.2,0.6h-10.9 c-0.5,0-0.9-0.4-0.9-0.9v-61.9C1432.4,147.5,1433,147,1433.6,147z" class="st28"/></g><path d="M1436.6,196.7h3.7c0.1,0,0.2,0.1,0.2,0.2v1c0,0.1-0.1,0.2-0.2,0.2h-3.7c-0.1,0-0.2-0.1-0.2-0.2v-1 C1436.4,196.8,1436.5,196.7,1436.6,196.7z" class="st14"/><circle cx="1393.8" cy="219.7" r="7.9" class="st25"/><circle cx="1393.8" cy="219.7" r="4" class="st26"/><circle cx="1393.8" cy="219.7" r="1.6" class="st27"/><path d="M1431.1,128.4" class="st13"/><path d="M1452.9,146.9c-0.4-0.8-1.2-1.3-2-1.3h-17.1h-1.6c-0.6,0-1.2,0.5-1.2,1.2v1.6v42.5h2.8v-41.3 c0-0.7,0.5-1.2,1.2-1.2h14.4c0.9,0,1.7,0.5,2,1.3l19.1,41.2l0,0.3h2.7v-0.3L1452.9,146.9z" class="st13"/><polygon points="1369 163.6 1389.5 163.6 1402.2 151.1 1431.1 151.1 1431.1 158.2 1406.2 158.2 1390 174.2 1369 174.2" class="st13"/><polyline points="1487.4 187.5 1491.7 191.9 1496.7 191.9" class="st28"/><line x1="1490.8" x2="1474" y1="187.5" y2="187.5" class="st28"/><g><path d="M1478.4,218.1h-4.6c-0.3,0-0.5-0.2-0.5-0.5v-3.7c0-0.3,0.2-0.5,0.5-0.5l4.6,0.1c0.3,0,0.5,0.2,0.5,0.5 v3.6C1478.9,217.9,1478.7,218.1,1478.4,218.1z" class="st14"/><path d="M1502,213.5l-26.7-0.2c-0.4,0-0.6,0.3-0.6,0.6v3.5c0,0.4,0.3,0.6,0.6,0.6h26.7c0.4,0,0.6-0.3,0.6-0.6 v-3.3C1502.6,213.8,1502.3,213.5,1502,213.5z" class="st22"/><path d="M1473.3,207.3v4.5h-0.6c-0.3,0-0.6-0.2-0.7-0.5l-1.2-3c-0.2-0.5,0.2-1,0.7-1H1473.3z" class="st26"/><path d="M1479.8,211.8h-6.5v-4.5l5.8-0.1c0.5,0,1,0.3,1.2,0.8l0.7,2C1481.4,210.8,1480.8,211.8,1479.8,211.8z" class="st30"/><path d="M1495.9,211.8h5.9v-4.5l-4.8-0.1c-0.4,0-0.7,0.2-0.8,0.6l-1.1,2.9 C1494.9,211.2,1495.3,211.8,1495.9,211.8z" class="st30"/><path d="M1482.4,205.5c-0.6,0-1,0.6-0.8,1.2l1.8,4.5c0.1,0.3,0.5,0.6,0.8,0.6l7.9-0.1c0.4,0,0.7-0.2,0.8-0.6 l1.8-4.3c0.2-0.6-0.2-1.2-0.8-1.2L1482.4,205.5z" class="st15"/><g><path d="M1484,200.6c2.8,0.1,5.6,0.1,8.4,0" class="st28"/></g><g><path d="M1484,199.4c2.8,0.1,5.6,0.1,8.4,0" class="st28"/></g><g><path d="M1484,198.1c2.8,0.1,5.6,0.1,8.4,0" class="st28"/></g><path d="M1484.1,211.2l-1.5-5.7h-0.2c-0.6,0-1,0.6-0.8,1.2l1.8,4.5c0.1,0.3,0.5,0.6,0.8,0.6l7.9-0.1 c0.1,0,0.1,0,0.2,0L1484.1,211.2z" class="st14"/></g><g><path fill="#ebe7ef" d="M1499.1,190.8l-19.1-41.2c-0.4-0.8-1.1-1.3-2-1.3h-24.5l19.7,42.5H1499.1z" opacity=".8"/><path d="M1485.2,160.8c-5,3.6-7,8.2-11.6,7.7c-4.5-0.5-6.4-5.2-10.1-4.3c-0.8,0.2-1.4,0.6-2,1.1l11.8,25.5 l25.9,0L1485.2,160.8z" class="st32"/><polyline points="1487.4 187.5 1491.7 191.9 1496.7 191.9" class="st28"/><line x1="1490.8" x2="1474" y1="187.5" y2="187.5" class="st28"/></g></g></g><linearGradient id="SVGID_11_" x1="1473.272" x2="1567.132" y1="217.488" y2="217.488" gradientUnits="userSpaceOnUse"><stop offset="0" stop-color="#e49966"/><stop offset=".993" stop-color="#fff" stop-opacity="0"/></linearGradient><path fill="url(#SVGID_11_)" d="M1479.1,207.1l-5.8,0.1v4.5c0,0,41,16.1,42,16.1c1.2,0,51.8,0,51.8,0 C1567.1,226.8,1479.6,207.1,1479.1,207.1z" opacity=".57"/><linearGradient id="SVGID_12_" x1="1495.07" x2="1602.587" y1="217.488" y2="217.488" gradientUnits="userSpaceOnUse"><stop offset="0" stop-color="#e49966"/><stop offset=".993" stop-color="#fff" stop-opacity="0"/></linearGradient><path fill="url(#SVGID_12_)" d="M1501.8,207.3l-4.8-0.1c-0.4,0-0.7,0.2-0.8,0.6l-1.1,2.9c-0.2,0.6,0.2,1.2,0.8,1.2 c0,0,40.3,15.6,41.3,15.6c1.2,0,65.3,0.4,65.3,0.4C1602.6,226.8,1501.8,207.3,1501.8,207.3z" opacity=".57"/><path d="M1431.1,190.8h2.8v-41.3c0-0.7,0.5-1.2,1.2-1.2h14.4c0.9,0,1.7,0.5,2,1.3l19.1,41.2h2.7H1431.1z" class="st32"/><path d="M1431.1,190.8h2.8v-41.3c0-0.7,0.5-1.2,1.2-1.2h14.4c0.9,0,1.7,0.5,2,1.3l19.1,41.2h2.7H1431.1z" class="st32"/></g><linearGradient id="SVGID_13_" x1="847" x2="1461.213" y1="147.918" y2="147.918" gradientUnits="userSpaceOnUse"><stop offset="0" stop-color="#fff" stop-opacity="0"/><stop offset="1" stop-color="#fff"/></linearGradient><path fill="url(#SVGID_13_)" d="M1358.7,215.9c-20.9-0.4-37.9,13.9-49.6,7.8c-16.1-8.3-8.1-32.1-24.1-45.5c-8.7-7.2-20.4-8.1-50-3.6 c-71.5,11-85.2,28.6-103.6,19.8c-26.3-12.7-7.7-53.6-37.5-89.5c-31.1-37.3-91.1-40.8-129.5-33c-46.2,9.3-96.8,41.9-112.5,92.8 c-0.6,2.1-9.5,32-2,62.5l611.2-0.1C1459,226.3,1392.7,216.5,1358.7,215.9z" opacity=".5"/></g></g><g><g><polygon points="1478.6 328.3 1456.1 311.1 1481 318.3 1471.1 296.9 1489.8 316.1 1486.4 295.4 1499.1 312.5 1500.1 295.7 1511.1 314.1 1521.1 305.2 1518.6 328.4 1495.2 349.8" class="st36"/></g><g><g><polygon points="1601.7 285.7 1583.4 268.1 1609.6 276.4 1608.4 255.6 1621.1 274.9 1627.4 255.1 1634.1 272 1643.6 256.2 1647.6 274.2 1663.9 266.4 1649.4 288.1 1610.7 307" class="st36"/></g><g><rect width="2.1" height="50.4" x="1601.6" y="231.9" class="st36" transform="matrix(0.8728 -0.488 0.488 0.8728 78.3597 814.8182)"/></g><g><polygon points="1595.3 244 1595.6 231.7 1591.1 236.5 1583.8 237.5" class="st36"/></g><g><polygon points="1592.2 236.3 1591.2 232.3 1587.2 234.6 1590.5 237.4" class="st36"/></g><g><g><path d="M1632.8,276.9C1632.8,276.9,1632.8,276.9,1632.8,276.9c-0.6,0.1-1.1-0.3-1.2-0.9 c-1.2-10.2,3.9-48.8,11.1-62.3c0.3-0.5,0.9-0.7,1.4-0.4c0.5,0.3,0.7,0.9,0.4,1.4c-6.8,12.9-12,51.3-10.9,61.1 C1633.7,276.3,1633.3,276.8,1632.8,276.9z" class="st36"/></g><g><path d="M1638.9,232.2c-0.4,0.1-0.8,0-1.2-0.1c-1.7-0.4-2.7-2.1-2.3-3.8c1.3-5.3,2.7-9.6,4.1-12.9 c0.7-1.6,2.5-2.3,4.1-1.6c1.6,0.7,2.3,2.5,1.6,4.1c-1.3,3-2.5,7-3.8,12C1641.2,231.2,1640.2,232.1,1638.9,232.2z" class="st36"/></g></g><g><path d="M1631.3,274.4c4-16.1,13.6-25.7,16-27.3c-3,3.2-14.5,21.6-13.2,28.1 C1632,275.6,1631.3,274.4,1631.3,274.4z" class="st36"/></g></g><path d="M1920,170.8V384h-512.3c2.3-4.5,4.9-9,7.5-12.8c6-8.9,11.9-15.3,13.4-17c14.4-15.7,31.7-19.4,53-22.1 c11.2-1.4,23.6-2.7,37.2-5.2c17.9-3.4,37.9-9.2,60.6-21c16.1-8.4,15.3-10.2,24.4-15.6c2.1-1.3,4.8-2.8,8.5-4.6 c6.3-3.2,12.7-6.1,20.4-8.8c0.3-0.1,0.5-0.2,0.8-0.3c4.2-1.5,8.7-2.9,13.8-4.3c2.9-0.8,6.1-1.6,9.4-2.4c0,0,0,0,0,0 c1.9-0.4,3.9-0.9,5.9-1.4c21.3-4.7,50.7-9.4,94.9-14.7c52.3-6.3,50.6-5.6,60-8c4.6-1.1,8.7-2.6,12.4-4.2 c4.2-1.8,7.9-3.9,11.3-6.2c16.5-11.2,25.4-27.5,42.6-42.6c6.1-5.3,13.2-10.6,22-15.3C1910,175.1,1914.9,172.9,1920,170.8z" class="st36"/><path fill="#233f83" d="M1920,253.6v87.9V384h-476.2c5.1-4.9,11.4-9.4,17-12.8c2.9-1.7,5.5-3.2,7.7-4.5 c17.4-9.8,33.9-13.3,47.6-14.9c8-0.9,15-1.1,20.7-1.6c18.2-1.5,31-5.8,42.3-11.7c22.2-11.7,38.7-29.7,79.2-45.2 c70-26.9,83,2.3,187-18.6C1878.2,268.1,1902.3,259.7,1920,253.6z" opacity=".26"/></g><g><polygon points="474.3 331.6 467.2 322.2 478.6 327.9 479.5 318.4 483.9 328 488.3 319.5 490 327.7 495.5 321.2 496 329.7 504 327.3 495.8 336.2 476.9 341.9" class="st36"/><polygon points="111.4 309.9 102 302.9 114.5 305.3 112.8 295.8 119.7 303.9 121.5 294.5 125.4 301.9 128.9 294.1 131.8 302.2 138.8 297.7 133.3 308.4 116.7 319.2" class="st36"/><g><g><polygon points="336.6 241.7 334.9 228.8 342.7 240.5 349 231.8 347.9 243.6 356.7 237.8 354 246.6 362.8 243.4 358.7 251.9 367.7 254 354.9 258 333.4 253.1" class="st36"/></g><g><rect width="25.9" height="1.4" x="333.3" y="229.8" class="st36" transform="matrix(0.166 -0.9861 0.9861 0.166 61.3882 533.6467)"/></g><g><polygon points="347.5 222.9 351.6 218.1 348.2 218.6 344.9 216.7" class="st36"/></g><g><polygon points="348.7 218.9 349.6 217 347.2 216.6 347.7 218.8" class="st36"/></g><g><g><path d="M352.2,248.4c-0.1,0-0.3,0-0.4-0.1c-0.3-0.2-0.4-0.6-0.2-0.9c2.8-4.5,17.3-18.3,24.5-21.4 c0.3-0.1,0.7,0,0.9,0.4c0.1,0.3,0,0.7-0.4,0.9c-6.9,2.9-21.2,16.6-23.9,20.9C352.6,248.3,352.4,248.4,352.2,248.4z" class="st36"/></g><g><path d="M369.5,233c-0.6,0-1.2-0.3-1.6-0.8c-0.7-0.9-0.5-2.2,0.4-2.9c2.2-1.7,4.2-3,5.9-3.9 c1-0.5,2.2-0.2,2.8,0.8c0.5,1,0.2,2.2-0.8,2.8c-1.4,0.8-3.2,2-5.3,3.5C370.4,232.8,370,233,369.5,233z" class="st36"/></g></g><g><path d="M352.1,246.7c6.8-5.1,13.7-5.9,15.2-5.8c-2.2,0.3-12.7,4-14.3,7C352,247.4,352.1,246.7,352.1,246.7z" class="st36"/></g></g><path d="M614.4,384L0,384v-24.3c0.2-0.1,0.5-0.3,0.7-0.4C23,345.5,64.4,331,106.7,315c39.6-15,80.1-31.3,106.2-49.7 c24.2-19.1,41-26.1,51.1-28.9c1.6-0.4,3.1-0.8,4.4-1c3.3-0.6,5.5-0.8,6.7-0.9c4.1-0.5,13.2-1.3,26.7,0.9c1.9,0.3,3.9,0.7,5.9,1.1 c8,1.7,17.4,4.5,27.9,9c0.9,0.4,1.9,0.8,2.8,1.2c2.5,1.1,4.9,2.2,7.1,3.3c0.3,0.2,0.6,0.3,1,0.5c0.4,0.2,0.9,0.4,1.3,0.7 c2.2,1.1,4.3,2.2,6.2,3.4c1.4,0.8,2.8,1.6,4.1,2.4c17.4,10.8,26.6,22.1,35.2,32.7c0,0,0,0,0,0c1.2,1.4,2.3,2.9,3.5,4.3 c7.7,9.3,15.8,17.9,29.9,24.9c0.2,0.1,0.3,0.2,0.5,0.2c0.1,0.1,0.2,0.1,0.4,0.2c1.7,0.8,3.5,1.6,5.4,2.4c2.6,1,5,2,7.5,2.8 c7.7,2.7,14.8,4.5,21.6,5.7c4.2,0.8,8.4,1.3,12.4,1.7c0.8,0.1,1.5,0.1,2.3,0.2h0c1.9,0.2,3.8,0.3,5.6,0.4c0,0,0,0,0,0 c1.5,0.1,2.9,0.2,4.3,0.3h0c2,0.1,4,0.2,5.9,0.3c0,0,0.1,0,0.1,0c1.9,0.1,3.8,0.2,5.6,0.3c6.6,0.4,13.4,0.9,20.4,1.9 c3.1,0.4,6.2,1,9.4,1.7c5.6,1.2,11.6,2.8,17.9,5h0c1.6,0.5,3.1,1.1,4.7,1.7c0.6,0.2,1.2,0.4,1.7,0.7c0.6,0.2,1.2,0.5,1.9,0.8 c0.1,0,0.2,0.1,0.3,0.1c0.3,0.1,0.6,0.2,0.9,0.4c0.9,0.4,1.9,0.8,2.9,1.2c4.1,1.8,9.8,4.2,16.1,7c0.7,0.3,1.3,0.6,2,0.9 c0,0,0,0,0,0c10.1,4.6,21.3,10.2,28.9,16.4C610.5,375.3,613.9,379.6,614.4,384z" class="st36"/><path fill="#26367b" d="M437.3,366c0,0.2,0,0.3,0,0.5c0,0.1,0,0.2-0.1,0.4c-0.3,1.5-1.1,2.9-2.4,4.4c-0.1,0.1-0.2,0.2-0.3,0.3 c-0.6,0.6-1.2,1.2-2,1.8c-2.6,2.2-6.3,4.4-10.8,6.5c-2,0.9-4.1,1.8-6.4,2.7h0c-1.2,0.5-2.5,0.9-3.8,1.4l-369.1,0 C32,365.3,208.7,299.4,216.9,283.8c15.7-29.7,67.8-27,77.1-26.6c11.3,0.6,23.3,2.9,32.9,6.1c3.2,1.1,6.1,2.2,8.8,3.5 c0.2,0.1,0.3,0.2,0.5,0.2c4.4,2.1,7.7,4.5,9.5,7c0.2,0.3,0.4,0.6,0.6,0.9c0.6,1,0.9,2,0.9,3c0,0.4-0.1,0.9-0.1,1.3 c0,0.1,0,0.1-0.1,0.2c0,0,0,0,0,0c-0.6,2-2.4,3.6-4.9,5c0,0,0,0,0,0c-1.2,0.7-2.4,1.4-3.8,2c-6.8,3.3-15.1,6.4-16.1,12.7 c-1.4,8.4,17.4,17.4,40.2,26.6c0,0,0,0,0,0c12.6,5.1,26.5,10.2,38.8,15.4h0c2.3,1,4.6,1.9,6.7,2.9c0.3,0.2,0.7,0.3,1,0.4 c0.3,0.2,0.6,0.3,1,0.4c0.4,0.2,0.8,0.3,1.2,0.5c1.4,0.7,2.9,1.3,4.2,2c1.4,0.7,2.8,1.4,4.1,2.1c4.6,2.3,8.5,4.7,11.5,7 C435.1,359.7,437.4,362.9,437.3,366z" opacity=".26"/><path fill="#2651a0" d="M384.2,378c-0.1,1.2-0.3,2.4-0.6,3.6c-0.2,0.8-0.4,1.6-0.6,2.4h-53.9c0.6-0.6,1.1-1.3,1.6-1.9 c3.3-4.1,5.1-7.8,3.9-10.9c-2.6-7.1-18.3-5.7-36.8-3.8c-17.8,1.8-38.2,4-52.1-0.6c-5.3-1.8-9.7-4.5-12.6-8.7 c-2-2.8-3.2-6.3-3.8-10.1c-0.5-3.4-0.5-7.2-0.1-11.1c2.3-18.9,15.9-41.4,34-49.5c12.6-5.7,29.2-5.2,31.5,0 c2.1,4.8-7.5,9.9-8,19.7c-0.1,2.6,0,14.4,27.2,30.8c38.5,23.2,61.5,13.6,68.5,27.6C384.2,369,384.7,373.3,384.2,378z" opacity=".28"/></g><polygon points="474.3 331.6 467.2 322.2 478.6 327.9 479.5 318.4 484 328 488.3 319.5 490 327.7 495.5 321.2 496 329.7 504 327.3 495.8 336.1 476.9 341.9" class="st36"/><path d="M352.1,246.7c6.8-5.1,13.7-5.9,15.1-5.8c-2.2,0.3-12.7,4-14.3,7C352.4,247.7,352.1,247.2,352.1,246.7z" class="st36"/><g id="right_leg"><g id="upper_leg"><polygon points="482 384 470.4 384 469.1 380.5 472.6 379.3 475.1 378.4 478.5 377.1 479.4 376.8" class="st40"/><polygon points="482 384 470.4 384 469.1 380.5 472.6 379.3 475.1 378.4 478.5 377.1 479.4 376.8" class="st41"/></g><g id="hip_circle"><path d="M487.7,384.2L487.7,384.2h-31.5c0.3-3.9,2-7.7,4.8-10.4c1.1-1.1,2.3-2,3.7-2.7l0.7-0.3 c0.4-0.2,0.8-0.3,1.1-0.5s0.8-0.3,1.2-0.4s0.9-0.2,1.3-0.3l0.5-0.1h0.1l0.5-0.1c0.2,0,0.5-0.1,0.8-0.1c0.8-0.1,1.6-0.1,2.4,0 C480.9,370,487.1,376.4,487.7,384.2z" class="st42"/><path d="M479,384.2l-20.6-0.2l-1.7-2.9c0.8-2.8,2.3-5.4,4.4-7.4c1-1,2.2-1.8,3.5-2.5l0.7-0.4 c0.4-0.2,0.8-0.3,1.1-0.5s0.8-0.3,1.2-0.4s0.9-0.2,1.3-0.3l0.5-0.1h0.1l0.5-0.1c0.2,0,0.5-0.1,0.8-0.1c0.8-0.1,1.6-0.1,2.4,0 c1.2,0.1,2.4,0.3,3.6,0.7c0.9,2.3,1.5,4.6,1.8,7C478.8,379.4,479,381.9,479,384.2z" class="st41"/><path d="M477,383.7c-2.3-4.2-6.7-6.7-11.5-6.5c-0.3,0-0.3,0.4,0,0.4c4.6-0.2,8.9,2.2,11.1,6.3 C476.8,384.1,477.1,383.9,477,383.7L477,383.7z" class="st43"/></g></g><g id="hips"><path d="M477.4,384.2H386c0,0,0-0.3,0-0.3c0,0,0-0.1,0-0.1l0.1-0.2c0.1-0.3,0.2-0.6,0.3-0.9 c0.6-1.5,1.2-2.9,1.9-4.3c0.6-1.1,1.1-2,1.5-2.6s0.8-1.1,0.8-1.2l0,0l0.6-0.2c1.5-0.5,5.8-1.8,11.9-3.2c4.4-1,9.7-2.1,15.6-2.9 c0.7-0.1,1.3-0.2,2-0.3c2.5-0.3,5.2-0.6,7.9-0.8c2.9-0.2,5.7-0.4,8.4-0.5l1.8-0.1c9.8-0.3,19.5,0.1,29.2,1.3c0,0,0.5,0.5,1.3,1.5 c0.4,0.5,0.8,1,1.3,1.7c1.7,2.2,3.1,4.6,4.3,7.1C476,380.2,476.7,382.3,477.4,384.2z" class="st44"/><path d="M468.2,368c-7.3,7.2-21.9,15.6-39.7,15.4c-16.4-0.2-31.3-3.5-37.7-8.8C411.7,367.2,446.2,363.9,468.2,368z" class="st45"/><path d="M440.9,383.9c-3.3-6.4-8.5-12.5-15.6-14.8c-2.1-0.7-4.3-1-6.5-1c-0.1,0-0.2,0.1-0.2,0.3 c0,0.1,0.1,0.1,0.2,0.2c3.7,0,7.4,1,10.6,2.9c3.2,2,5.9,4.5,8,7.6c1.2,1.6,2.2,3.3,3.1,5C440.7,384.3,441,384.1,440.9,383.9 L440.9,383.9z" class="st46"/><path d="M389.7,376.1l30.7-3l30.6-2.9l17.3-1.7c0.3,0,0.3-0.4,0-0.4l-30.7,3L407,374l-17.3,1.7 C389.5,375.7,389.5,376.1,389.7,376.1L389.7,376.1z" class="st46"/><path d="M399.5,384.2h-14V384c0,0,0-0.1,0-0.2c0.1-0.5,0.2-0.9,0.4-1.3c0.4-1.4,1-2.9,1.7-4.2 c0.7-1.5,1.8-2.7,3.2-3.6l0,0c0.7,0.2,1.4,0.5,2.1,0.9l0,0c0.9,0.5,1.7,1.2,2.5,1.9l0,0C397.2,379.4,398.7,381.8,399.5,384.2z" class="st46"/></g><g id="left_leg"><g id="upper_leg-2"><path d="M389.7,384h-4.6h0.2h0.2h0.2h0.4l1-0.1l0,0l1.1-0.1l1.2-0.1h0.3l0,0L389.7,384z" class="st40"/><path d="M389.7,384h-4.6h0.2h0.2h0.2h0.4l1-0.1l0,0l1.1-0.1l1.2-0.1h0.3l0,0L389.7,384z" class="st41"/></g><g id="hip_circle-2"><path d="M397.1,384.2h-24.8c2.5-3.1,6-5.4,10-6l0.4-0.1c0.3,0,0.5-0.1,0.8-0.1s0.4,0,0.6,0c1.1,0,2.3,0,3.4,0.2 l0.8,0.2C391.9,379.3,394.9,381.4,397.1,384.2z" class="st42"/><path d="M397.1,384.2h-8.4l-0.5-0.5h-0.1c-0.1-0.1-0.2-0.1-0.2-0.1l-0.3-0.2l0,0c-0.3-0.2-0.7-0.4-1-0.6 c-0.2-0.1-0.4-0.2-0.6-0.3c-0.8-0.3-1.5-0.6-2.3-0.8c-2.4-0.7-5-1-7.5-1c1.9-1.3,4-2.1,6.2-2.5l0.4-0.1c0.3,0,0.5-0.1,0.8-0.1 s0.4,0,0.6,0c1.1,0,2.3,0,3.4,0.2l0.8,0.2C391.9,379.3,394.9,381.4,397.1,384.2z" class="st41"/><path d="M395.6,384.2h-1.8c-1.4-0.3-2.8-0.5-4.2-0.5h-0.3c-0.4,0-0.8,0-1.2,0.1s-0.7,0.1-1,0.2l0,0 c-0.3,0.1-0.6,0.1-0.8,0.2h-0.9l0,0c0-0.1,0.1-0.1,0.1-0.2h0.1l0.6-0.2c0.5-0.1,0.9-0.2,1.4-0.3l0,0 C390.3,383.2,393,383.4,395.6,384.2z" class="st43"/></g></g><g id="right_arm"><g id="shoulder_circle"><ellipse cx="482.6" cy="249.1" class="st42" rx="16.1" ry="15.8" transform="matrix(0.8873 -0.4611 0.4611 0.8873 -60.5136 250.5935)"/><path d="M479.4,246c3.2-2.1,7.2-2.4,10.7-0.7c3.2,1.7,5.2,4.9,5.4,8.5c0,0.3,0.4,0.3,0.4,0 c-0.2-3.7-2.3-7.1-5.6-8.9c-3.5-1.8-7.8-1.5-11.1,0.7C479,245.8,479.2,246.1,479.4,246z" class="st43"/></g><g id="arm"><path d="M490.5,271c0,0,24.8,38.1,33.1,47.9s27.2,27.8,27.2,27.8l20.8-25.5c0,0-20.1-30.5-31.4-41.9 s-34.8-32.3-34.8-32.3s-10.8-4.2-16.9,8.8C484,265.5,490.5,271,490.5,271z" class="st44"/><path d="M571.7,321.1c0,0-13.4-20.3-24.4-34c-4.9,1.5-23.7,11.6-23.7,11.6c-6.9-5.8-19.5-35-30-49.6 c-2.1,1.8-3.8,4-4.9,6.6c-4.7,9.8,1.8,15.3,1.8,15.3s24.8,38.1,33.1,47.9s27.2,27.8,27.2,27.8L571.7,321.1z" class="st45"/><path d="M510,267.1c0,0,6.8-4.5,11-6.1l-5.4-5c-3.6,1.7-6.9,4.1-9.6,7L510,267.1z" class="st42"/><path d="M550.8,346.7c1.6,1.3,7.8-3.8,13.5-10.6s9-13.4,7.4-14.6s-7.4,3.2-13.1,10.1S549.2,345.4,550.8,346.7z" class="st46"/><path d="M499.9,250.7c2.8,6,5.8,12,9,17.8c3.1,5.5,6.4,10.9,10,16.1c3.5,5.1,7.3,10.1,11.4,14.8 c4.1,4.8,8.5,9.4,13.2,13.8c4.8,4.6,10,8.9,15.2,12.9l2.1,1.6c0.2,0.2,0.4-0.2,0.2-0.4c-10.5-7.8-20.3-16.7-29-26.5 c-8.3-9.5-15.5-19.7-21.7-30.6c-3.7-6.4-7-13-10.1-19.7C500.1,250.3,499.7,250.5,499.9,250.7L499.9,250.7z" class="st46"/></g><g id="elbow_circle"><ellipse cx="568.8" cy="343.9" class="st42" rx="13.6" ry="13.4" transform="matrix(0.3545 -0.9351 0.9351 0.3545 45.6475 753.8585)"/><path d="M558.7,335.3c-4.9,5.5-4.3,14,1.2,18.8c5.5,4.9,14,4.3,18.8-1.2c0.7-0.8,1.3-1.7,1.8-2.6 c-7.9,0-18.9-0.9-21.3-5.7C557.8,341.7,557.6,338.3,558.7,335.3z" class="st41"/><path d="M553.5,346.1c2.3-1.8,5.9-1.5,8.5-1c3.7,0.6,7.2,2.3,9.9,5c1.5,1.6,2.5,3.6,2.9,5.8c0,0.3,0.5,0.1,0.4-0.1 c-1.4-7.8-10.4-12-17.7-11.4c-1.5,0-3,0.5-4.3,1.3C553.1,345.9,553.3,346.2,553.5,346.1L553.5,346.1z" class="st43"/></g><g id="forearm"><ellipse cx="629" cy="250.9" class="st42" rx="12.7" ry="12.9" transform="matrix(0.6021 -0.7984 0.7984 0.6021 49.9072 602.0375)"/><path d="M616.4,248.2c-0.3,1.7-0.3,3.4,0,5.1l6.2,8.6c5.3,3.2,12.2,2.1,16.2-2.7c-2.2-3.2-5.3-6.8-9.3-9 C625.5,248,620.9,247.3,616.4,248.2z" class="st41"/><path d="M626.9,254.7c0.4-2.9,2.1-5.4,4.5-6.9c2.7-1.7,6.1-2,9-0.6c0.2,0.1,0.5-0.2,0.2-0.4 c-3-1.4-6.4-1.2-9.2,0.6c-2.6,1.6-4.4,4.2-4.9,7.2C626.5,254.9,626.9,255,626.9,254.7L626.9,254.7z" class="st43"/><g id="forearm-2"><path d="M592.2,350.2c0,0-7.3,2.1-20-6.3s-16.8-17-16.8-17s14.4-26.2,28.1-42s30.6-34.6,30.6-34.6s5.2-2.5,12,2.6 c8.3,6.2,8,13.7,8,13.7s-13,30.6-19.4,43.8S592.2,350.2,592.2,350.2z" class="st44"/><path d="M583.6,284.8c-13.7,15.9-28.1,42-28.1,42s4.1,8.6,16.8,17c0.9,0.6,1.7,1.1,2.5,1.5 c5.8-13.9,12.6-27.4,20.3-40.4c11.2-18.5,27.6-43.9,32.2-51.2c-0.4-0.4-0.8-0.7-1.2-1.1c-6.8-5.1-12-2.6-12-2.6 S597.3,268.9,583.6,284.8z" class="st45"/><path d="M584.6,349.7c7.1-11.2,13.9-22.7,20.2-34.5c6.3-11.7,12.2-23.7,17.7-35.8c3.1-6.8,6-13.6,8.8-20.6 c0.1-0.2-0.3-0.4-0.4-0.1c-5,12.4-10.5,24.6-16.4,36.6c-5.8,11.9-12.1,23.6-18.8,35.1c-3.7,6.4-7.6,12.8-11.6,19 C584.1,349.6,584.4,349.8,584.6,349.7L584.6,349.7z" class="st46"/></g></g></g><g id="torso"><polygon points="440.3 384 422.1 384 422 383.2 421.8 379.9 421.2 372.9 420.9 368.4 420.9 368.1 420.9 367.9 419.8 354 419.5 349.5 418.9 341 418.6 337.9 418.6 337.6 418.6 337.1 418.5 336.6 418.4 334.4 418.2 332.3 417.9 328.5 424 328 425.2 327.9 427.4 327.8 429.5 327.6 432.4 327.4 436 327.1 436.5 333.1 436.9 338 437.1 340.8 437.3 344.4 437.3 344.4 437.4 345.8 437.8 351 437.8 351 437.9 352.6 439 366.4 439 366.8 439.3 371.1 440.2 382.4 440.2 383 440.2 383" class="st40"/><path d="M440.3,384.2h-18.2l-0.1-0.8l-0.2-3.3l-0.5-7l-0.3-4.4v-0.4v-0.2l-1-13.9l-0.3-4.4l-0.6-8.5l-0.2-3.2v-0.2 v-0.6l0.8-1.1l0,0l1-1.3l2.5-3.4l0,0l2.4-3.3l2.1-0.2l2.1-0.1l3-0.2l3.6-0.3l0.4,6l0.4,4.9l0.2,2.8l0.3,3.6l0,0l0.1,1.4l0.4,5.1 l0.1,1.6l1,13.8v0.4l0.3,4.4l0.8,11.2l0,0.6l0,0L440.3,384.2z" class="st41"/><g id="torso-2"><path d="M482.2,234.9c-22.2-3.7-44.7-4.7-67.2-3.1c-32.2,2.3-62.8,13.8-62.8,13.8s-8.5,2.2-7.8,14.9 s9,77.5,45.6,93.5c2.3,1.1,4.9,1.4,7.4,0.9c8.7-2.5,15.2-17.4,27.6-19.4c8.8-1.4,21.1,8,21.1,8s8.3,5.7,13.1,4.9 c22.6-3.9,34.7-66.2,35.2-84.8C495.1,236.7,482.2,234.9,482.2,234.9z" class="st44"/><path d="M467.1,321.6c-14,1.9-16-7-27-6.4s-22.2,13.3-55,13.3c-7.5,0-27.8-29.8-34.5-31.6 c12.3,38.5,27.1,51.7,39.5,57.1c2.3,1.1,4.9,1.4,7.4,0.9c8.7-2.5,15.2-17.4,27.6-19.4c8.8-1.4,21.1,8,21.1,8s8.3,5.7,13.1,4.9 c10.5-1.8,18.8-16.3,24.6-33.2C478.7,318.2,472.7,320.8,467.1,321.6z" class="st45"/><path d="M482.2,234.9c-22.2-3.7-44.7-4.7-67.2-3.1c-32.2,2.3-62.8,13.8-62.8,13.8c-2.3,0.8-4.2,2.3-5.5,4.4 c7-0.6,39.8-3.4,70.7-4.3c35.6-1.1,66.8,6.9,76.6,9.7C492.2,236.4,482.2,234.9,482.2,234.9z" class="st45"/><path d="M420.7,228.5c4.5,7,8.9,14,12.7,21.4c3.2,6.1,5.9,12.5,8.1,19.1c1.9,6,3,12.1,3.5,18.4 c0.4,6.5,0.1,12.9-0.9,19.3c-1.2,7.4-2.9,14.8-5.1,22c-0.3,1-0.6,2-0.9,2.9c-0.1,0.2,0.3,0.4,0.4,0.1c2.4-7.4,4.2-14.9,5.6-22.6 c1.1-6.4,1.6-13,1.4-19.5c-0.3-6.2-1.2-12.4-2.9-18.4c-1.9-6.5-4.4-12.9-7.5-18.9c-3.7-7.3-7.7-14.3-12.2-21.2l-1.9-2.9 C420.9,228.1,420.5,228.3,420.7,228.5L420.7,228.5z" class="st46"/><path d="M492.5,279.7c-2.4,1.1-5,2-7.6,2.8c-2.8,0.8-5.7,1.4-8.7,1.8c-2.9,0.2-5.8,0.1-8.7-0.2 c-2.7-0.2-5.4-0.6-8.1-0.8c-5.1-0.6-10.3-0.6-15.4,0.1c-4.4,0.6-8.7,1.5-13,2.6c-9.6,2.3-19.2,4.9-28.8,6.9 c-3.4,0.8-6.9,1.3-10.5,1.4c-4.4,0.1-8.8-0.1-13.1-0.5c-5-0.4-10-1-14.9-1.9c-4.2-0.6-8.3-1.6-12.3-2.9 c-0.7-0.2-1.4-0.5-2.1-0.8c-0.2-0.1-0.5,0.2-0.2,0.4c3.5,1.5,7.2,2.5,10.9,3.1c4.9,1,9.8,1.7,14.7,2.2c8,0.9,16.3,1.5,24.3,0.1 c9.7-1.7,19.2-4.4,28.8-6.7c3.9-1,7.9-2,11.9-2.7c5.5-1.1,11.1-1.4,16.7-1.1c5.6,0.4,11.2,1.4,16.9,1.5c2.7,0,5.4-0.4,8.1-1 c2.8-0.6,5.6-1.4,8.3-2.4c1.1-0.4,2.1-0.8,3.2-1.3C492.8,280,492.6,279.6,492.5,279.7L492.5,279.7z" class="st46"/><path d="M489.5,241c-9.3-3.8-19.2-6.3-29.2-7.3c-10.2-1.1-20.5-1.3-30.8-0.7c-10.1,0.5-20.2,1.5-30.3,2.8 c-9.6,1.1-19.1,3-28.4,5.6c-9.2,2.5-17.9,6.3-26,11.3c-1,0.6-2,1.3-3,2c-0.2,0.1,0,0.5,0.2,0.4c7.9-5.4,16.5-9.5,25.6-12.3 c9.2-2.8,18.6-4.9,28.2-6.1c9.9-1.4,19.9-2.4,29.9-3c10.2-0.7,20.4-0.7,30.6,0.1c10.1,0.8,20,2.9,29.5,6.3 c1.2,0.4,2.4,0.9,3.5,1.4C489.6,241.5,489.7,241.1,489.5,241L489.5,241z" class="st46"/><path d="M352.8,302.9c0,0,13.5-9.9,9.2-31.1S345.4,250,345.4,250c-1.6,7.6-1.6,15.4,0,22.9 C348,284.8,352.8,302.9,352.8,302.9z" class="st46"/><polygon points="436.8 238.2 435.6 228.8 393.1 232 394.4 241.4" class="st47"/><ellipse cx="415.6" cy="239.8" class="st47" rx="21.3" ry="4" transform="matrix(0.9972 -7.428255e-02 7.428255e-02 0.9972 -16.6673 31.535)"/><ellipse cx="414.4" cy="230.4" class="st44" rx="21.3" ry="4" transform="matrix(0.9972 -7.428255e-02 7.428255e-02 0.9972 -15.9709 31.4171)"/><path d="M420.7,207.1l2.5,19.9c0,0-3.1,2.6-9.4,3.4c-6.2,0.7-9.8-1.8-9.8-1.8l-1.7-23.1L420.7,207.1z" class="st40"/><path d="M420.7,207.1l-18.5-1.6l1,13.3c2.9,2.5,6.6,4.1,10.5,4.4c3,0.3,6,0.2,9-0.3L420.7,207.1z" class="st41"/></g></g><rect width="101.8" height="110.5" x="473.8" y="220.7" fill="#df6542" transform="matrix(0.9207 -0.3903 0.3903 0.9207 -66.1036 226.696)"/><polygon fill="#eed6ca" points="539.3 332.4 553.4 326.5 509.8 222.3 495.6 228.2"/><polygon fill="#e58b69" points="636.2 291.8 593.4 309.8 550.1 205.3 593.4 189.8"/><path fill="#d9d7eb" d="M545.7,308.1c0,0-2.8,15.7-10.8,21.2s-23.6,10.8-23.6,10.8l-11.6,7.5L487.3,318l49.7-17L545.7,308.1z" enable-background="new" opacity=".3"/><g id="left_arm"><g id="shoulder"><circle cx="341.8" cy="268.7" r="15.8" class="st42"/><path d="M337.3,253.6c4.3,2.9,9.2,7.1,11.4,12.5c1.7,4.3,2.4,9.9,2.6,15.2c7-5.2,8.4-15,3.2-22 C350.5,253.9,343.6,251.6,337.3,253.6L337.3,253.6z" class="st41"/><path d="M356.9,263.6c-1.4-1.3-3.1-2.1-5-2.4c-2.3-0.4-4.7-0.4-7.1,0.1c-4.8,1-9.6,3.9-11,8.8 c-1.1,3.8-0.6,8.3,2.2,11.3c0.2,0.2,0.5-0.1,0.3-0.3c-2.5-2.7-3-6.8-2.2-10.3c0.6-2.4,1.9-4.5,3.8-6c3.8-2.8,8.5-4,13.1-3.4 c2.1,0.1,4,1,5.6,2.4C356.8,264.1,357.1,263.8,356.9,263.6L356.9,263.6z" class="st43"/></g><g id="arm-2"><path d="M355.6,269c0,0,31.9,32.4,39.7,42.5s21.4,32.5,21.4,32.5l-29.1,14.5c0,0-25.5-26.1-34.2-39.6 s-24.2-40.7-24.2-40.7s-1.9-11.3,12-14.4C351.6,261.5,355.6,269,355.6,269z" class="st44"/><path d="M416.7,344c0,0-13.6-22.3-21.4-32.5S355.6,269,355.6,269s-4-7.5-14.5-5.2c-1.7,0.4-3.3,0.9-4.9,1.7 c0.3,0.4,0.6,0.8,0.9,1.2c11.7,13.5,44.4,39.9,48.8,48.1c7.1,13.3,8,28.8,7.2,40.9L416.7,344z" class="st45"/><path d="M335.9,289.9c0.5-0.3,2.5-4.4,8.7-7.8l3.2,4.8c0,0-6.7,6.2-8,9.6L335.9,289.9z" class="st42"/><path d="M416.7,344c0.9,1.8-5.3,6.7-13.1,10.7s-14.9,5.7-15.8,3.9s4.7-6.5,12.5-10.4S415.8,342.2,416.7,344z" class="st46"/><path d="M343.2,264.1c21.5,16.6,40.1,36.7,55,59.5c4.2,6.4,8.1,13,11.6,19.7c0.1,0.2,0.5,0,0.4-0.2 c-12.8-24.2-29.5-46-49.5-64.6c-5.5-5.2-11.3-10.1-17.3-14.7C343.2,263.6,343,263.9,343.2,264.1L343.2,264.1z" class="st46"/></g><g id="elbow_circle-2"><circle cx="407.9" cy="361.1" r="13.4" class="st42"/><path d="M397.6,352.5c-1,1.2-1.7,2.5-2.2,3.9c2.1-2.4,5.1-3.8,8.3-3.9c5.4-0.2,11.5,8.9,15.4,15.7 c4-6.2,2.1-14.4-4.1-18.4C409.4,346.2,401.9,347.3,397.6,352.5z" class="st41"/><path d="M401.8,346.7c-0.6,5.6,3.5,10.6,9.1,11.2c0.1,0,0.3,0,0.4,0c0.1,0,0.2-0.1,0.2-0.3c0-0.1-0.1-0.1-0.2-0.2 c-5.4-0.3-9.5-5-9.2-10.4c0-0.1,0-0.2,0-0.3C402.2,346.6,401.8,346.4,401.8,346.7L401.8,346.7z" class="st43"/></g><g id="hand"><ellipse cx="517.5" cy="331.6" class="st42" rx="12.7" ry="12.5" transform="matrix(0.5891 -0.8081 0.8081 0.5891 -55.3051 554.4557)"/><path d="M518.7,344.1c0.7-3.7,1-8.4-0.3-12.6c-1.3-4.2-4.1-7.8-7.8-10.2c-1.4,1-2.6,2.2-3.5,3.6l-1.6,10.2 C507,341,512.7,344.8,518.7,344.1z" class="st41"/><path d="M513.5,332.9c3.9-3,9.4-2.6,12.9,0.8c0.1,0.1,0.2,0,0.3-0.1c0-0.1,0-0.2,0-0.2c-3.7-3.6-9.4-3.9-13.4-0.8 C513,332.8,513.2,333.1,513.5,332.9L513.5,332.9z" class="st43"/><path d="M526.2,334.1c0,0,11.9,1.2,21.5-3.4s18.4-13.1,18.4-13.1l6.8,15.1c0,0-13.6,8.6-22.2,11.3 s-25.1-2.6-25.1-2.6L526.2,334.1z" class="st44"/><path d="M548.2,340.1c6.4-2.4,17.3-9,22.4-12.2l-4.6-10.2c0,0-8.9,8.5-18.4,13.1s-21.5,3.4-21.5,3.4l-0.5,5.6 C529.4,340.4,541.9,342.5,548.2,340.1z" class="st45"/><path d="M525.3,331.7c0,0,12.8-1.3,22.3-7.8s17.7-16.9,17.7-16.9l9.3,13.6c0,0-13.2,11.4-22,15.8 s-26.4,3.6-26.4,3.6L525.3,331.7z" class="st44"/><path d="M549.5,333c6.4-3.7,17.1-12.5,22.1-16.8l-6.3-9.2c0,0-8.2,10.3-17.7,16.8s-22.3,7.8-22.3,7.8l0.6,5.6 C530.3,337.2,543.4,336.6,549.5,333z" class="st45"/><path d="M524.2,326.1c0,0,11.1-2.2,18.6-9.3s13.4-17.9,13.4-17.9l9.9,12.7c0,0-10.2,12.2-17.3,17.2 s-22.7,5.5-22.7,5.5L524.2,326.1z" class="st44"/><path d="M562.6,307.2l-6.4-8.2c0,0-5.9,10.7-13.4,17.9s-18.6,9.3-18.6,9.3l1.2,5.3c4.1-0.5,15-2.1,19.8-5.9 C550.4,321.4,558.8,311.7,562.6,307.2z" class="st45"/><path d="M521.1,325.3c0,0,4.6-8.6,12-12.2s16.9-4.6,16.9-4.6l-6.7-13.1c0,0-11.8,4-17.5,8.1s-10.2,17.2-10.2,17.2 L521.1,325.3z" class="st44"/><path d="M549.9,308.5l-4.7-9.2c-4.3,1.5-13.9,5-18.4,7.9c-4.2,2.7-8.4,11.5-9.8,14.7l3.8,3.2l0.6-0.3 c1.1-1.9,5.4-8.6,11.6-11.6C540.3,309.5,549.9,308.5,549.9,308.5z" class="st45"/></g><g id="forearm-3"><path d="M421.8,378c0,0-6.6-3.4-9.7-17.9s0-23.4,0-23.4s28.3-9,48.9-11.1s45.5-4.2,45.5-4.2s5.4,1.6,6.6,9.9 c1.5,10-3.8,15.1-3.8,15.1s-30.4,13.1-44,18.2S421.8,378,421.8,378z" class="st44"/><path d="M446,365.7c-17.6-0.2-29-4.9-34.3-7.7c0.1,0.7,0.3,1.4,0.4,2.2c3.1,14.5,9.7,17.9,9.7,17.9 s30-8.3,43.6-13.4s43.9-18.2,43.9-18.2c0.8-0.9,1.5-1.8,2-2.9C510.5,343.9,465.1,365.8,446,365.7z" class="st45"/><path d="M414.7,366.3c12.4-4.7,24.9-9.1,37.6-13s25.4-7.5,38.1-10.7c7.2-1.8,14.5-3.4,21.7-5 c0.3-0.1,0.2-0.5-0.1-0.4c-13,2.8-25.9,5.9-38.7,9.4s-25.4,7.4-37.8,11.7c-7,2.4-14,4.9-21,7.6 C414.4,366,414.5,366.4,414.7,366.3L414.7,366.3z" class="st46"/></g></g><g id="head"><polygon fill="none" points="451.7 153.8 468.5 157.7 466.5 174.8 444.9 182.6"/><polygon points="451.7 153.8 468.5 157.7 466.5 174.8 444.9 182.6" class="st40"/><path d="M448.6,166.9l-3.7,15.7l21.5-7.8l1-8.2C462,166.7,451.4,166.9,448.6,166.9z" class="st41"/><g id="head-2"><path d="M426.2,109.2c0,0-37.8-5.6-47.1,26.3c-10,34.1,12.2,47.1,13,49.5c3.6,11.3,5.6,20.1,5.6,20.1 s22,12.7,39.7,11.7c6.9-0.4,14.8-20.5,14.8-20.5s9.9-29.4,9.7-44.6C461.6,131.1,452.4,112.7,426.2,109.2L426.2,109.2z" class="st44"/><path d="M456,127.6c-2.8,13.9-11.3,51.1-25.3,57.6c-9.5,4.4-25.2,4.9-37.3,4.5c2.7,8.9,4.2,15.4,4.2,15.4 s22,12.7,39.7,11.7c6.9-0.4,14.8-20.5,14.8-20.5s9.9-29.4,9.7-44.6C461.7,142.9,460,134.6,456,127.6z" class="st45"/><path d="M456.8,129.8c-3.2,1.9-5,5.5-5.4,9.1c-0.6,4.7,1.1,9.4,2.6,13.8c0.1,0.2,0.5,0.1,0.4-0.1 c-1.5-4.2-3-8.6-2.7-13.1c0.3-3.7,2-7.4,5.3-9.3C457.3,130,457,129.7,456.8,129.8z" class="st46"/><path d="M391.2,126.4c3.5,0.3,5.8,3.7,6.1,6.9c0.4,4.1-1.5,8-3,11.7c-0.9,2-1.5,4-1.8,6.2c0,0.3,0.4,0.3,0.4,0 c0.6-4.4,3-8.2,4.2-12.4c1-3.5,1.1-7.4-1.4-10.4c-1.1-1.4-2.7-2.3-4.5-2.4C390.9,126,390.9,126.4,391.2,126.4L391.2,126.4z" class="st46"/><path d="M444.8,115.5c1.1,6,1,12.2-0.2,18.2c-0.3,1.4-0.6,2.7-1.1,4c-0.3,1.3-1.2,2.4-2.5,2.9 c-1.4,0.3-2.9,0.2-4.3-0.1c-1.5-0.2-3.1-0.4-4.6-0.5c-6.2-0.6-12.5-0.8-18.7-0.6c-1.4,0-2.9,0.2-4.3,0.1 c-1.5,0.1-2.9-0.4-4.1-1.3c-2.2-2-2.1-5.3-1.9-8c0.2-3,0.8-5.9,1.7-8.7c0.9-2.9,2.1-5.7,3.4-8.3c0.1-0.2-0.2-0.4-0.4-0.2 c-2.5,4.9-4.2,10.2-5,15.7c-0.3,2.8-0.8,6,0.7,8.6c0.6,1,1.4,1.8,2.5,2.2c1.3,0.4,2.7,0.6,4.1,0.5c6.6-0.3,13.3-0.2,19.9,0.3 c1.7,0.1,3.4,0.3,5.1,0.5c1.5,0.3,3,0.4,4.6,0.5c1.2,0,2.3-0.5,3.1-1.4c0.7-1,1.2-2.1,1.4-3.3c1.9-6.9,2.3-14.1,0.9-21.2 C445.1,115.1,444.7,115.2,444.8,115.5L444.8,115.5z" class="st46"/><path d="M423.7,139.6l-1,11.2c0,0.3,0.4,0.3,0.4,0l1.1-11.2C424.1,139.4,423.7,139.4,423.7,139.6z" class="st46"/></g><path d="M389.4,149.4l-16,1.6l-0.5,17.2l18.9,10.6c0.9-1.2,6.1-8.3,4.3-17.7C395.2,156.7,392.8,152.6,389.4,149.4z" class="st40"/><path d="M396.3,163.2c-5.5-0.8-17.3-2.4-17.3-2.4l-6,7.5l18.9,10.6C395.1,174.4,396.7,168.8,396.3,163.2z" class="st41"/><path d="M373.5,151.2l-0.5,17.2c0,0,6-4.3,6.1-8.7S373.5,151.2,373.5,151.2z" class="st53"/><path d="M438.7,152.8c-11-0.6-22.4-7.6-28.6-5c-11.8,5-6.6,37.8-5.7,41.9s20.1,20.1,32.5,21 c10.8,0.8,13.6-14.7,15.2-17.7s10.8-37.3,8-40.9C456.4,147.1,449.7,153.4,438.7,152.8z" class="st53"/><path d="M460.1,152.1c-3.8-5-10.5,1.3-21.4,0.7s-22.4-7.6-28.6-5c-4,1.7-6,6.6-7,12.4c8.6-0.4,25.3-0.5,36.8,3.3 c10.1,3.4,15,8.4,17.2,11.6C459.6,165,461.6,154.1,460.1,152.1z" class="st40"/><path d="M426.3,193.9c2.1,4.9,7.8,7.1,12.6,5c1.6-0.7,2.9-1.8,3.9-3.1c0.3-0.4-0.1-0.9-0.5-0.9l-13.5-1.6l-1.9-0.2 c-0.8-0.1-0.8,1.1,0,1.2l13.5,1.6l1.9,0.2l-0.5-0.9c-1.9,2.4-4.9,3.6-7.9,3.2c-2.9-0.5-5.4-2.4-6.5-5.1 C427.1,192.5,426,193.1,426.3,193.9z" class="st54"/><path d="M450.9,168.6l0.3,0c0.5,0,0.9,0.4,0.8,0.9l-0.4,7.9c0,0.5-0.4,0.9-0.9,0.8l-0.3,0c-0.5,0-0.9-0.4-0.8-0.9 l0.4-7.9C450,168.9,450.4,168.5,450.9,168.6z" class="st54"/><path d="M426.2,167.3l0.3,0c0.5,0,0.9,0.4,0.8,0.9l-0.4,7.9c0,0.5-0.4,0.9-0.9,0.8l-0.3,0c-0.5,0-0.9-0.4-0.8-0.9 l0.4-7.9C425.3,167.7,425.7,167.3,426.2,167.3z" class="st54"/></g><path d="M625.4,240.2c0,0-3.4-10.1-10.6-16.1S597.4,214,597.4,214l9.7-11.1c0,0,12,7.9,17.3,13.8s7.1,21.2,7.1,21.2 L625.4,240.2z" class="st44"/><path d="M622.1,220.1c-4.3-4.3-13.7-10.7-18.2-13.7l-6.6,7.5c0,0,10.2,4.1,17.4,10.1s10.6,16.1,10.6,16.1l4.7-1.7 C629.3,235.3,626.3,224.4,622.1,220.1z" class="st45"/><path d="M623.7,241.8c0,0-5.8-9.9-14.5-15.2s-20.2-8.1-20.2-8.1l7.6-12.5c0,0,14.1,6.5,20.9,12s12.6,20,12.6,20 L623.7,241.8z" class="st44"/><path d="M615.9,221.7c-5.3-3.8-16.4-9.2-21.7-11.7l-5.2,8.5c0,0,11.4,2.9,20.1,8.1s14.5,15.2,14.5,15.2l4.4-2.6 C626.4,235.7,621,225.4,615.9,221.7z" class="st45"/><path d="M619.6,244.7c0,0-5.9-8.2-14.4-11.6s-19.4-4.3-19.4-4.3l6.6-12.7c0,0,13.7,3.8,20.3,7.7s12.8,16.4,12.8,16.4 L619.6,244.7z" class="st44"/><path d="M590.1,220.6l-4.3,8.2c0,0,10.9,0.8,19.4,4.3s14.4,11.6,14.4,11.6l3.8-2.9c-1.9-3.2-7.2-11.4-12.1-13.9 C606.1,225.3,595.2,222.1,590.1,220.6z" class="st45"/><path fill="#d3eaec" d="M430,196.7c-11.4-2.4-8.2,5.9-16.3,3.2c-2.3-0.8-6.6-8-10.3-15c0.4,3.1,0.8,5.4,1,6.4 c0.9,4.1,20.1,20.1,32.5,21c1.6,0.1,3.2-0.2,4.7-0.8C438.4,204.5,434.3,197.6,430,196.7z" enable-background="new" opacity=".18"/></g></g></svg>