<svg xmlns="http://www.w3.org/2000/svg" viewBox="0 0 408.04 312.77"><defs><style>.cls-5{fill:#629fe2}.cls-2{fill:#4b6085}.cls-3{fill:#85aedf}.cls-4{fill:#0b4aaf}.cls-6{fill:#2a7cdd}.cls-7{fill:#2470db}.cls-8{fill:#fff}.cls-9{fill:#ff4f48}.cls-10{fill:#e53232}.cls-18{fill:none;stroke-linecap:round}.cls-14{fill:#1760d8}.cls-15{fill:#6deeff}.cls-18{stroke-linejoin:round;stroke-width:.75px;stroke:#ff4f48}</style></defs><g id="Layer_2" data-name="Layer 2"><g id="Layer_3" data-name="Layer 3"><path class="cls-2" d="M27.37 225.37l127-5.8c3-.14 5.42-2.95 5.42-6.27v-95c0-3.33-2.42-6.14-5.42-6.27l-127-5.8a6.37 6.37 0 00-6.71 6.43v106.28a6.38 6.38 0 006.71 6.43z"/><path class="cls-3" d="M27.37 225.37l127-5.8c3-.14 5.42-2.95 5.42-6.27v-95c0-3.33-2.42-6.14-5.42-6.27l-127-5.8a6.37 6.37 0 00-6.71 6.43v106.28a6.38 6.38 0 006.71 6.43z"/><path class="cls-4" d="M27.37 225.37l127-5.8c3-.14 5.42-2.95 5.42-6.27v-95c0-3.33-2.42-6.14-5.42-6.27l-127-5.8a6.37 6.37 0 00-6.71 6.43v106.28a6.38 6.38 0 006.71 6.43z"/><path class="cls-5" d="M30.27 225.37l127-5.8c3-.14 5.42-2.95 5.42-6.27v-95c0-3.33-2.42-6.14-5.42-6.27l-127-5.8a6.37 6.37 0 00-6.71 6.43v106.28a6.38 6.38 0 006.71 6.43z"/><path class="cls-6" d="M31.76 216.05a4.91 4.91 0 01-1.52-3.57v-84.19a3.94 3.94 0 011.21-2.86 4 4 0 012.89-1.14l118.75 3.44a4 4 0 013.89 4v77.44a4 4 0 01-3.85 4l-117.74 4.27h-.19a4.92 4.92 0 01-3.44-1.39z"/><path class="cls-7" d="M23.4 118.62v-5.89a6.38 6.38 0 016.72-6.43l127 5.77c3 .13 5.42 2.94 5.42 6.26v5.27z"/><path class="cls-8" d="M40 113.54a2.14 2.14 0 002 2.13 1.94 1.94 0 002-2 2.14 2.14 0 00-2-2.13 2 2 0 00-2 2z"/><path class="cls-4" d="M34.42 113.31a2.15 2.15 0 002 2.14 2 2 0 002-2 2.15 2.15 0 00-2-2.14 2 2 0 00-2 2z"/><path class="cls-9" d="M28.77 113.08a2.16 2.16 0 002.06 2.15 2 2 0 002.05-2 2.17 2.17 0 00-2.05-2.15 2 2 0 00-2.06 2z"/><path class="cls-8" d="M61.4 116.25l69.17 2.7a2 2 0 002-2.07 2.18 2.18 0 00-2-2.23l-69.17-2.94a2.14 2.14 0 00-2.21 2.18 2.34 2.34 0 002.21 2.36z"/><path class="cls-9" d="M106.29 160.11l-7.36 2-.55-2a.89.89 0 01.61-1.09l5.66-1.54a.9.9 0 011.1.61z"/><path class="cls-10" d="M105.46 160.34l-3.12.87-.55-2a.59.59 0 01.39-.68l2.06-.58a.58.58 0 01.67.39z"/><path class="cls-9" d="M87.92 165.16l-7.37 2-.54-2a.9.9 0 01.61-1.1l5.66-1.54a.91.91 0 011.1.61z"/><path class="cls-10" d="M87.05 165.39l-3.12.87-.54-2a.57.57 0 01.38-.68l2.06-.57a.57.57 0 01.68.38z"/><path class="cls-9" d="M112 158.79l-50.3 13.77 5.12 18.6 18.59-5.11s31.86-28.71 26.59-27.26z"/><path class="cls-10" d="M112 158.79l-50.3 13.77 5.12 18.6 18.59-5.11s31.86-28.71 26.59-27.26z"/><path class="cls-2" d="M118.23 156.8l-42.98 11.94 5.08 18.59 43.47-12.13-5.57-18.4z"/><path class="cls-9" d="M118.23 156.8l-42.98 11.94 5.08 18.59 43.47-12.13-5.57-18.4z"/><path d="M157.16 112.07l-129.65-5.8a6.45 6.45 0 00-6.85 6.43v106.24a6.45 6.45 0 006.85 6.43l129.65-5.8a6.12 6.12 0 005.53-6.27v-95a6.1 6.1 0 00-5.53-6.23z" opacity=".33" fill="#124084"/><path class="cls-2" d="M110.13 234.83l147.19-6.72c3.47-.16 6.28-3.41 6.28-7.27v-110c0-3.86-2.81-7.11-6.28-7.27L110.13 96.8a7.39 7.39 0 00-7.78 7.46v123.12a7.38 7.38 0 007.78 7.45z"/><path class="cls-3" d="M110.13 234.83l147.19-6.72c3.47-.16 6.28-3.41 6.28-7.27v-110c0-3.86-2.81-7.11-6.28-7.27L110.13 96.8a7.39 7.39 0 00-7.78 7.46v123.12a7.38 7.38 0 007.78 7.45z"/><path class="cls-4" d="M110.13 234.83l147.19-6.72c3.47-.16 6.28-3.41 6.28-7.27v-110c0-3.86-2.81-7.11-6.28-7.27L110.13 96.8a7.39 7.39 0 00-7.78 7.46v123.12a7.38 7.38 0 007.78 7.45z"/><path class="cls-5" d="M113.48 234.83l147.19-6.72c3.48-.16 6.28-3.41 6.28-7.27v-110c0-3.86-2.8-7.11-6.28-7.27L113.48 96.8a7.39 7.39 0 00-7.78 7.46v123.12a7.39 7.39 0 007.78 7.45z"/><path class="cls-6" d="M115.21 224a5.75 5.75 0 01-1.76-4.15v-97.53a4.64 4.64 0 014.75-4.63l137.62 4a4.6 4.6 0 014.51 4.63V216a4.62 4.62 0 01-4.45 4.63l-136.46 5h-.22a5.71 5.71 0 01-3.99-1.63z"/><path class="cls-7" d="M105.53 111.12v-6.82a7.39 7.39 0 017.78-7.46l147.15 6.68c3.47.16 6.28 3.41 6.28 7.26v6.11z"/><path class="cls-8" d="M124.79 105.23a2.48 2.48 0 002.35 2.47 2.25 2.25 0 002.34-2.28 2.48 2.48 0 00-2.34-2.47 2.25 2.25 0 00-2.35 2.28z"/><path class="cls-4" d="M118.29 105a2.5 2.5 0 002.37 2.48 2.26 2.26 0 002.36-2.29 2.48 2.48 0 00-2.36-2.48 2.27 2.27 0 00-2.37 2.29z"/><path class="cls-9" d="M111.74 104.7a2.5 2.5 0 002.39 2.49 2.26 2.26 0 002.38-2.29 2.51 2.51 0 00-2.38-2.5 2.28 2.28 0 00-2.39 2.3z"/><path class="cls-8" d="M149.57 108.37l80.16 3.13a2.29 2.29 0 002.28-2.4 2.51 2.51 0 00-2.28-2.58l-80.16-3.41a2.47 2.47 0 00-2.57 2.53 2.72 2.72 0 002.57 2.73z"/><path d="M234.31 150.56C222.89 157 223.25 139 213.36 139.8c-6.25.51-10.47 5.23-16.65 16.07-7.28 12.8-11.71 31-17.17 37.67-18.11 22.33-28.07-9.89-40.22-4.58" stroke-miterlimit="10" stroke="#ff615b" fill="none" stroke-linecap="round"/><path d="M238 152.31c-16.59 15.05-10.26-23.06-26.48-22-7 .44-11.93 13.53-18.11 25.82-5.6 11-14.18 29.46-18.69 36.66-7.27 11.63-20.58 17.45-32.73 1.45" stroke="#0b4aaf" stroke-miterlimit="10" fill="none" stroke-linecap="round"/><path class="cls-4" d="M195.83 201.33l22.84-4.73 5.38-15.71-23.56 4-4.66 16.44z"/><path class="cls-14" d="M195.32 201.18l-47.71-17a1.44 1.44 0 01-.87-1.82l3.71-13.74a1.44 1.44 0 011.82-.88l47.71 17a1.43 1.43 0 01.87 1.82l-3.71 13.75a1.33 1.33 0 01-1.82.87z"/><path class="cls-5" d="M195.32 201.18l-47.71-17a1.44 1.44 0 01-.87-1.82l3.71-13.74a1.44 1.44 0 011.82-.88l47.71 17a1.43 1.43 0 01.87 1.82l-3.71 13.75a1.33 1.33 0 01-1.82.87z"/><path class="cls-14" d="M198.45 185.18l-47.27-16.73a.37.37 0 01.07-.73l23.27-4.29a4 4 0 012 .15l47.35 16.73a.37.37 0 01-.08.72l-22.62 4.3a4 4 0 01-2.72-.15z"/><path class="cls-15" d="M223.83 181.11c-6.18 1.31-12.36 2.54-18.61 3.78l-2.33.44-1.17.21c-.36.08-.8.15-1.23.22a5.94 5.94 0 01-2.48-.36l-2.18-.8-8.94-3.13-17.89-6.4-8.95-3.27-8.87-3.35 9 3.06 9 3.05 17.9 6.26 8.94 3.2 2.26.8a4.63 4.63 0 002.18.36c.72-.07 1.52-.29 2.32-.36l2.33-.44c6.21-1.09 12.47-2.25 18.72-3.27z"/><path class="cls-4" d="M201.36 183.29l22.84-4.73 5.38-15.71-23.57 4-4.65 16.44z"/><path class="cls-14" d="M200.85 183.14l-47.71-17a1.42 1.42 0 01-.87-1.81l3.73-13.77a1.42 1.42 0 011.81-.87l47.72 17a1.43 1.43 0 01.87 1.81l-3.71 13.75a1.38 1.38 0 01-1.84.89z"/><path class="cls-5" d="M200.85 183.14l-47.71-17a1.42 1.42 0 01-.87-1.81l3.73-13.77a1.42 1.42 0 011.81-.87l47.72 17a1.43 1.43 0 01.87 1.81l-3.71 13.75a1.38 1.38 0 01-1.84.89z"/><path class="cls-14" d="M204 167.14l-47.3-16.73a.37.37 0 01.08-.72l23.27-4.29a3.85 3.85 0 012 .14l47.34 16.73a.37.37 0 01-.07.73l-22.62 4.36a5.84 5.84 0 01-2.7-.22z"/><path class="cls-15" d="M229.36 163.07c-6.18 1.31-12.36 2.55-18.62 3.78l-2.32.44-1.17.22-1.23.21a5.78 5.78 0 01-2.48-.36l-2.25-.8-8.95-3.13-17.89-6.43-8.95-3.27-8.8-3.35 9 3 9 3.12 17.89 6.26 9 3.2 2.25.8a4.56 4.56 0 002.19.36c.72-.07 1.52-.29 2.32-.36l2.33-.44c6.24-1.14 12.43-2.23 18.68-3.25z"/><path stroke-linejoin="round" stroke-width=".75" stroke="#0ff" fill="none" stroke-linecap="round" d="M158.74 156.31l23.13 8.58"/><path d="M152.99 173.98l23.13 8.58m-24.22-4.8l11.42 4.22" stroke-width=".5" stroke="#ff4f48" stroke-miterlimit="10" fill="none" stroke-linecap="round"/><path class="cls-18" d="M185.29 166.12l1.67.59"/><path stroke-dasharray=".75 3.74 3.74 .75" stroke="#ff4f48" stroke-linejoin="round" stroke-width=".75" fill="none" stroke-linecap="round" d="M189.51 167.65l5.89 2.18"/><path class="cls-18" d="M195.61 169.91l1.75.65"/><path class="cls-5" d="M200.27 163.51L169 152.45a.27.27 0 01.07-.51l15.42-2.83a2.55 2.55 0 011.31.07l31.34 11a.27.27 0 01-.07.51l-15 2.84a2.65 2.65 0 01-1.8-.02z"/><path class="cls-14" d="M175.76 154.85l24.51 8.66a4 4 0 001.82.14l6.69-1.23 1.09-2.91-33.82-6z"/><path class="cls-4" d="M175.76 154.85l24.51 8.66a4 4 0 001.82.14l6.69-1.23 1.09-2.91-33.82-6z"/><path class="cls-14" d="M198.16 161.4l-22-7.79a.2.2 0 010-.36l10.76-2a2.06 2.06 0 01.95.07l22 7.78a.21.21 0 010 .37l-10.47 2a2.66 2.66 0 01-1.24-.07z"/><path d="M110.27 234.83l150.27-6.72c3.55-.16 6.41-3.41 6.41-7.27v-110c0-3.86-2.86-7.11-6.41-7.27L110.27 96.8a7.48 7.48 0 00-8 7.46v123.12a7.47 7.47 0 008 7.45z" opacity=".23" fill="#124084"/><path class="cls-2" d="M212.1 246.84L384.91 239c4.08-.19 7.37-4 7.37-8.53V101.21c0-4.52-3.29-8.34-7.37-8.53L212.1 84.79a8.67 8.67 0 00-9.1 8.75v144.55a8.67 8.67 0 009.1 8.75z"/><path class="cls-3" d="M212.1 246.84L384.91 239c4.08-.19 7.37-4 7.37-8.53V101.21c0-4.52-3.29-8.34-7.37-8.53L212.1 84.79a8.67 8.67 0 00-9.1 8.75v144.55a8.67 8.67 0 009.1 8.75z"/><path class="cls-4" d="M212.1 246.84L384.91 239c4.08-.19 7.37-4 7.37-8.53V101.21c0-4.52-3.29-8.34-7.37-8.53L212.1 84.79a8.67 8.67 0 00-9.1 8.75v144.55a8.67 8.67 0 009.1 8.75z"/><path class="cls-5" d="M216 246.84L388.85 239c4.08-.19 7.37-4 7.37-8.53V101.21c0-4.52-3.29-8.34-7.37-8.53L216 84.79a8.68 8.68 0 00-9.14 8.75v144.55a8.68 8.68 0 009.14 8.75z"/><path class="cls-6" d="M218.07 234.17a6.72 6.72 0 01-2.07-4.86V114.75a5.43 5.43 0 015.58-5.43L383.15 114a5.39 5.39 0 015.29 5.43v105.36a5.4 5.4 0 01-5.23 5.42L223 236.05h-.26a6.71 6.71 0 01-4.67-1.88z"/><path class="cls-7" d="M206.7 101.61v-8a8.67 8.67 0 019.13-8.75l172.77 7.82c4.07.19 7.37 4 7.37 8.53v7.16z"/><path class="cls-8" d="M229.32 94.69a2.91 2.91 0 002.75 2.9 2.65 2.65 0 002.75-2.68 2.91 2.91 0 00-2.75-2.9 2.64 2.64 0 00-2.75 2.68z"/><path class="cls-4" d="M221.69 94.38a2.92 2.92 0 002.78 2.91 2.65 2.65 0 002.77-2.69 2.93 2.93 0 00-2.77-2.91 2.66 2.66 0 00-2.78 2.69z"/><path class="cls-9" d="M214 94.07a3 3 0 002.8 2.93 2.68 2.68 0 002.8-2.7 3 3 0 00-2.8-2.92 2.67 2.67 0 00-2.8 2.69z"/><path class="cls-2" d="M354.91 143.22l-80.25 55.71 4.32-28.16 75.93-27.55z"/><path fill="#d6e5fc" d="M354.91 143.22l-80.25 55.71 4.32-28.16 75.93-27.55z"/><path fill="#bdd6f9" d="M274.66 198.93l13.96-21.34 66.29-34.37-80.25 55.71z"/><path class="cls-8" d="M354.91 143.22l-66.29 34.37 22.56 22.64 43.73-57.01zm0 0l-75.93 27.55-23.29-17.83 99.22-9.72z"/><path class="cls-4" d="M354.69 143.51c-3 4.15-6 8.25-9.11 12.35l-9.27 12.22-9.4 12.12c-3.17 4-6.34 8-9.57 12 3-4.15 6-8.25 9.11-12.35l9.27-12.22 9.4-12.12c3.17-4.02 6.34-8.04 9.57-12zm-91.53 8.57l11.09-1.25 11.11-1.18 22.22-2.23 22.24-2.06 11.13-.97 11.13-.89-11.1 1.26-11.1 1.17-22.23 2.23-22.23 2.06-11.13.97-11.13.89z"/><path class="cls-8" d="M258.4 98.38l94.12 3.62a2.68 2.68 0 002.68-2.81 3 3 0 00-2.68-3l-94.12-4a2.91 2.91 0 00-3 3 3.2 3.2 0 003 3.19zm13 135.83c8.71-.51 17.42-.92 26.13-1.31l26.15-1 26.15-.82 13.08-.32 13.09-.26-13.07.71-13.07.6-26.14 1.05-26.15.81c-8.73.23-17.45.44-26.17.54zM388.44 131.2c.21 7.19.31 14.38.39 21.57l.11 21.56-.11 21.57-.14 10.78c-.08 3.59-.13 7.19-.25 10.78-.11-3.59-.16-7.19-.24-10.78l-.14-10.78-.12-21.57.12-21.56c.08-7.19.18-14.38.38-21.57z"/></g></g></svg>