<svg xmlns="http://www.w3.org/2000/svg" xmlns:xlink="http://www.w3.org/1999/xlink" viewBox="0 0 1920.36 224.28"><defs><clipPath id="clip-path"><polygon points="502.29 157.13 508.58 123.42 464.04 123.42 457.97 155.91 502.29 157.13" class="cls-1"/></clipPath><clipPath id="clip-path-2"><path d="M550.69,115.11l18.41.47a1.39,1.39,0,0,0,1.26-1.53l-.07-54.67A1.33,1.33,0,0,0,569,57.9l-18.29,1.15a1.53,1.53,0,0,0-1.25,1.59l-.06,52.92A1.44,1.44,0,0,0,550.69,115.11Z" class="cls-1"/></clipPath><radialGradient id="radial-gradient" cx="564.59" cy="127.5" r="60.16" gradientTransform="translate(-91.2 -73.54) scale(1.15 1.25)" gradientUnits="userSpaceOnUse"><stop offset="0" stop-color="#fff" stop-opacity="0"/><stop offset=".25" stop-color="#fdfdff" stop-opacity=".01"/><stop offset=".37" stop-color="#f5f8ff" stop-opacity=".04"/><stop offset=".47" stop-color="#e8effe" stop-opacity=".09"/><stop offset=".54" stop-color="#d5e2fe" stop-opacity=".16"/><stop offset=".61" stop-color="#bcd1fd" stop-opacity=".26"/><stop offset=".67" stop-color="#9ebdfc" stop-opacity=".37"/><stop offset=".68" stop-color="#97b8fc" stop-opacity=".4"/><stop offset=".72" stop-color="#b7cefd" stop-opacity=".28"/><stop offset=".76" stop-color="#d1e0fe" stop-opacity=".18"/><stop offset=".8" stop-color="#e6eefe" stop-opacity=".1"/><stop offset=".84" stop-color="#f4f8ff" stop-opacity=".04"/><stop offset=".9" stop-color="#fcfdff" stop-opacity=".01"/><stop offset="1" stop-color="#fff" stop-opacity="0"/></radialGradient><linearGradient id="linear-gradient" x1="2066.57" x2="2107.5" y1="154.01" y2="154.01" gradientTransform="matrix(-1, 0, 0, 1, 2567.85, 0)" gradientUnits="userSpaceOnUse"><stop offset=".25" stop-color="#fff" stop-opacity=".99"/><stop offset=".64" stop-color="#fff"/><stop offset=".65" stop-color="#fff" stop-opacity=".98"/><stop offset=".74" stop-color="#fff" stop-opacity=".7"/><stop offset=".83" stop-color="#fff" stop-opacity=".49"/><stop offset=".9" stop-color="#fff" stop-opacity=".33"/><stop offset=".96" stop-color="#fff" stop-opacity=".24"/><stop offset="1" stop-color="#fff" stop-opacity=".2"/></linearGradient><style>.cls-1,.cls-23{fill:none}.cls-3{fill:#e04c41}.cls-4{fill:#fff}.cls-5{fill:#939be2}.cls-6{fill:#293982}.cls-10{fill:#32469e}.cls-11{fill:#7798f4}.cls-11,.cls-60{opacity:.5}.cls-12,.cls-20{fill:#b9ecf0}.cls-13{fill:#51c4e3}.cls-14{fill:#7927a4;opacity:.26}.cls-15{fill:#3b53bd}.cls-16{fill:#25a0c2}.cls-17{fill:#208ba8}.cls-18{fill:#1e295e}.cls-20,.cls-48{opacity:.33}.cls-22{fill:#fab416}.cls-23{stroke:#32469e;stroke-linecap:round;stroke-miterlimit:10;stroke-width:.5px}.cls-28{fill:#5066d6}.cls-29{fill:#2d3ca1}.cls-30{fill:#3143b5}.cls-35{fill:#86a7fd}.cls-38{fill:#fcbb14}.cls-39{fill:#c2722a}.cls-40{fill:#f8af2a}.cls-41{fill:#f6961f}.cls-42{fill:#f7d361}.cls-43{mix-blend-mode:screen}.cls-44{fill:#ca7728}.cls-45{fill:#e18726}.cls-46{fill:#d16d3e}.cls-47{fill:#c44543}.cls-48{fill:#ef6e6a}.cls-49{fill:#f6c067}.cls-50{fill:#f2e0c9}.cls-51{fill:#f8af2e}.cls-52{fill:#ad2068}.cls-53{fill:#481e19}.cls-54{fill:#f9bc6b}.cls-55{fill:#af2067}.cls-56{fill:#f7cc90}.cls-57{opacity:.4;fill:url(#linear-gradient)}.cls-59{fill:#2b3a99}.cls-60{mix-blend-mode:multiply}.cls-61{fill:#3646ab}.cls-64{fill:#24328f}.cls-66{fill:#2e2698}.cls-68{fill:#aeb3fc}.cls-69{fill:#d9dbfc}.cls-77{fill:#c44349}.cls-78{fill:#f68e1f}.cls-80{fill:#e18026}.cls-81{fill:#f8aa2a}.cls-84{fill:#4cd6de}</style></defs><g style="isolation:isolate"><g id="Layer_2" data-name="Layer 2"><g id="Layer_3" data-name="Layer 3"><g><g><circle cx="714.51" cy="25.92" r="9.55" class="cls-3"/><path d="M720.16,24.73c-.8,3.06-5.66,7.25-5.66,7.25s-4.94-3.63-5.66-7.25a2.62,2.62,0,0,1,2.2-3.37c1.84-.17,3.46,2.2,3.46,2.2s1.43-2.21,3.46-2.2C719.62,21.37,720.54,23.26,720.16,24.73Z" class="cls-4"/></g><g><circle cx="1233.39" cy="22.33" r="9.2" class="cls-5"/><g><rect width="1.71" height="6.3" x="1228.49" y="20.02" class="cls-4"/><path d="M1237.56,20h-3.66l.89-2c.26-.56.06-1.14-.36-1.14H1234L1231.5,20v6.3h4.23c1,0,1.32-.65,2-1.61l1.62-2.93C1239.58,20.87,1238.53,20,1237.56,20Z" class="cls-4"/></g></g><g><circle cx="1083.51" cy="16.81" r="9.56" class="cls-3"/><path d="M1089.17,15.61c-.8,3.07-5.67,7.26-5.67,7.26s-4.94-3.64-5.66-7.26a2.62,2.62,0,0,1,2.2-3.37c1.84-.17,3.46,2.2,3.46,2.2s1.44-2.21,3.47-2.2C1088.63,12.25,1089.55,14.14,1089.17,15.61Z" class="cls-4"/></g><g><circle cx="1057.98" cy="22.55" r="12.01" class="cls-5"/><path d="M1065.08,21.05c-1,3.85-7.11,9.12-7.11,9.12s-6.21-4.57-7.12-9.12c-.38-1.87.45-4,2.76-4.23s4.36,2.76,4.36,2.76,1.8-2.77,4.35-2.76C1064.4,16.83,1065.57,19.2,1065.08,21.05Z" class="cls-4"/></g><rect width="1920.36" height="224" y=".28" class="cls-6"/><path fill="#222f6b" d="M1920.36.28v224H1028.54C453.26,206.93,1.08,159,0,158.32,440.74,104.57,705.88-9.88,1002.88,5.53,1290.77,20.43,1301.67,115.65,876.82,99,1190.06,166.89,1679.6,78.88,1920.36.28Z" opacity=".57"/><path fill="#3c53bf" d="M1468.31,224.28H0v-66c185.38-10.46,591.24,8.57,591.24,8.57C896.46,166.9,1190.26,168.13,1468.31,224.28Z"/><path fill="#293982" d="M50.92,182.09c2.48,1.45,24.66,11.36,59.24,4.82,16.59-3.86,4.29,5.15,4.29,5.15,4.38,2.71,19.62,9.33,19.62,9.33L159,192.28l15.54,6.78,41.7-11s-22.42-7.06-26.4-8.93c13.24-.82,66.46-4.95,46.17-6.94-29.24-2.85-19.09-11.83-53-10.71,0,0-67.39,4.91-80.27,6-16.23,1.41-39.46,3.69-54.4,9C45.94,177.33,49.29,181.14,50.92,182.09Z" opacity=".6"/><g><g><path d="M192.06,94.7h3.44a0,0,0,0,1,0,0v13.8a.88.88,0,0,1-.88.88h-1.69a.88.88,0,0,1-.88-.88V94.7a0,0,0,0,1,0,0Z" class="cls-10" transform="translate(387.56 204.08) rotate(-180)"/><path d="M188.14,101.32l18.1,1.57a1.28,1.28,0,0,0,1.39-1.27V99.21a1.29,1.29,0,0,0-1.28-1.29h-18.1A1.28,1.28,0,0,0,187,99.21V100A1.28,1.28,0,0,0,188.14,101.32Z" class="cls-10"/><path d="M169,139.11c0-11.77,6.51-21.82,15.69-25.93a1.22,1.22,0,0,0,.74-1.11v-2.73a1.23,1.23,0,0,1,1.23-1.23h14.61a1.23,1.23,0,0,1,1.23,1.23v2.77a1.22,1.22,0,0,0,.73,1.11c9.14,4.14,15.6,14.16,15.6,25.89,0,9.95-4.65,18.65-11.63,23.6a1.22,1.22,0,0,0-.52,1v6.14a1.22,1.22,0,0,1-1.22,1.23h-23a1.23,1.23,0,0,1-1.22-1.23v-6.06a1.2,1.2,0,0,0-.52-1C173.67,157.86,169,149.11,169,139.11Z" class="cls-10"/><path d="M191,131.57v24.06a1.93,1.93,0,0,0,1.73,1.94,182.6,182.6,0,0,0,19,1,29.59,29.59,0,0,0,7.07-19.44A30.55,30.55,0,0,0,216.73,128a171,171,0,0,1-23.8,1.67A1.93,1.93,0,0,0,191,131.57Z" class="cls-11"/></g><path d="M107.61,101.35h-.12c-.84-4.07-7.07-7.55-16.2-9.32V78.2h0s0,0,0,0c0-1.89-6.3-3.42-14.06-3.42s-14.05,1.53-14.05,3.42c0,0,0,0,0,0h0V92.12c-8.91,1.8-15.38,5.22-16.21,9.23h-.12v76.47H47a1.91,1.91,0,0,0-.15.7c0,3.95,13.6,7.15,30.38,7.15s30.38-3.2,30.38-7.15a1.73,1.73,0,0,0-.15-.7h.15Z" class="cls-12"/><ellipse cx="77.44" cy="77.68" class="cls-13" rx="10.84" ry="1.66"/><path d="M101.55,115.57c-1.13-1.91-11.58-3.41-24.32-3.41s-23.19,1.5-24.31,3.41h-.11v60.3c0,2.07,10.93,5.84,24.42,5.84s24.43-3.77,24.43-5.84v-60.3Z" class="cls-13"/><path d="M52.81,115.57A90.82,90.82,0,0,0,65,117.64a105,105,0,0,0,12.28.65,102.94,102.94,0,0,0,12.28-.7,117,117,0,0,0,12.15-2c-2,.48-4,1.07-6,1.46s-4,.79-6.1,1a92.43,92.43,0,0,1-12.33.84,96,96,0,0,1-12.34-.79A72.86,72.86,0,0,1,52.81,115.57Z" class="cls-14"/><path d="M101.66,175.85a90.82,90.82,0,0,0-12.14-2.07,102.88,102.88,0,0,0-12.28-.64,100.76,100.76,0,0,0-12.28.69,116.59,116.59,0,0,0-12.15,2c2-.48,4-1.07,6-1.46s4-.79,6.09-1a92.46,92.46,0,0,1,12.34-.84,96.11,96.11,0,0,1,12.34.79A73.29,73.29,0,0,1,101.66,175.85Z" class="cls-14"/><path d="M63.16,91c2.75.09,5.48.27,8.19.61-2.73,0-5.45.09-8.16.3Z" class="cls-13"/><polygon points="91.3 91.92 83.07 91.62 91.27 91 91.3 91.92" class="cls-13"/><g><path d="M167.39,100.16l-5.87,61.24H140l-2.31-24.16-2.06-21.44-1.5-15.64a4.3,4.3,0,0,1,4.27-4.7h24.76A4.3,4.3,0,0,1,167.39,100.16Z" class="cls-10"/><path d="M158.59,105.65H142.88a2.23,2.23,0,0,0-2.21,2.44l3.38,35.27a2.23,2.23,0,0,0,2.22,2h8.94a2.22,2.22,0,0,0,2.21-2l3.39-35.27A2.23,2.23,0,0,0,158.59,105.65Z" class="cls-11"/><path d="M140,161.4h21.65a0,0,0,0,1,0,0v6.94a2.1,2.1,0,0,1-2.1,2.1H142.06a2.1,2.1,0,0,1-2.1-2.1V161.4a0,0,0,0,1,0,0Z" class="cls-15"/></g><g><polygon points="199.96 165.77 172.28 170.65 148.08 164.14 177.29 160.04 199.96 165.77" class="cls-16"/><path d="M194,165.09v0c-.1,1.06-7.64,1.92-16.92,1.92s-16.8-.86-16.9-1.92v0a.23.23,0,0,1,0-.11c.46-1,7.84-1.85,16.88-1.85s16.44.81,16.9,1.85A.23.23,0,0,1,194,165.09Z" class="cls-17"/><polygon points="172.28 170.65 172.28 194.14 148.08 185.96 148.08 164.14 172.28 170.65" class="cls-13"/><polygon points="172.28 170.65 172.28 194.14 199.96 186.09 199.96 165.77 172.28 170.65" class="cls-12"/><path d="M190.7,154.61v9.52c0,1.26-7.59,2.27-16.92,2.27s-16.91-1-16.91-2.27v-9.52a.16.16,0,0,1,0-.09c.47-.85,7.84-1.52,16.89-1.52s16.44.67,16.9,1.52A.16.16,0,0,1,190.7,154.61Z" class="cls-13"/><path d="M190.7,154.61v0c-.11.87-7.64,1.58-16.92,1.58s-16.8-.71-16.91-1.58v0a.16.16,0,0,1,0-.09c.47-.85,7.84-1.52,16.89-1.52s16.44.67,16.9,1.52A.16.16,0,0,1,190.7,154.61Z" class="cls-16"/><path d="M185.51,154.12h0c-.07.6-5.29,1.09-11.73,1.09s-11.65-.49-11.72-1.09h0a.11.11,0,0,1,0-.06c.32-.6,5.44-1.06,11.71-1.06s11.4.46,11.72,1.06A.11.11,0,0,1,185.51,154.12Z" class="cls-13"/><path d="M190.68,154.52s0,.07,0,.11h0c-.17.33-.59.4-.91.51s-.69.18-1,.25c-.7.14-1.41.24-2.12.33-1.42.16-2.85.27-4.27.36-2.86.17-5.72.25-8.58.27s-5.71-.1-8.57-.27c-1.42-.09-2.85-.2-4.27-.36-.71-.09-1.42-.19-2.12-.33-.35-.07-.7-.15-1-.25s-.74-.18-.91-.51h0s0-.07,0-.11,0,.07,0,.11c.17.32.59.37.91.48s.69.15,1,.21c.71.11,1.42.19,2.13.26,1.42.15,2.84.24,4.27.31,2.85.14,5.7.19,8.55.17s5.71,0,8.56-.17c1.43-.07,2.85-.17,4.27-.31.71-.07,1.42-.15,2.13-.26.35-.06.7-.12,1-.21s.74-.16.91-.48C190.69,154.59,190.68,154.56,190.68,154.52Z" class="cls-17"/></g><path d="M139.58,123.65,138,140.45,135.91,119A4.27,4.27,0,0,1,139.58,123.65Z" class="cls-6"/><g><path d="M133.88,119H118.37a4.26,4.26,0,0,0-4.25,4.67L118.27,167H134l4.16-43.35A4.26,4.26,0,0,0,133.88,119Z" class="cls-10"/><path d="M131.18,126.39H121.07a2.22,2.22,0,0,0-2.21,2.43l2.34,24.48a2.22,2.22,0,0,0,2.21,2h5.42a2.22,2.22,0,0,0,2.21-2l2.35-24.48A2.22,2.22,0,0,0,131.18,126.39Z" class="cls-11"/><path d="M118.27,167H134a0,0,0,0,1,0,0v3.77a1.54,1.54,0,0,1-1.54,1.54H119.81a1.54,1.54,0,0,1-1.54-1.54V167a0,0,0,0,1,0,0Z" class="cls-15"/></g><g><polygon points="153.68 176.82 132.75 180.51 114.46 175.59 136.54 172.49 153.68 176.82" class="cls-6"/><path d="M149.18,176.31h0c-.08.81-5.78,1.46-12.8,1.46s-12.7-.65-12.77-1.46h0a.22.22,0,0,1,0-.08c.35-.79,5.93-1.4,12.76-1.4s12.43.61,12.78,1.4A.12.12,0,0,1,149.18,176.31Z" class="cls-18"/><path d="M146.68,168.39v7.2c0,.94-5.74,1.71-12.79,1.71s-12.78-.77-12.78-1.71v-7.2a.17.17,0,0,1,0-.07c.35-.65,5.93-1.15,12.77-1.15s12.42.5,12.77,1.15A.1.1,0,0,1,146.68,168.39Z" class="cls-16"/><path d="M146.68,168.39h0c-.08.66-5.78,1.19-12.79,1.19s-12.71-.53-12.78-1.19h0a.17.17,0,0,1,0-.07c.35-.65,5.93-1.15,12.77-1.15s12.42.5,12.77,1.15A.1.1,0,0,1,146.68,168.39Z" class="cls-13"/><polygon fill="#222f6b" points="132.75 180.51 132.75 198.28 114.46 192.09 114.46 175.59 132.75 180.51"/><polygon points="132.75 180.51 132.75 198.28 153.68 192.19 153.68 176.82 132.75 180.51" class="cls-15"/><path d="M142.76,168h0c0,.46-4,.83-8.87.83s-8.81-.37-8.87-.83h0a.06.06,0,0,1,0,0c.25-.45,4.12-.8,8.86-.8s8.62.35,8.86.8A.06.06,0,0,1,142.76,168Z" class="cls-20"/><path d="M146.66,168.32a.24.24,0,0,1,0,.08h0c-.12.25-.44.3-.68.39a7.55,7.55,0,0,1-.79.19c-.53.11-1.07.19-1.61.26-1.07.13-2.15.21-3.23.28-2.15.14-4.32.2-6.48.21s-4.32-.07-6.48-.21c-1.08-.07-2.16-.15-3.23-.28-.54-.07-1.07-.15-1.6-.25-.27-.06-.53-.12-.79-.2s-.56-.14-.69-.39h0s0-.05,0-.08,0,.05,0,.08c.13.24.44.28.69.36s.52.11.79.15c.53.09,1.07.14,1.6.19,1.08.11,2.15.18,3.23.23,2.16.1,4.31.13,6.47.12s4.32,0,6.47-.12c1.08-.05,2.16-.12,3.23-.23.54,0,1.07-.1,1.6-.19.27,0,.54-.09.8-.15s.56-.12.69-.36A.24.24,0,0,0,146.66,168.32Z" class="cls-17"/></g></g><g opacity=".72"><path d="M1421.48,89.13q-76.7.68-153.11,3.36c-3,.1-5.43-.81-5.37-2q1.35-27.61,2.8-55.12c.06-1.23,2.55-2.67,5.56-3.22,50.65-9.23,101-18.55,150.92-28.3,3-.58,5.35.4,5.34,2.18q-.36,39.86-.62,79.86C1427,87.64,1424.52,89.11,1421.48,89.13Z" class="cls-10"/><path d="M1417.79,89.17q-76.69.7-153.1,3.45c-3,.1-5.42-.8-5.36-2q1.43-28.84,3-57.59c.06-1.22,2.55-2.66,5.56-3.23,50.65-9.6,101-19.32,150.87-29.51,3-.61,5.34.33,5.32,2.1q-.42,41.69-.74,83.54C1423.3,87.68,1420.83,89.14,1417.79,89.17Z" class="cls-11"/><path d="M1573.94,30.69q-65.65,6.6-131.64,13.23c-3,.3-5.43,2-5.44,3.84q-.09,17.22-.15,34.46c0,1.82,2.44,3.26,5.47,3.23q66.77-.84,133.67-.17c3,0,5.43-1.92,5.34-4.38q-.86-23.16-1.69-46.32C1579.41,32.13,1576.92,30.39,1573.94,30.69Z" class="cls-10"/><path d="M1571.22,31q-65.67,6.59-131.66,13.22c-3,.31-5.43,2-5.44,3.83q-.11,17.11-.18,34.25c0,1.81,2.44,3.25,5.47,3.21q66.77-.86,133.67-.22c3,0,5.43-1.92,5.34-4.36q-.83-23.06-1.65-46.07C1576.68,32.4,1574.2,30.67,1571.22,31Z" class="cls-11"/><path d="M1500.11,42.06q-27,2.47-54,5c-3,.28-5.44,2-5.45,3.84q0,13.86-.09,27.74c0,1.84,2.45,3.28,5.48,3.22q27.27-.52,54.57-.82c3,0,5.46-1.76,5.43-3.87q-.25-15.91-.5-31.8C1505.56,43.27,1503.1,41.78,1500.11,42.06Z" class="cls-11"/><path d="M1505.25,24.38c0,2.11-2.39,3.84-5.42,3.88-18.2.19-37.67,2.92-55.85,3.28-3,.05-5.49-1.39-5.48-3.23l.09-27.74a1.43,1.43,0,0,1,0-.29h65c.23,4.33.62,8.35,1,12.47C1504.92,16.44,1505.19,20.22,1505.25,24.38Z" class="cls-11"/><path d="M1556,6c0,2.1-2.39,3.83-5.42,3.87-14.95.16-30.75,2-46,2.9-3.31.18-6.6.32-9.85.38-3,0-5.49-1.39-5.48-3.23l0-9.62h66.5C1555.93,2.12,1556,4,1556,6Z" class="cls-11"/><path d="M1730.08,90.84Q1663.32,88.1,1596.63,87a6.52,6.52,0,0,1-1.94-.32,5,5,0,0,1-3.74-4.29q-1.62-41.1-3.2-82.11h141.16q3.1,42.39,6.24,84.8C1735.39,88.39,1733.12,91,1730.08,90.84Z" class="cls-10"/><path d="M1726.44,90.3q-65.91-2.61-131.75-3.62l-1.67,0c-3-.05-5.58-2.1-5.68-4.58q-1.56-40.93-3.1-81.79h141.14q3.06,42.14,6.14,84.3C1731.76,87.86,1729.49,90.43,1726.44,90.3Z" class="cls-11"/><path d="M1653.61,77.16q-27.36-.15-54.72-.08c-3,0-5.57-2-5.67-4.53q-1.23-30.7-2.44-61.37c-.09-2.51,2.22-4.89,5.18-5.33q18.58-2.74,37.13-5.57h21.27a4.9,4.9,0,0,1,.5,1.9q2,34.91,3.94,69.84A5,5,0,0,1,1653.61,77.16Z" class="cls-11"/><path d="M1453,183.1Q1388,170.83,1324,162.21c-3.06-.42-5.51-1.9-5.46-3.32q1-32.16,2.15-64.2c0-1.42,2.54-2.62,5.57-2.69q63.19-1.41,126.6-1.4c3,0,5.5,1.55,5.51,3.46q.11,43.26.32,86.64C1458.68,182.62,1456.15,183.69,1453,183.1Z" class="cls-10"/><path d="M1655.17,224.28H1551.36q-39-10.62-77.67-19.55c-3.14-.73-5.7-2.9-5.71-4.85q-.4-53-.68-105.73a2.37,2.37,0,0,1,.23-1c.67-1.45,2.77-2.5,5.26-2.49q84.75.34,169.82,3.42a5.93,5.93,0,0,1,5.79,5.27Q1651.76,161.74,1655.17,224.28Z" class="cls-10"/><path d="M1795.84,198.46q-64.85-15.56-129.19-27.25c-3.13-.58-5.79-3.34-6-6.18q-1.85-32.65-3.66-65.28a4.76,4.76,0,0,1,5.23-4.92q62.67,2.55,125.45,6.72c3,.21,5.78,3.36,6.09,7l7.17,84.57C1801.3,196.86,1799,199.22,1795.84,198.46Z" class="cls-10"/><path d="M1449.25,184.86q-65.09-12.5-129-21.28c-3.07-.43-5.51-1.91-5.47-3.32q1.05-31.89,2.19-63.67c0-1.4,2.55-2.59,5.57-2.64q63.21-1.19,126.65-.89c3,0,5.51,1.56,5.51,3.46q.07,42.92.23,86C1454.89,184.41,1452.37,185.46,1449.25,184.86Z" class="cls-11"/><path d="M1375,162.68q-22.26-3.18-44.39-6c-3.07-.39-5.51-1.85-5.47-3.27q.72-24.93,1.51-49.78c0-1.42,2.54-2.58,5.58-2.58q21.91,0,43.87.21c3,0,5.47,1.36,5.45,3q-.49,28.11-.93,56.3C1380.63,162.17,1378.11,163.12,1375,162.68Z" class="cls-11"/><g><path d="M1351.9,122.28h1.7L1354,117c0-.37-.32-.66-.77-.65h0a.86.86,0,0,0-.88.69Z" class="cls-10"/><path d="M1350.2,119.08l8.91.53a.67.67,0,0,0,.73-.54c0-.33.05-.66.07-1a.53.53,0,0,0-.59-.52l-9,.18a.67.67,0,0,0-.68.52c0,.11,0,.23,0,.34S1349.87,119.06,1350.2,119.08Z" class="cls-10"/><path d="M1339.56,133.61c.36-4.47,3.89-8.25,8.56-9.82a.55.55,0,0,0,.4-.44c0-.36,0-.72.08-1.08a.61.61,0,0,1,.65-.49h7.23a.52.52,0,0,1,.58.5c0,.38-.06.76-.08,1.14a.46.46,0,0,0,.32.46,11,11,0,0,1,7,11,11.32,11.32,0,0,1-6.47,9.46.47.47,0,0,0-.29.38l-.18,2.54a.54.54,0,0,1-.65.44l-11.41-1.25a.58.58,0,0,1-.57-.55l.18-2.37a.47.47,0,0,0-.23-.41A10.56,10.56,0,0,1,1339.56,133.61Z" class="cls-10"/><path d="M1350.71,131.16l-.72,9.62a.88.88,0,0,0,.8.85c1.66.28,5.51.9,9.41,1.23a11.31,11.31,0,0,0,3.38-12.71,102.26,102.26,0,0,1-11.86.26A.93.93,0,0,0,1350.71,131.16Z" class="cls-11"/></g><path d="M1340.09,80.78q-32.83,1.45-65.67,3.24c-3,.16-5.41-.72-5.35-2q1-21.87,2.16-43.67c.07-1.25,2.56-2.68,5.56-3.2q32.65-5.62,65.14-11.32c3-.52,5.37.26,5.33,1.75q-.84,26.07-1.62,52.22C1345.6,79.32,1343.12,80.64,1340.09,80.78Z" class="cls-11"/><path d="M1443.14,178Q1419.5,173.76,1396,170c-1.45-.23-2.63-1-2.62-1.84,0-1.63.05-3.26.07-4.89,0-.78,1.19-1.26,2.64-1.05q23.48,3.33,47.06,7.12c1.46.23,2.65,1.14,2.65,2v5.46C1445.79,177.73,1444.61,178.23,1443.14,178Z" class="cls-13"/><path d="M1391,97.55c.44.5.89,1,1.33,1.51l3.05.27-2.23,1.15c.17.56.33,1.12.5,1.67l-2.71-.82-2.74.75c.18-.55.36-1.09.55-1.64l-2.19-1.18,3.05-.22Z" class="cls-22"/><path d="M1401.14,97.59c.45.52.89,1,1.34,1.55l3,.28-2.22,1.18c.17.57.34,1.14.5,1.7l-2.71-.84-2.74.76c.18-.56.36-1.12.55-1.67l-2.19-1.21,3-.22Z" class="cls-22"/><path d="M1411.26,97.66l1.35,1.59,3,.29-2.21,1.2c.17.58.33,1.16.5,1.74l-2.72-.86-2.73.76.54-1.71-2.19-1.24,3.05-.21Z" class="cls-22"/><path d="M1421.39,97.75l1.35,1.62,3,.3-2.21,1.23c.16.59.33,1.18.5,1.78l-2.72-.89-2.73.78c.18-.58.35-1.16.53-1.75L1417,99.55l3-.21Z" class="cls-10"/><path d="M1431.53,97.86l1.35,1.66,3,.31-2.21,1.25.51,1.82-2.72-.91-2.74.79c.18-.6.36-1.19.53-1.79l-2.2-1.3,3.05-.21Z" class="cls-10"/><path d="M1386.45,107.1q21.36.5,42.76,1.21" class="cls-23"/><path d="M1386.32,114.47q30.67,1.2,61.45,2.9" class="cls-23"/><path d="M1386.27,117.39q30.7,1.39,61.5,3.3" class="cls-23"/><path d="M1386.22,120.3q30.72,1.61,61.55,3.72" class="cls-23"/><path d="M1386.18,123.22q30.73,1.78,61.6,4.12" class="cls-23"/><path d="M1386.13,126.14q30.75,2,61.65,4.52" class="cls-23"/><path d="M1386.08,129.06q30.78,2.17,61.7,4.93" class="cls-23"/><path d="M1386,132q30.79,2.37,61.75,5.34" class="cls-23"/><path d="M1386,134.9q30.81,2.57,61.79,5.74" class="cls-23"/><path d="M1386.39,110.46q14.56.45,29.16,1" class="cls-23"/><path d="M1651.35,224.28H1541.24q-35.85-9.75-71.35-18.05c-3.15-.74-5.7-2.9-5.71-4.84q-.35-52.57-.57-104.92c0-1.59,1.65-2.92,3.92-3.33a8.91,8.91,0,0,1,1.57-.13q84.81.7,170,4.27a5.94,5.94,0,0,1,5.79,5.26Q1648.09,163.35,1651.35,224.28Z" class="cls-11"/><path d="M1477.13,175.62q41.43,7.27,83.26,16.13c3.14.67,5.63-.7,5.55-3.07q-1.1-33.18-2.16-66.31c-.08-2.37-2.63-4.46-5.7-4.68q-40.83-2.91-81.51-4.94c-3.06-.15-5.53,1.32-5.51,3.28q.18,27.5.4,55C1471.47,173,1474,175.07,1477.13,175.62Z" class="cls-11"/><path d="M1637.38,221.7q-24.2-6.57-48.26-12.49a3.48,3.48,0,0,1-2.77-2.76q-.13-3.58-.28-7.19c0-1.15,1.13-1.82,2.61-1.49q24,5.41,48.07,11.4a3.7,3.7,0,0,1,2.81,3c.14,2.65.27,5.3.41,8C1640,221.4,1638.88,222.11,1637.38,221.7Z" class="cls-13"/><path d="M1579.06,102.37c.49.76,1,1.52,1.45,2.28l3.08.51-2.15,1.62c.2.82.41,1.65.61,2.47l-2.79-1.31-2.7,1c.15-.8.29-1.6.44-2.4l-2.28-1.82,3-.21Z" class="cls-22"/><path d="M1589.24,102.83c.49.77,1,1.55,1.46,2.33l3.08.52-2.15,1.65.63,2.53-2.79-1.34-2.7,1c.14-.82.28-1.63.43-2.44l-2.29-1.87,3-.2C1588.39,104.29,1588.82,103.56,1589.24,102.83Z" class="cls-22"/><path d="M1599.43,103.31l1.47,2.38,3.08.54-2.14,1.68.63,2.58-2.8-1.37-2.69,1,.42-2.49-2.3-1.91,3.05-.2Z" class="cls-22"/><path d="M1609.62,103.82l1.47,2.43,3.09.56-2.14,1.71c.21.87.43,1.75.64,2.63l-2.8-1.4-2.69,1c.13-.85.27-1.69.41-2.54l-2.3-2,3-.2Z" class="cls-22"/><path d="M1619.81,104.36l1.48,2.48,3.09.56-2.13,1.75c.21.89.43,1.79.65,2.68l-2.81-1.43-2.69,1.06c.14-.86.27-1.73.4-2.59l-2.3-2,3-.2Z" class="cls-22"/><path d="M1575.13,116.27q21.54,1.53,43.12,3.3" class="cls-23"/><path d="M1575.51,127.14q31,2.83,62.07,6.28" class="cls-23"/><path d="M1575.66,131.44q31,3.1,62.17,6.83" class="cls-23"/><path d="M1575.82,135.73q31.07,3.38,62.26,7.39" class="cls-23"/><path d="M1576,140q31.11,3.63,62.35,7.94" class="cls-23"/><path d="M1576.12,144.33q31.17,3.9,62.45,8.49" class="cls-23"/><path d="M1576.27,148.64q31.21,4.14,62.55,9" class="cls-23"/><path d="M1576.43,152.94q31.24,4.41,62.64,9.58" class="cls-23"/><path d="M1576.58,157.24q31.29,4.66,62.74,10.13" class="cls-23"/><path d="M1575.3,121.22q14.7,1.19,29.43,2.49" class="cls-23"/><path d="M1792.36,202q-64.9-16-129.32-28c-3.13-.59-5.8-3.35-6-6.17q-1.8-32.42-3.58-64.81c-.16-2.81,2.19-5,5.24-4.85q62.74,2.92,125.61,7.56c3.06.23,5.79,3.38,6.1,7q3.52,42,7.07,84C1797.83,200.41,1795.52,202.73,1792.36,202Z" class="cls-11"/><path d="M1726.2,174.16q-28.64-5.72-57.16-10.73a5.29,5.29,0,0,1-4.24-4.61q-1.32-23-2.63-46a3.38,3.38,0,0,1,3.73-3.63q28,2,56,4.41a5.1,5.1,0,0,1,4.27,4.77q1.85,26.1,3.71,52.22C1730.1,173,1728.43,174.61,1726.2,174.16Z" class="cls-11"/><path d="M1743.52,224.28h-67.41L1668,222c-3.19-.87-5.9-3.87-6-6.7q-.95-16.72-1.88-33.43a4,4,0,0,1,.56-2.34,4.47,4.47,0,0,1,4.83-1.7q35,6.82,70.13,14.77a8.5,8.5,0,0,1,6.15,7.27Q1742.63,212.09,1743.52,224.28Z" class="cls-10"/><path d="M1741.32,224.28h-72.48l-3-.83c-3.19-.89-5.9-3.88-6-6.7q-.93-16.65-1.85-33.3a3.68,3.68,0,0,1,2.66-3.88,5.39,5.39,0,0,1,2.73-.11q35,6.91,70.17,15a8.49,8.49,0,0,1,6.15,7.26Z" class="cls-11"/><path d="M1782.49,192.27q-11.65-2.7-23.3-5.28a4,4,0,0,1-2.9-3.49l-.21-2.67a2,2,0,0,1,2.45-2.35q11.61,2.4,23.24,4.92a4.18,4.18,0,0,1,2.92,3.63c.08.94.15,1.88.23,2.82C1785.06,191.53,1784,192.62,1782.49,192.27Z" class="cls-13"/><path d="M1735.19,113l1.23,2.4,2.4.58-1.58,1.65c.19.87.39,1.73.59,2.59l-2.22-1.4-2,1c.08-.83.15-1.66.22-2.49-.61-.65-1.23-1.3-1.85-1.94l2.35-.17Z" class="cls-22"/><path d="M1743.09,113.69l1.23,2.44,2.41.59-1.58,1.68.6,2.63-2.22-1.43-2,1c.07-.85.14-1.69.22-2.53l-1.86-2,2.35-.16Z" class="cls-22"/><path d="M1751,114.37l1.24,2.48,2.41.6-1.58,1.7c.2.89.41,1.78.61,2.67l-2.22-1.45-2,1,.21-2.57-1.86-2,2.34-.17Z" class="cls-22"/><path d="M1758.89,115.06l1.25,2.52,2.41.61-1.57,1.73c.2.9.41,1.8.61,2.7l-2.23-1.47-2,1c.07-.87.13-1.74.2-2.61l-1.87-2,2.35-.16C1758.3,116.61,1758.6,115.84,1758.89,115.06Z" class="cls-10"/><path d="M1766.79,115.77l1.26,2.56,2.41.62c-.52.59-1,1.17-1.57,1.75.21.92.42,1.83.62,2.75l-2.23-1.5-2,1c.07-.88.13-1.76.2-2.64l-1.88-2.07,2.35-.16Z" class="cls-10"/><path d="M1732.82,127.49q16.73,1.83,33.45,3.82" class="cls-23"/><path d="M1733.65,138.86q24.06,3.13,48.15,6.65" class="cls-23"/><path d="M1734,143.35q24.1,3.35,48.24,7.08" class="cls-23"/><path d="M1734.3,147.85q24.14,3.54,48.31,7.5" class="cls-23"/><path d="M1734.63,152.35q24.16,3.74,48.38,7.91" class="cls-23"/><path d="M1735,156.84q24.21,3.94,48.47,8.34" class="cls-23"/><path d="M1735.28,161.34q24.24,4.14,48.54,8.76" class="cls-23"/><path d="M1735.61,165.84q24.27,4.35,48.61,9.17" class="cls-23"/><path d="M1735.93,170.34q24.32,4.54,48.7,9.59" class="cls-23"/><path d="M1733.2,132.67q11.41,1.37,22.83,2.8" class="cls-23"/><path d="M1722.45,81.75q-23.07-.52-46.14-.89a2.81,2.81,0,0,1-2.74-2.55l-.51-8.59a2.39,2.39,0,0,1,2.42-2.53q23-.25,45.91-.38a2.9,2.9,0,0,1,2.77,2.75q.33,4.74.68,9.48A2.4,2.4,0,0,1,1722.45,81.75Z" class="cls-13"/><path d="M1661.58,5c13.82-1.89,20-2.84,33.8-4.79" class="cls-23"/><path d="M1662.33,18q29.85-3.28,59.62-6.68" class="cls-23"/><path d="M1662.63,23.19q29.91-3,59.74-6" class="cls-23"/><path d="M1662.93,28.33q30-2.68,59.85-5.39" class="cls-23"/><path d="M1663.23,33.47l60-4.75" class="cls-23"/><path d="M1663.53,38.62l60.09-4.11" class="cls-23"/><path d="M1663.83,43.76Q1694,42,1724,40.3" class="cls-23"/><path d="M1664.13,48.91q30.18-1.47,60.32-2.82" class="cls-23"/><path d="M1664.42,54.05q30.24-1.15,60.45-2.18" class="cls-23"/><path d="M1661.92,11q14.16-1.77,28.29-3.56" class="cls-23"/><path d="M1412.07,81.92q-23,.6-46,1.36c-1.43,0-2.57-.51-2.55-1.24l.12-4.55c0-.73,1.18-1.38,2.6-1.45q23-1.12,45.93-2.12c1.42-.06,2.56.55,2.55,1.37,0,1.69,0,3.39,0,5.08C1414.65,81.19,1413.49,81.88,1412.07,81.92Z" class="cls-13"/><path d="M1361.69,17.12l1.3,1.15,3-.31-2.19,1.48c.15.48.31,1,.47,1.45l-2.66-.25-2.69,1.19.55-1.62-2.13-.69,3-.76C1360.78,18.21,1361.23,17.66,1361.69,17.12Z" class="cls-22"/><path d="M1371.62,15.28l1.3,1.19,3-.32-2.19,1.51c.16.5.32,1,.47,1.49l-2.65-.27-2.69,1.21.55-1.65-2.13-.72,3-.77C1370.71,16.4,1371.17,15.84,1371.62,15.28Z" class="cls-22"/><path d="M1381.54,13.44c.44.4.87.81,1.3,1.22l3-.31-2.18,1.53c.16.51.31,1,.47,1.53l-2.65-.29-2.69,1.23c.19-.57.37-1.13.55-1.69l-2.13-.74,3-.78Z" class="cls-22"/><path d="M1391.46,11.59l1.3,1.25,3-.31-2.17,1.56c.16.52.31,1,.47,1.56l-2.65-.3-2.68,1.25.54-1.73-2.13-.76,3-.78Z" class="cls-10"/><path d="M1401.36,9.73l1.31,1.28,3-.31-2.17,1.6.48,1.59-2.66-.32-2.67,1.27.53-1.76-2.13-.79,3-.79Z" class="cls-10"/><path d="M1357.11,26.8q21-3.43,41.87-6.9" class="cls-23"/><path d="M1356.91,33.65Q1387,29.2,1417,24.71" class="cls-23"/><path d="M1356.83,36.36Q1387,32.08,1417,27.8" class="cls-23"/><path d="M1356.75,39.07q30.15-4.08,60.18-8.17" class="cls-23"/><path d="M1356.67,41.78,1416.9,34" class="cls-23"/><path d="M1356.6,44.49l60.26-7.4" class="cls-23"/><path d="M1356.52,47.2q30.2-3.53,60.31-7" class="cls-23"/><path d="M1356.44,49.91q30.21-3.33,60.35-6.62" class="cls-23"/><path d="M1356.37,52.63q30.23-3.16,60.39-6.24" class="cls-23"/><path d="M1357,29.92l28.57-4.49" class="cls-23"/><path d="M1565.29,79.73q-23.05.06-46.09.28c-1.43,0-2.6-.8-2.62-1.81l-.12-6.29c0-1,1.12-1.87,2.54-1.91q23-.69,45.93-1.26a2.38,2.38,0,0,1,2.64,2c.08,2.33.16,4.65.23,7A2.27,2.27,0,0,1,1565.29,79.73Z" class="cls-13"/><path d="M1519.13,43.35l.69.93,1.5,0-1.07.86c.09.35.18.71.28,1.06l-1.36-.4-1.33.61.24-1.1c-.37-.22-.74-.44-1.1-.67l1.49-.28Z" class="cls-22"/><path d="M1524.11,42.93l.7.93,1.5,0-1.07.86c.09.36.19.72.28,1.08l-1.35-.41-1.34.62.24-1.11-1.1-.68,1.49-.29C1523.68,43.63,1523.9,43.28,1524.11,42.93Z" class="cls-22"/><path d="M1529.1,42.5l.69,1,1.51,0-1.07.87c.09.36.19.72.28,1.08l-1.35-.41-1.33.62c.07-.37.15-.74.23-1.12l-1.1-.68,1.49-.29C1528.67,43.21,1528.89,42.86,1529.1,42.5Z" class="cls-10"/><path d="M1534.09,42.08l.69,1,1.51,0-1.07.88c.1.36.19.73.28,1.09l-1.35-.42-1.33.63c.08-.37.15-.75.23-1.13-.37-.23-.74-.46-1.1-.7l1.49-.28Z" class="cls-10"/><path d="M1539.08,41.66l.69,1,1.51.05-1.07.88c.1.37.19.74.29,1.11l-1.36-.42-1.33.63c.08-.38.15-.76.23-1.14l-1.11-.71,1.5-.28Z" class="cls-10"/><path d="M1517.07,49.82l21.06-1.51" class="cls-23"/><path d="M1517.16,54.66q24.9-1.54,49.78-3" class="cls-23"/><path d="M1517.2,56.58q24.91-1.45,49.81-2.81" class="cls-23"/><path d="M1517.23,58.49q24.94-1.35,49.85-2.6" class="cls-23"/><path d="M1517.27,60.41q24.95-1.26,49.88-2.4" class="cls-23"/><path d="M1517.31,62.32q25-1.16,49.91-2.19" class="cls-23"/><path d="M1517.34,64.24q25-1,50-2" class="cls-23"/><path d="M1517.11,52l14.36-1" class="cls-23"/><path d="M1686.8,210.58q-8.83-2.25-17.65-4.42a6,6,0,0,1-4.55-5q-.35-6.19-.7-12.4c-.12-2.16,1.7-3.51,4.08-3q8.74,1.83,17.52,3.74a6,6,0,0,1,4.56,5q.4,6.51.82,13C1691,209.86,1689.19,211.19,1686.8,210.58Z" class="cls-11"/><path d="M1722,218.25q-8.85-2.4-17.69-4.72a6.33,6.33,0,0,1-4.61-5.15q-.42-6.39-.85-12.77c-.15-2.21,1.66-3.58,4-3.05q8.78,2,17.56,4a6.26,6.26,0,0,1,4.62,5.23q.48,6.7,1,13.41C1726.19,217.55,1724.38,218.91,1722,218.25Z" class="cls-10"/><path fill="#51c4e3" d="M1709.26,223a3.52,3.52,0,0,1-.12,1.24h-10.22q-5.73-1.6-11.47-3.17a6.38,6.38,0,0,1-4.59-5.22l-.39-6.4-.39-6.42c-.14-2.22,1.69-3.58,4.07-3l4.32,1q4.44,1,8.87,2.13l4.42,1.07a6.33,6.33,0,0,1,4.61,5.29c.11,1.71.22,3.41.34,5.12Q1709,218.87,1709.26,223Z" opacity=".46"/><g><g><path d="M1639.78,30.42q-13,.58-26,1.2a2.88,2.88,0,0,0-2.66,3q.39,11.55.77,23.1a2.89,2.89,0,0,0,2.89,2.84q13.14-.3,26.28-.57a2.81,2.81,0,0,0,2.66-3l-1-23.72A2.87,2.87,0,0,0,1639.78,30.42Z" class="cls-6"/><path d="M1636.24,30.58l-26,1.21a2.88,2.88,0,0,0-2.67,3q.36,11.52.74,23a2.88,2.88,0,0,0,2.89,2.83q13.13-.3,26.27-.58a2.81,2.81,0,0,0,2.67-3l-1-23.65A2.87,2.87,0,0,0,1636.24,30.58Z" class="cls-10"/><path d="M1629.16,32.43l-11.71.53-.36-10,11.66-.63C1628.89,25.67,1629,29.05,1629.16,32.43Z" class="cls-10"/><path d="M1629.1,30.91l-5.77,1-5.94-.48,11.71-.54Z" class="cls-6"/><path d="M1628.93,24l-11.73,2-.18-4.86,11.66-.64C1628.77,21.7,1628.85,22.86,1628.93,24Z" class="cls-6"/><path d="M1628.93,24l-11.88.63a.87.87,0,0,1-.89-.86l-.06-1.67a.9.9,0,0,1,.82-.95l11.87-.66a.87.87,0,0,1,.89.87l.06,1.68A.89.89,0,0,1,1628.93,24Z" class="cls-13"/></g><g><path d="M1483.72,66.12a4.57,4.57,0,0,0-5-4.54l-1.65.06c0-.39,0-.79,0-1.19l-11.67.49,0,1.19-1.65.06a5.3,5.3,0,0,0-5.16,4.89,4.51,4.51,0,0,0,4.83,4.48.6.6,0,0,0-.15.35c0,1,3.43,1.69,7.72,1.55s7.78-1.07,7.8-2.08a.56.56,0,0,0-.14-.35A5.21,5.21,0,0,0,1483.72,66.12Z" class="cls-12"/><path fill="#51c4e3" d="M1474.85,60.55l-1.39.32-4.34-.08,5.73-.24Z" opacity=".54"/><path d="M1473.47,60.6l-4.35.19.09-3.87a.58.58,0,0,1,.56-.54l3.24-.15a.49.49,0,0,1,.54.49C1473.52,58,1473.5,59.31,1473.47,60.6Z" class="cls-13"/><path d="M1477.82,68l-13.38.49a.81.81,0,0,1-.88-.8c0-.52,0-1,0-1.54a.94.94,0,0,1,.92-.87l13.36-.53a.82.82,0,0,1,.89.82l0,1.55A.94.94,0,0,1,1477.82,68Z" class="cls-13"/></g></g><g><path d="M1329.61,50q-12.48,2.71-25,5.42-10.53-1.72-21-3.38l26.28-5Q1319.72,48.49,1329.61,50Z" class="cls-6"/><path d="M1324.36,49.83v0c-.17.82-6.93,1.94-15.19,2.51s-14.89.41-14.89-.38v0a.12.12,0,0,1,0-.08c.5-.82,7.12-1.91,15.16-2.49s14.55-.41,14.89.36C1324.37,49.78,1324.36,49.8,1324.36,49.83Z" class="cls-18"/><path d="M1322.17,42c-.23,2.43-.45,4.86-.68,7.3-.09,1-6.91,2.19-15.22,2.78s-15,.31-14.85-.64l.78-7.18s0,0,0-.06c.48-.68,7.07-1.69,15.08-2.3s14.51-.59,14.86,0A.13.13,0,0,1,1322.17,42Z" class="cls-16"/><path d="M1322.17,42v0c-.16.67-6.89,1.7-15.12,2.32s-14.84.59-14.86-.07h0s0,0,0-.06c.48-.68,7.07-1.69,15.08-2.3s14.51-.59,14.86,0A.13.13,0,0,1,1322.17,42Z" class="cls-13"/><path d="M1304.61,55.41q-.9,8.93-1.81,17.84-10.54-2.46-21-4.83.91-8.19,1.84-16.39Q1294.09,53.68,1304.61,55.41Z" class="cls-10"/><path d="M1304.61,55.41q-.9,8.93-1.81,17.84,12.75-3.8,25.42-7.63.71-7.82,1.39-15.63Q1317.13,52.71,1304.61,55.41Z" class="cls-15"/><path d="M1317.61,42h0c-.11.47-4.77,1.18-10.48,1.61s-10.29.41-10.3,0h0a.09.09,0,0,1,0,0c.34-.47,4.9-1.17,10.46-1.59s10.06-.41,10.3,0A.09.09,0,0,1,1317.61,42Z" class="cls-20"/><path d="M1322.16,42s0,0,0,.08h0c-.17.27-.55.34-.84.46l-.94.26c-.64.15-1.27.28-1.91.4-1.27.22-2.54.4-3.81.56-2.55.32-5.09.57-7.63.78s-5.06.3-7.57.35c-1.26,0-2.52,0-3.76,0-.63,0-1.24-.05-1.86-.11q-.45,0-.9-.12c-.27-.07-.64-.09-.76-.34h0a.21.21,0,0,1,0-.07.19.19,0,0,0,0,.07c.12.23.49.24.77.3a8.8,8.8,0,0,0,.91.08c.61,0,1.24.05,1.86.05,1.24,0,2.5,0,3.76-.06,2.51-.08,5-.25,7.57-.45s5.06-.39,7.6-.68c1.27-.15,2.54-.31,3.81-.52.63-.09,1.27-.19,1.9-.32.31-.07.63-.14.94-.23s.67-.17.84-.42A.22.22,0,0,0,1322.16,42Z" class="cls-17"/></g><g><g><path d="M1538.88,128.28q-3.21,20.6-6.53,41-7.77-1.57-15.53-3.09-.39-7.86-.77-15.72l-.69-13.9c-.17-3.37-.33-6.74-.5-10.1a2.89,2.89,0,0,1,3.26-2.82q8.93.57,17.85,1.19A3.08,3.08,0,0,1,1538.88,128.28Z" class="cls-10"/><path d="M1532.33,131.48l-11.33-1a1.47,1.47,0,0,0-1.69,1.44q.57,11.56,1.13,23.16a1.78,1.78,0,0,0,1.52,1.56l6.45,1.08a1.39,1.39,0,0,0,1.67-1.07q1.89-11.67,3.75-23.39A1.61,1.61,0,0,0,1532.33,131.48Z" class="cls-11"/><path d="M1530.1,174.88l-11.63-2.52a2.28,2.28,0,0,1-1.88-2.17c.08-1.34.15-2.68.23-4q7.79,1.53,15.6,3.11l-.24,4.2A1.59,1.59,0,0,1,1530.1,174.88Z" class="cls-15"/></g><g><path d="M1511.46,136.35q-5.6-.56-11.18-1.08c-1.81-.17-3.31,1-3.23,2.54q.69,13.27,1.42,26.58l11.29,2.15q2.33-13.41,4.59-26.9A3,3,0,0,0,1511.46,136.35Z" class="cls-10"/><path d="M1509.24,140.82,1502,140a1.39,1.39,0,0,0-1.69,1.31q.4,7.56.8,15.14a1.76,1.76,0,0,0,1.52,1.49l3.9.66a1.35,1.35,0,0,0,1.66-1q1.3-7.53,2.6-15.09A1.59,1.59,0,0,0,1509.24,140.82Z" class="cls-11"/><path d="M1508.16,169.57l-8.44-1.69a1.61,1.61,0,0,1-1.37-1.5l.12-2,11.34,2.16-.12,2.06A1.17,1.17,0,0,1,1508.16,169.57Z" class="cls-15"/></g></g><g><path d="M1705.73,130.88h0c-.41-1.62-2.74-3.1-6.07-3.94l-.33-5.43h0v0c0-.74-2.35-1.43-5.14-1.53s-5,.41-5,1.14h0c.1,1.81.21,3.62.31,5.42-3.17.57-5.43,1.8-5.64,3.34h0l1.65,29.63h0a.8.8,0,0,0,0,.27c.09,1.53,5.12,3.12,11.25,3.57s11-.43,10.92-2a1,1,0,0,0-.08-.28h.06Q1706.67,146,1705.73,130.88Z" class="cls-12"/><path d="M1698.19,121.26c0,.36-1.7.58-3.86.5s-3.92-.44-3.94-.8,1.71-.58,3.86-.5S1698.17,120.9,1698.19,121.26Z" class="cls-13"/><path d="M1703.88,136.38c-.45-.77-4.26-1.56-8.87-1.79s-8.35.18-8.72.9h0l1.32,23.41c0,.8,4.11,2.54,9,2.9s8.82-.83,8.77-1.65q-.74-11.88-1.46-23.76Z" class="cls-13"/><path d="M1686.25,135.49a33.12,33.12,0,0,0,4.44,1,35.74,35.74,0,0,0,4.46.48,32.73,32.73,0,0,0,4.43,0,37,37,0,0,0,4.34-.56c-.71.15-1.41.34-2.13.46s-1.45.23-2.18.29a31.4,31.4,0,0,1-4.45.09,34.22,34.22,0,0,1-4.48-.54A26.91,26.91,0,0,1,1686.25,135.49Z" class="cls-14"/><path d="M1705.38,160.15a34.48,34.48,0,0,0-4.47-1.14,36.63,36.63,0,0,0-4.5-.56,33.21,33.21,0,0,0-4.46,0,37.6,37.6,0,0,0-4.38.48c.71-.14,1.42-.32,2.15-.42s1.46-.2,2.2-.25a31.89,31.89,0,0,1,4.48,0,33.24,33.24,0,0,1,4.51.62A26.84,26.84,0,0,1,1705.38,160.15Z" class="cls-14"/><path d="M1689.45,126.1c1,.08,2,.19,3,.37a28.85,28.85,0,0,0-2.94,0Z" class="cls-13"/><path d="M1699.62,126.9l-3-.25,2.95-.11Z" class="cls-13"/></g><path d="M1630.6,48.2l-5,2.32-6.63-.69-.45-9.24,6.79,2.43,4.61-1.21Q1630.29,45,1630.6,48.2Z" class="cls-13"/><path fill="#429fb8" d="M1473.16,57.55a.68.68,0,0,1-.66.63.58.58,0,0,1-.63-.58.68.68,0,0,1,.66-.63A.58.58,0,0,1,1473.16,57.55Z"/><path fill="#357f94" d="M1473.16,57.78a.42.42,0,0,1-.41.39.34.34,0,0,1-.38-.35.41.41,0,0,1,.4-.39A.36.36,0,0,1,1473.16,57.78Z"/></g><g><polygon points="467.31 200.97 336.1 190.13 336.1 188.13 508.08 186.54 508.08 188.63 467.31 200.97" class="cls-28"/><polygon points="509.17 187.57 524.32 106.52 523.23 105.49 417.19 106.52 403.4 180.4 508.08 188.63 509.17 187.57" class="cls-28"/><polygon points="467.31 200.97 336.1 190.13 336.1 188.13 508.08 186.54 508.08 188.63 467.31 200.97" class="cls-29"/><polygon points="509.17 187.57 524.32 106.52 523.23 105.49 417.19 106.52 403.4 180.4 508.08 188.63 509.17 187.57" class="cls-29"/><polygon points="467.31 197.81 336.1 188.13 402.32 179.37 508.08 186.54 467.31 197.81" class="cls-30"/><polygon fill="#181340" points="470.53 193.03 365.46 186.29 405.32 181.01 495.06 186.25 470.53 193.03" opacity=".24"/><polygon points="508.08 186.54 523.23 105.49 416.11 105.49 402.32 179.37 508.08 186.54" class="cls-30"/><polygon fill="#97b8fc" points="503.92 182.82 517.68 109.21 420.39 109.21 407.87 176.3 503.92 182.82"/><path fill="#5066d6" d="M457.59,129.29l1.09-4.5a1.71,1.71,0,0,0-1.66-2.11H422.3a1.7,1.7,0,0,0-1.67,1.4l-.83,4.45a1.71,1.71,0,0,0,1.68,2h1.64l32.8,0A1.71,1.71,0,0,0,457.59,129.29Z" opacity=".24"/><path fill="none" stroke="#5066d6" stroke-miterlimit="10" d="M452.71,154.94l3.17-16a1.7,1.7,0,0,0-1.66-2.11H419.51a1.7,1.7,0,0,0-1.68,1.39l-2.9,16a1.71,1.71,0,0,0,1.68,2h1.64l32.8,0A1.7,1.7,0,0,0,452.71,154.94Z" opacity=".24"/><path d="M504,156l5.69-30.45A2.71,2.71,0,0,0,507,122.3H465a2.71,2.71,0,0,0-2.67,2.22l-5.47,29.3a2.71,2.71,0,0,0,2.59,3.22l41.77,1.15A2.71,2.71,0,0,0,504,156Z" class="cls-28"/><path d="M502.6,155.46l5.55-29.69a2,2,0,0,0-2-2.35h-40.5a2,2,0,0,0-2,1.62l-5.33,28.58a2,2,0,0,0,1.89,2.35l40.3,1.11A2,2,0,0,0,502.6,155.46Z" class="cls-35"/><line x1="506.52" x2="422.9" y1="112.1" y2="112.1" fill="none" stroke="#fff" stroke-linecap="round" stroke-miterlimit="10" stroke-width="3"/><path d="M513.44,116.7c-7.73.13-15.46.15-23.19.16l-23.18-.11-23.18-.34-11.59-.26-11.59-.36,11.59-.13,11.6,0,23.18.11,23.18.34C498,116.25,505.71,116.42,513.44,116.7Z" class="cls-4"/><circle cx="509.32" cy="112.1" r=".74" class="cls-4"/><circle cx="511.9" cy="112.1" r=".74" class="cls-4"/><circle cx="514.55" cy="112.1" r=".74" class="cls-4"/><g clip-path="url(#clip-path)"><g><path d="M480.1,147.78c-2.35-.08-6.23.42-10-6.46-.64-3.42,1-5.69,1.06-6.36-2,.92-2.53,4.1-2.48,3.61s.45-2.3.44-2.9a4.15,4.15,0,0,0-1.21,3.14,6.23,6.23,0,0,1-.35-1.08c-.39,1.44.17,2.18.64,3.6-.21,1.45,0,6.62,2.83,9.58,1.46,1.36,4,2.33,8.23,2.72C484.87,154.14,485,147.5,480.1,147.78Z" class="cls-38"/><polygon points="464.44 149.13 464.44 149.13 464.44 149.13 464.44 149.13" class="cls-39"/><g><g><g><path d="M477.93,173.36s.06,6.08-.14,7.93a7.8,7.8,0,0,0-4.07.63c-.9.49.08.37,1.3.24.74-.08.19.08-.66.57s-1.31,1.05-1.12,1.32,2.34-1.37,3.44-1.14c.15,0-1.27,1.35-1.5,2.33-.09.65.25.63.63,0s2.26-2.78,2.89-2.41.62.73,1,.6-.14-1-.5-1.42-.58-.56-.51-1,.8-6.77.8-8A4.41,4.41,0,0,0,477.93,173.36Z" class="cls-40"/><g><path d="M478.32,180.94a2.67,2.67,0,0,0,.81,1h0c-.32-.38-.51-.5-.45-.92s.8-6.77.8-8a4.41,4.41,0,0,0-1.57.32l0,5.12C478.52,178.49,478.32,180.81,478.32,180.94Z" class="cls-41"/><path d="M474.47,182c-.49.06-.72,0-.82,0-.78.44.18.32,1.37.2.62-.06.34,0-.27.35l.29-.12C476,181.94,475.92,181.86,474.47,182Z" class="cls-41"/><path d="M479.37,183.06a1.62,1.62,0,0,0-.87-.52c-.15,0-.25-.06-.78.29s-1.88,2.11-2.22,2.34c-.13.09-.22,0-.27-.1a1.09,1.09,0,0,0-.05.17c-.09.65.25.63.63,0s2.26-2.78,2.89-2.41.62.73,1,.6a.17.17,0,0,0,.08-.06A.79.79,0,0,1,479.37,183.06Z" class="cls-41"/><path d="M476.46,182.65a7.52,7.52,0,0,0-2.7.93c-.27.15-.4.13-.46,0a.4.4,0,0,0-.06.43c.19.28,2.34-1.37,3.44-1.14,0,0,0,.1-.14.25C476.81,182.87,476.87,182.63,476.46,182.65Z" class="cls-41"/></g><path d="M476.64,181.46a11.79,11.79,0,0,0-2.21.43c-.45.13-.19-.18.93-.4S477.16,181.39,476.64,181.46Z" class="cls-42"/><path d="M475.36,182.54a6.9,6.9,0,0,0-1.63.91c-.19.18-.1-.16.58-.57S475.64,182.4,475.36,182.54Z" class="cls-42"/><path d="M476.93,183.18a7,7,0,0,0-1.19,1.43c-.1.23-.14-.11.34-.74S477.14,183,476.93,183.18Z" class="cls-42"/></g><g class="cls-43"><path d="M478.07,178.89s-.05,1.09,0,1.92c0,.63-.07.35-.1-.55S478.07,178.56,478.07,178.89Z" class="cls-41"/></g></g><path d="M480.83,173.56s-5.57,5-6.19-9.15,7.31-6.93,7.31-6.93S484.84,164.07,480.83,173.56Z" class="cls-44"/></g><g><g><g><path d="M487,172.82s-.06,6.08.14,7.93a7.91,7.91,0,0,1,4.07.63c.9.49-.08.37-1.3.25-.74-.08-.19.07.66.56s1.31,1.05,1.12,1.33-2.34-1.38-3.44-1.15c-.15,0,1.27,1.35,1.5,2.34.09.65-.25.62-.63,0s-2.26-2.78-2.89-2.42-.62.74-1,.6.14-1,.5-1.42.58-.55.51-1-.8-6.77-.8-8A4.66,4.66,0,0,1,487,172.82Z" class="cls-40"/><g><path d="M486.65,180.4a2.67,2.67,0,0,1-.81,1l0,0c.33-.38.52-.51.46-.93s-.8-6.77-.8-8a4.66,4.66,0,0,1,1.57.32l0,5.12C486.45,178,486.65,180.27,486.65,180.4Z" class="cls-41"/><path d="M490.5,181.47a1.32,1.32,0,0,0,.82-.05c.78.45-.18.33-1.37.21-.62-.07-.34,0,.27.35l-.29-.13C489,181.4,489.05,181.32,490.5,181.47Z" class="cls-41"/><path d="M485.6,182.52a1.65,1.65,0,0,1,.87-.52c.15,0,.24-.06.78.29s1.88,2.11,2.22,2.35c.13.08.22,0,.27-.11a1.21,1.21,0,0,1,.05.18c.09.65-.25.62-.63,0s-2.26-2.78-2.89-2.42-.62.74-1,.6a.18.18,0,0,1-.09-.06A.81.81,0,0,0,485.6,182.52Z" class="cls-41"/><path d="M488.51,182.12a7.52,7.52,0,0,1,2.7.93c.27.14.4.12.46,0a.41.41,0,0,1,.06.44c-.19.28-2.34-1.38-3.44-1.15,0,0,0,.1.14.25C488.16,182.34,488.1,182.09,488.51,182.12Z" class="cls-41"/></g><path d="M488.33,180.92a11.79,11.79,0,0,1,2.21.43c.45.14.19-.17-.94-.4S487.8,180.85,488.33,180.92Z" class="cls-42"/><path d="M489.61,182a6.71,6.71,0,0,1,1.63.92c.19.17.1-.16-.58-.57S489.33,181.87,489.61,182Z" class="cls-42"/><path d="M488,182.64a6.66,6.66,0,0,1,1.18,1.44c.11.23.15-.12-.33-.74S487.83,182.41,488,182.64Z" class="cls-42"/></g><g class="cls-43"><path d="M486.89,178.35s.06,1.09.05,1.92c0,.64.07.35.1-.54S486.9,178,486.89,178.35Z" class="cls-41"/></g></g><path d="M484.14,173s5.57,5,6.19-9.14S483,157,483,157,480.13,163.54,484.14,173Z" class="cls-44"/></g><path d="M488.43,174.65s-5.57,5-6.19-9.14,7.31-6.93,7.31-6.93S492.45,165.17,488.43,174.65Z" class="cls-41"/><path d="M477.11,147c-4.84,4.95-4.95,15.35-.55,20.82a10.93,10.93,0,0,0,16.74.92,14.59,14.59,0,0,0,.82-18.88C489.72,144.35,482,142,477.11,147Z" class="cls-41"/><path d="M479.88,166.8c.57-.63-7.1-6.75-2.53-8.43,2.5-.92.62,11.5,13.62,12.19-4.47,3.3-12.63,1.41-15.84-5-1.54-2.25-1.76-6.3-1.76-8.4C473.37,154.7,476.08,169.21,479.88,166.8Z" class="cls-45"/><path d="M486.16,152.3c.63,2.26,2.28,5.81-3.15,11.44-3.06,1.65-5.71.8-6.38.91,1.49,1.67,4.67,1.18,4.19,1.27s-2.32.28-2.9.47a4.11,4.11,0,0,0,3.36.2,5.88,5.88,0,0,1-.92.66c1.49-.06,2-.82,3.24-1.7,1.44-.24,6.3-2,8.28-5.6.85-1.79,1-4.53.1-8.65C490.78,145.83,484.42,147.73,486.16,152.3Z" class="cls-38"/><path d="M489.48,149.31c-.68,1.78-3,2.35-4.84.69-.68.61-4.29,2.84-5.3-1.44a5.78,5.78,0,0,1-3.79.44,3.68,3.68,0,0,0,3.62.54c1,4.14,4.79,1.74,5.47,1.13,1.8,1.65,3.88,1.18,4.56-.59a3.47,3.47,0,0,0,4.47-1.12A3.38,3.38,0,0,1,489.48,149.31Z" class="cls-45"/><g><path d="M479.6,149.16a2.33,2.33,0,0,0,1.31,2c1.3.65,3.06-.41,3.74-1,1.79,1.65,4.11,1.1,4.79-.68a3.68,3.68,0,0,0,4.73-.9,3.34,3.34,0,0,0-.4-.25c-4.7-2.62-3.93-8.53-4.27-10.46-.45-8.28-7.93-5.78-7.93-5.78a6.64,6.64,0,0,0-4.1,5.07c1,7.07-.61,8-2.71,11.46C475.62,149.27,478.62,149.73,479.6,149.16Z" class="cls-41"/><path d="M480.56,141.73s1.56,4.42-1.52,6.9a5.12,5.12,0,0,0,.26,1.35c.25.77,2.21-1.89,2.21-1.89S483.12,141.5,480.56,141.73Z" class="cls-45"/><path d="M493.77,148.34c-4-2.24-4.11-6.72-4.24-10.17-.25-7.08-5.79-7.19-8-6.07a8.5,8.5,0,0,0-3,2.13,6.9,6.9,0,0,0-.85,2.05c-.12,3.06,3.33,2.24,2.05,5a5.4,5.4,0,0,1-.59,7.5,3.57,3.57,0,0,0,1.61,2.56c1.51.71,3.14-.53,3.82-1.14,1.79,1.65,4.11,1.1,4.79-.68a3.68,3.68,0,0,0,4.73-.9A3.34,3.34,0,0,0,493.77,148.34Z" class="cls-40"/><g><path d="M482.64,131.45h0c-.56.07-.64.43-1.07.65a1.85,1.85,0,0,1-1.06-2.5c.6-1.19,2.63-.1,2.75.2-.87-1.8.2-6.16,4.12-4.32a3.56,3.56,0,0,1,.66.43c4.29,3.55,3,6.73,2.88,8.29.46-.14,1.71-3.51,2.81-1.18.9,1.88-2.56,4.66-4.23,4.86C489.06,135.3,485.49,131.1,482.64,131.45Z" class="cls-46"/><path d="M483.05,131.66h0a4.35,4.35,0,0,0-1.48.44,1.91,1.91,0,0,1-.86-2.29c.68-1.45,2.43-.31,2.55,0-.63-1.82.6-6,4.52-4.11a2.88,2.88,0,0,1,.66.43c4.3,3.54,2.72,6.84,2.61,8.39.45-.13,1.94-4,2.79-1.18.61,2-2.65,4.63-4.31,4.84C489.08,135.59,485.89,131.3,483.05,131.66Z" class="cls-47"/></g></g><g><circle cx="483.73" cy="141.75" r="2.09" class="cls-48"/><g><ellipse cx="479.25" cy="137.46" class="cls-49" rx="3.26" ry="2.37" transform="translate(279.5 594.27) rotate(-82.39)"/><ellipse cx="479.07" cy="137.44" class="cls-50" rx="2.87" ry="2.09" transform="translate(279.37 594.07) rotate(-82.39)"/></g><g><path d="M476.67,135.68s3.11-1.56,5.48,2.87c.41.79-.25-7.93-4.69-3.7C477,134.65,476.41,135.23,476.67,135.68Z" class="cls-41"/><path d="M476.67,135.68s2.63-1.11,5.28,2.91c1.08,1.84.14-7.79-4.48-3.65C477,134.74,476.43,135.41,476.67,135.68Z" class="cls-51"/><path d="M477.61,135a3.59,3.59,0,0,1,1.3.11l.63.21.3.14.29.17a2.75,2.75,0,0,1,.28.19,1.89,1.89,0,0,1,.27.2l.26.23.24.24.12.13.11.13.21.27.1.14.09.15.19.29a.07.07,0,0,1,0,.09.05.05,0,0,1-.08,0h0l-.19-.29-.09-.14a.71.71,0,0,0-.1-.14l-.21-.27a1.13,1.13,0,0,0-.1-.13l-.12-.13-.23-.24-.25-.22a2.65,2.65,0,0,0-.26-.21c-.09-.06-.17-.13-.27-.19a4.9,4.9,0,0,0-1.19-.54A4.05,4.05,0,0,0,477.61,135Z" class="cls-41"/></g><polygon points="487.4 145.82 487.4 145.82 487.4 145.82 487.4 145.82" class="cls-52"/><g><ellipse cx="483.17" cy="138.41" class="cls-49" rx="3.26" ry="2.66" transform="translate(281.96 598.98) rotate(-82.39)"/><ellipse cx="482.96" cy="138.39" class="cls-50" rx="2.87" ry="2.34" transform="translate(281.81 598.76) rotate(-82.39)"/></g><g><path d="M480.44,136.76s3.51-1.63,6.19,3c.47.83-.28-8.3-5.3-3.87C480.76,135.69,480.15,136.29,480.44,136.76Z" class="cls-41"/><path d="M480.44,136.76s3-1.16,6,3.05c1.21,1.93.15-8.16-5.07-3.83C480.77,135.78,480.17,136.48,480.44,136.76Z" class="cls-51"/><path d="M481.5,136a4.56,4.56,0,0,1,1.47.13,4.48,4.48,0,0,1,.71.22l.34.14.33.18a2.8,2.8,0,0,1,.32.2,2,2,0,0,1,.3.21l.29.23.27.26.14.13.12.14.24.28.11.15.11.16.21.3a.07.07,0,0,1,0,.09.06.06,0,0,1-.08,0h0l-.21-.3-.1-.15-.11-.15-.24-.28-.11-.13-.13-.13-.26-.26-.29-.23a3.15,3.15,0,0,0-.29-.22c-.11-.06-.2-.14-.31-.19a5.37,5.37,0,0,0-1.35-.57A5.07,5.07,0,0,0,481.5,136Z" class="cls-41"/></g><ellipse cx="482.52" cy="139.45" class="cls-53" rx=".88" ry=".81" transform="translate(287.59 602.34) rotate(-83.28)"/><ellipse cx="478.19" cy="138.35" class="cls-53" rx=".88" ry=".81" transform="translate(284.85 597.07) rotate(-83.28)"/><polygon points="477.26 142 480.93 143.49 482.01 141.6 477.26 142" class="cls-54"/><g><polygon points="485.53 146.03 485.53 146.03 485.52 146.03 485.53 146.03" class="cls-55"/><path d="M480.5,138.67s-.81,1.34-4,3.4c0,0,3.34.07,3.72,0l2.26-.47A2.88,2.88,0,0,1,480.5,138.67Z" class="cls-56"/></g></g></g></g><path d="M501.25,154.7v-.12a1.05,1.05,0,0,0-1-1.22l-38.8-1a1.07,1.07,0,0,0-1.07.87h0a1.06,1.06,0,0,0,1,1.26l38.79,1.07A1.08,1.08,0,0,0,501.25,154.7Z" class="cls-57"/><path d="M501.25,154.7v-.12a1.05,1.05,0,0,0-1-1.22l-38.8-1a1.07,1.07,0,0,0-1.07.87h0a1.06,1.06,0,0,0,1,1.26l38.79,1.07A1.08,1.08,0,0,0,501.25,154.7Z" class="cls-57"/></g><g><path fill="none" stroke="#181340" stroke-miterlimit="10" stroke-width=".5" d="M566.55,168a8.16,8.16,0,0,1,6.91,6.47,10.88,10.88,0,0,1-2.83,9.35,16.71,16.71,0,0,1-8.79,4.75,36,36,0,0,1-10.1.49,113.49,113.49,0,0,1-19.54-3.14,13.74,13.74,0,0,1-5.28-2.13,2.33,2.33,0,0,1-1-1.29c-.27-1.33,1.37-2.2,2.72-2.38a13.12,13.12,0,0,1,7.69,1.36c1.07.56,2.2,1.73,1.65,2.8a2.27,2.27,0,0,1-1.77,1,9.38,9.38,0,0,1-6.94-1.67c-.43-.32-.87-.83-.64-1.31a1.16,1.16,0,0,1,.81-.5,5.36,5.36,0,0,1,3.78.55,1.25,1.25,0,0,1,.68.73c.21.89-1.13,1.2-2,1.07-3.2-.45-6.44-.75-9.62-1.35-10.73-2,2.15,7.55-19.38,6.93"/><path d="M557,159.79a12.67,12.67,0,0,0,6.91,0,28.53,28.53,0,0,0-6.91,0Z" class="cls-59"/><polygon points="559.87 155.29 560.82 155.38 560.83 159.93 559.87 159.82 559.87 155.29" class="cls-59"/><polygon points="571.34 208.14 573.02 207.46 560.04 175.31 530.55 192.93 531.47 194.48 559.15 177.94 571.34 208.14" class="cls-28"/><rect width="1.81" height="25.46" x="570.21" y="169.95" class="cls-28" transform="translate(140.3 599.74) rotate(-61.81)"/><g class="cls-60"><path d="M551.65,180.32l8.39-5,2.78,6.89c-.72-.19-1.44-.37-2.17-.54l-1.5-3.72-5,3C553.29,180.78,552.47,180.56,551.65,180.32Z" class="cls-59"/></g><g class="cls-60"><path d="M566.91,180.32a1.68,1.68,0,0,0-1,.58l-6.42-3.44.85-1.59,8,4.29C567.85,180.2,567.38,180.24,566.91,180.32Z" class="cls-59"/></g><path d="M558.13,172.54l7.17.92a2.36,2.36,0,0,1,2.06,2.35v2.26c0,1.44-4.33,2.86-5.75,2.66l-4.11-2.06a2.36,2.36,0,0,1-2-2.35l-2.13-2.24C554.72,173.28,556.71,172.36,558.13,172.54Z" class="cls-61"/><path d="M566,174.42c-.79-.79-2.37-.53-3.22-.79a.31.31,0,0,0,.2-.46l2.28.29a2.36,2.36,0,0,1,2.06,2.35v2.26c0,.55-.64,1.1-1.51,1.56A3.71,3.71,0,0,0,566,174.42Z" class="cls-59"/><path d="M563.89,159.79a42.22,42.22,0,0,1-6.91,0v13.7s2,.79,6.8,0Z" class="cls-61"/><path d="M562.82,159.86c.6,0,1.07-.07,1.07-.07l-.11,13.7-1,.14Z" class="cls-59"/><path d="M558.3,159.9v13.85a5.52,5.52,0,0,1-1.32-.27V159.79C557.41,160,557.85,159.8,558.3,159.9Z" class="cls-28"/><path d="M555.06,173.61l7.17.92a2.39,2.39,0,0,1,2.07,2.35v1.51a2.36,2.36,0,0,1-2.69,2.34l-7.17-1a2.36,2.36,0,0,1-2.05-2.34V176A2.37,2.37,0,0,1,555.06,173.61Z" class="cls-28"/><path d="M565.51,169.21h-2a.27.27,0,0,1-.27-.27v-1.8a.28.28,0,0,1,.28-.27l2,0a1,1,0,0,1,.74,1v.48C566.24,168.89,565.91,169.26,565.51,169.21Z" class="cls-61"/><path d="M566,168.58h.75a.51.51,0,0,0,.5-.58h0a.51.51,0,0,0-.51-.44H566a.52.52,0,0,0-.5.58h0A.5.5,0,0,0,566,168.58Z" class="cls-59"/><path d="M566.11,168.58h.75a.51.51,0,0,0,.5-.58h0a.51.51,0,0,0-.51-.44h-.75a.52.52,0,0,0-.5.58h0A.5.5,0,0,0,566.11,168.58Z" class="cls-61"/><path d="M555.44,152.39l10.77,1v2.25c0,.69-.75,1.25-2.22,1.15l-7.52-.87a1.15,1.15,0,0,1-1-1.15Z" class="cls-59"/><polygon points="549.42 143.33 572.23 145.23 568.54 153.34 567.46 153.65 552.74 152.13 549.42 143.33" class="cls-59"/><path d="M554.5,152.39l10.77,1v2.25a1.15,1.15,0,0,1-1.27,1.15l-8.46-.87a1.15,1.15,0,0,1-1-1.15Z" class="cls-61"/><polygon points="548.48 143.33 571.28 145.23 567.46 153.65 551.79 152.13 548.48 143.33" class="cls-61"/><path d="M563.86,23.87c28.8-.23,51.93,24.63,52.17,61.22s-24.31,63.76-52.11,61.36-50.17-29.57-50-60.68S536.33,24.09,563.86,23.87ZM525.3,85.63c-.12,24.52,17.17,45.52,38.61,46.89s38.72-20,38.57-47.83-17.43-48.8-38.61-46.9S525.42,61.11,525.3,85.63Z" class="cls-59"/><polygon points="558.36 141.87 561.41 142.14 561.39 116.97 558.35 116.88 558.36 141.87" class="cls-59"/><path fill="#bdc2fc" d="M559.83,23.85c27.35-3.08,49.72,24.09,50,60.68s-22.11,64.3-49.91,61.9-50.17-29.57-50-60.68S532.47,26.93,559.83,23.85ZM521.26,85.62c-.12,24.52,17.17,45.51,38.62,46.89s38.71-20,38.57-47.84S581,35.88,559.83,37.78,521.38,61.09,521.26,85.62Z"/><path d="M528.56,195.33h0a1.25,1.25,0,0,1,.23-1.72l5-3.06a1.22,1.22,0,0,1,1.63.57h0a1.24,1.24,0,0,1-.24,1.72l-5,3.06A1.23,1.23,0,0,1,528.56,195.33Z" class="cls-59"/><path d="M579,186.75h0a1,1,0,0,0,.13,1.56l4.84,2.83a1.38,1.38,0,0,0,1.7-.5h0a1,1,0,0,0-.13-1.56l-4.85-2.84A1.38,1.38,0,0,0,579,186.75Z" class="cls-59"/><rect width="2.77" height="8.3" x="570.8" y="203.65" class="cls-59" rx="1.38" transform="translate(1180.91 203.41) rotate(159.63)"/><path fill="#2f2696" d="M558.82,121.61l2.76.23a1.22,1.22,0,0,0,1.32-1.21V114h-5.19v6.42A1.22,1.22,0,0,0,558.82,121.61Z"/><path d="M558.39,121.61l2.75.23a1.22,1.22,0,0,0,1.32-1.21V114h-5.19v6.42A1.22,1.22,0,0,0,558.39,121.61Z" class="cls-64"/><polygon fill="#2f2591" points="562.46 119.82 562.46 113.98 557.27 113.98 557.27 119.01 562.46 119.82"/><g><path d="M550.55,118.11l21.72.9a1.54,1.54,0,0,0,1.39-1.7l-.35-59.91c0-2-1.32-3.61-2.95-3.49l-18.8,1.41c-1.63.12-2.32,1.68-2.33,3.65l-.06,57.43A1.6,1.6,0,0,0,550.55,118.11Z" class="cls-64"/><path d="M549,118.27l21.71.67a1.54,1.54,0,0,0,1.39-1.69L572,57.5c0-2-1.33-3.62-3-3.5l-18.39,1.35c-1.63.12-2.95,1.81-2.95,3.78l-.07,57.43A1.61,1.61,0,0,0,549,118.27Z" class="cls-59"/><path d="M548.45,59.84l-.06,55.09a1.85,1.85,0,0,0,1.61,2l19.73.57a1.78,1.78,0,0,0,1.61-2l-.11-57.17c0-2.05-1.33-3.61-3-3.5l-1.62.12v.58a1.51,1.51,0,0,1-1.2,1.59l-10.19.72a1.25,1.25,0,0,1-1.2-1.39v-.57l-2.66.16C549.77,56.17,548.45,57.87,548.45,59.84Z" class="cls-64"/><path d="M550.69,115.11l18.41.47a1.39,1.39,0,0,0,1.26-1.53l-.07-54.67A1.33,1.33,0,0,0,569,57.9l-18.29,1.15a1.53,1.53,0,0,0-1.25,1.59l-.06,52.92A1.44,1.44,0,0,0,550.69,115.11Z" class="cls-35"/><path d="M559.32,56.63l4.86-.34a.57.57,0,0,0,.45-.6h0a.49.49,0,0,0-.45-.54l-4.86.35a.58.58,0,0,0-.46.6h0A.48.48,0,0,0,559.32,56.63Z" class="cls-66"/><path d="M556.78,56.25c0,.31.2.54.45.52a.56.56,0,0,0,.46-.59.48.48,0,0,0-.46-.53A.57.57,0,0,0,556.78,56.25Z" class="cls-66"/><path d="M559.08,56.63l4.85-.34a.58.58,0,0,0,.46-.6h0a.49.49,0,0,0-.46-.54l-4.85.35a.57.57,0,0,0-.46.6h0C558.62,56.41,558.82,56.65,559.08,56.63Z" class="cls-64"/><path d="M556.53,56.25a.47.47,0,0,0,.46.52.55.55,0,0,0,.45-.59.48.48,0,0,0-.45-.53A.58.58,0,0,0,556.53,56.25Z" class="cls-64"/><rect width=".59" height="8.92" x="572.36" y="59.27" class="cls-66" rx=".29" transform="translate(1145.31 127.46) rotate(-180)"/><rect width="1.1" height=".33" x="572.11" y="62.99" class="cls-64" transform="translate(1145.32 126.32) rotate(-180)"/></g><path fill="#181340" d="M503.2,190.31h-2.28v-1.25h2.28a.63.63,0,0,1,.63.63h0A.63.63,0,0,1,503.2,190.31Z"/><ellipse cx="561.41" cy="31.05" class="cls-68" rx="2.76" ry="3.7"/><ellipse cx="560.06" cy="139.63" class="cls-68" rx="2.76" ry="3.7"/><ellipse cx="604.37" cy="86.02" class="cls-68" rx="3.7" ry="2.76"/><ellipse cx="516.22" cy="84.66" class="cls-68" rx="3.7" ry="2.76"/><ellipse cx="589.13" cy="127.32" class="cls-68" rx="2.76" ry="3.7" transform="translate(36.48 367.87) rotate(-35.72)"/><ellipse cx="531.18" cy="45.32" class="cls-68" rx="2.76" ry="3.7" transform="translate(73.45 318.62) rotate(-35.72)"/><ellipse cx="527.98" cy="122.35" class="cls-68" rx="3.7" ry="2.76" transform="translate(92.1 444.43) rotate(-49.51)"/><ellipse cx="593.06" cy="48.41" class="cls-68" rx="3.7" ry="2.76" transform="translate(171.15 468) rotate(-49.51)"/><ellipse cx="561.55" cy="30.04" class="cls-69" rx="2.76" ry="3.7"/><ellipse cx="560.2" cy="138.62" class="cls-69" rx="2.76" ry="3.7"/><ellipse cx="604.51" cy="85.01" class="cls-69" rx="3.7" ry="2.76"/><ellipse cx="516.36" cy="83.66" class="cls-69" rx="3.7" ry="2.76"/><ellipse cx="589.27" cy="126.31" class="cls-69" rx="2.76" ry="3.7" transform="translate(37.1 367.76) rotate(-35.72)"/><ellipse cx="531.32" cy="44.32" class="cls-69" rx="2.76" ry="3.7" transform="translate(74.06 318.51) rotate(-35.72)"/><ellipse cx="528.12" cy="121.34" class="cls-69" rx="3.7" ry="2.76" transform="translate(92.91 444.18) rotate(-49.51)"/><ellipse cx="593.2" cy="47.4" class="cls-69" rx="3.7" ry="2.76" transform="translate(171.96 467.75) rotate(-49.51)"/><path d="M509.92,85.75c-.2,31.11,22.17,58.28,50,60.68a39.26,39.26,0,0,0,4.32.13c-.8,0-1.61-.06-2.43-.13-27.79-2.4-50.16-29.57-50-60.68s22.55-58.82,49.91-61.9c1.1-.12,2.18-.2,3.26-.22a37.25,37.25,0,0,0-5.15.22C532.47,26.93,510.12,54.65,509.92,85.75Z" class="cls-4"/><g clip-path="url(#clip-path-2)"><g><path d="M557.57,97.08c-3.44-.12-9.13.61-14.6-9.48-1-5,1.41-8.33,1.56-9.32-3,1.35-3.73,6-3.64,5.3s.65-3.37.64-4.26a6,6,0,0,0-1.77,4.61,8.93,8.93,0,0,1-.52-1.59c-.57,2.12.26,3.2,1,5.28-.31,2.13,0,9.72,4.15,14.06,2.12,2,5.88,3.42,12,4C564.56,106.41,564.73,96.67,557.57,97.08Z" class="cls-38"/><polygon points="534.6 99.07 534.6 99.07 534.6 99.07 534.6 99.07" class="cls-39"/><g><g><g><path d="M554.39,134.6s.09,8.91-.2,11.63a11.47,11.47,0,0,0-6,.92c-1.33.72.11.54,1.91.36,1.08-.12.27.11-1,.83s-1.91,1.54-1.64,1.94,3.44-2,5-1.67c.22,0-1.86,2-2.2,3.42-.13.95.36.92.92,0s3.31-4.09,4.24-3.55.91,1.08,1.48.88-.2-1.44-.73-2.08-.85-.81-.75-1.47,1.17-9.93,1.18-11.7A6.56,6.56,0,0,0,554.39,134.6Z" class="cls-40"/><g><path d="M555,145.71a3.9,3.9,0,0,0,1.19,1.46l0,0c-.48-.56-.76-.74-.67-1.36s1.17-9.93,1.18-11.7a6.56,6.56,0,0,0-2.31.47l0,7.51C555.26,142.12,555,145.52,555,145.71Z" class="cls-41"/><path d="M549.31,147.28a2,2,0,0,1-1.19-.07c-1.15.65.26.48,2,.3.91-.09.49.05-.4.51a3.46,3.46,0,0,0,.43-.17C551.57,147.18,551.45,147.07,549.31,147.28Z" class="cls-41"/><path d="M556.51,148.82a2.51,2.51,0,0,0-1.28-.76c-.22,0-.36-.09-1.15.42-.6.39-2.76,3.1-3.26,3.44-.19.13-.31,0-.38-.15a1.29,1.29,0,0,0-.08.26c-.13.95.36.92.92,0s3.31-4.09,4.24-3.55.91,1.08,1.48.88a.3.3,0,0,0,.13-.09C556.94,149.27,556.74,149.1,556.51,148.82Z" class="cls-41"/><path d="M552.23,148.23a11,11,0,0,0-4,1.36c-.4.21-.6.19-.68.06-.16.25-.2.48-.09.63.28.41,3.44-2,5-1.67.05,0,0,.14-.21.36C552.75,148.55,552.84,148.19,552.23,148.23Z" class="cls-41"/></g><path d="M552.5,146.48a17.24,17.24,0,0,0-3.24.63c-.67.2-.29-.26,1.37-.59S553.27,146.38,552.5,146.48Z" class="cls-42"/><path d="M550.62,148.07a10,10,0,0,0-2.39,1.33c-.27.26-.14-.23.86-.83S551,147.86,550.62,148.07Z" class="cls-42"/><path d="M552.92,149a9.84,9.84,0,0,0-1.73,2.11c-.16.34-.22-.17.49-1.09S553.24,148.66,552.92,149Z" class="cls-42"/></g><g class="cls-43"><path d="M554.6,142.71s-.08,1.6-.07,2.81c0,.93-.09.52-.13-.79S554.6,142.23,554.6,142.71Z" class="cls-41"/></g></g><path d="M558.65,134.89s-8.18,7.3-9.08-13.41,10.72-10.17,10.72-10.17S564.53,121,558.65,134.89Z" class="cls-44"/></g><g><g><g><path d="M567.75,133.82s-.08,8.91.2,11.63a11.45,11.45,0,0,1,6,.92c1.33.72-.11.54-1.91.36-1.08-.12-.27.1,1,.83s1.91,1.53,1.64,1.94-3.44-2-5-1.68c-.22.06,1.85,2,2.2,3.42.12,1-.37.92-.93,0s-3.31-4.08-4.24-3.55-.91,1.09-1.48.89.21-1.44.73-2.09.85-.81.75-1.46-1.16-9.93-1.17-11.7A6.32,6.32,0,0,1,567.75,133.82Z" class="cls-40"/><g><path d="M567.17,144.93a3.86,3.86,0,0,1-1.18,1.45l0,0c.47-.57.76-.75.66-1.36s-1.16-9.93-1.17-11.7a6.32,6.32,0,0,1,2.3.47l0,7.5C566.88,141.34,567.18,144.74,567.17,144.93Z" class="cls-41"/><path d="M572.83,146.49c.71.09,1,0,1.2-.07,1.14.66-.27.49-2,.31-.9-.1-.48,0,.41.51l-.44-.18C570.57,146.4,570.69,146.28,572.83,146.49Z" class="cls-41"/><path d="M565.63,148a2.44,2.44,0,0,1,1.28-.76c.22-.05.37-.09,1.15.42.6.39,2.76,3.1,3.26,3.44.19.13.31,0,.39-.16,0,.09.06.18.08.26.12,1-.37.92-.93,0s-3.31-4.08-4.24-3.55-.91,1.09-1.48.89a.27.27,0,0,1-.12-.09A1.19,1.19,0,0,0,565.63,148Z" class="cls-41"/><path d="M569.91,147.45a11,11,0,0,1,4,1.36c.41.21.6.18.68.05.16.26.2.48.09.64-.28.41-3.44-2-5-1.68-.06,0,0,.15.21.36C569.39,147.77,569.3,147.41,569.91,147.45Z" class="cls-41"/></g><path d="M569.64,145.7a17.73,17.73,0,0,1,3.24.62c.67.2.29-.26-1.37-.58S568.87,145.59,569.64,145.7Z" class="cls-42"/><path d="M571.53,147.28a10.17,10.17,0,0,1,2.38,1.34c.27.26.14-.23-.85-.83S571.12,147.08,571.53,147.28Z" class="cls-42"/><path d="M569.22,148.21a10.07,10.07,0,0,1,1.74,2.11c.16.34.21-.17-.5-1.09S568.91,147.88,569.22,148.21Z" class="cls-42"/></g><g class="cls-43"><path d="M567.54,141.92s.08,1.6.07,2.82c0,.93.09.51.14-.8S567.54,141.44,567.54,141.92Z" class="cls-41"/></g></g><path d="M563.49,134.11s8.18,7.3,9.09-13.42-10.73-10.16-10.73-10.16S557.61,120.19,563.49,134.11Z" class="cls-44"/></g><path d="M569.8,136.5s-8.18,7.3-9.09-13.42,10.73-10.16,10.73-10.16S575.68,122.58,569.8,136.5Z" class="cls-41"/><path d="M553.2,95.87c-7.12,7.28-7.27,22.52-.82,30.54s17.44,8.63,24.55,1.36,7.65-19.67,1.21-27.69S560.31,88.6,553.2,95.87Z" class="cls-41"/><path d="M557.24,125c.85-.93-10.41-9.91-3.7-12.38,3.66-1.35.91,16.87,20,17.89-6.56,4.83-18.52,2.06-23.24-7.38-2.26-3.3-2.58-9.24-2.58-12.32C547.7,107.24,551.67,128.51,557.24,125Z" class="cls-45"/><path d="M566.46,103.71c.93,3.32,3.34,8.53-4.62,16.78-4.49,2.42-8.37,1.18-9.36,1.34,2.19,2.45,6.86,1.73,6.15,1.87s-3.41.4-4.25.68a6.06,6.06,0,0,0,4.93.29,9.27,9.27,0,0,1-1.36,1c2.19-.09,3-1.21,4.75-2.5,2.12-.34,9.24-3,12.14-8.2,1.25-2.63,1.48-6.64.15-12.7C573.24,94.23,563.9,97,566.46,103.71Z" class="cls-38"/><path d="M571.34,99.33c-1,2.6-4.47,3.44-7.11,1-1,.89-6.29,4.15-7.78-2.12-1.48.48-3.47,1.37-5.55.65,1.39,1.08,3.87,1.62,5.31.78,1.48,6.07,7,2.56,8,1.66,2.64,2.43,5.69,1.74,6.69-.87a5.1,5.1,0,0,0,6.56-1.63C576.4,99.79,574.45,101,571.34,99.33Z" class="cls-45"/><g><path d="M556.84,99.11a3.41,3.41,0,0,0,1.92,3c1.9,1,4.48-.6,5.48-1.49,2.64,2.43,6,1.61,7-1a5.39,5.39,0,0,0,6.93-1.33,5.72,5.72,0,0,0-.58-.37c-6.89-3.84-5.76-12.51-6.26-15.33-.66-12.15-11.63-8.49-11.63-8.49a9.74,9.74,0,0,0-6,7.44c1.51,10.37-.9,11.69-4,16.81C551,99.28,555.4,100,556.84,99.11Z" class="cls-41"/><path d="M558.25,88.21s2.29,6.48-2.23,10.12a7.32,7.32,0,0,0,.38,2c.37,1.13,3.24-2.77,3.24-2.77S562,87.87,558.25,88.21Z" class="cls-45"/><path d="M577.62,97.9c-5.88-3.28-6-9.85-6.22-14.91-.37-10.39-8.49-10.55-11.67-8.91a12.69,12.69,0,0,0-4.35,3.13,10.45,10.45,0,0,0-1.24,3c-.18,4.49,4.88,3.29,3,7.29a7.94,7.94,0,0,1-.87,11,5.22,5.22,0,0,0,2.37,3.75c2.21,1,4.59-.78,5.59-1.67,2.64,2.43,6,1.61,7-1a5.37,5.37,0,0,0,6.93-1.32A5.72,5.72,0,0,0,577.62,97.9Z" class="cls-40"/><g><path d="M561.3,73.14h0c-.82.1-.95.62-1.57.94a2.7,2.7,0,0,1-1.55-3.66c.88-1.75,3.85-.15,4,.29-1.27-2.64.29-9,6-6.33a5.13,5.13,0,0,1,1,.63c6.31,5.21,4.4,9.87,4.23,12.16.67-.2,2.51-5.15,4.13-1.74,1.31,2.76-3.76,6.83-6.21,7.14C570.71,78.78,565.48,72.62,561.3,73.14Z" class="cls-46"/><path d="M561.89,73.44h0a6.36,6.36,0,0,0-2.16.64c-1-.76-1.93-1.92-1.26-3.35,1-2.13,3.56-.46,3.74,0-.92-2.66.88-8.73,6.63-6a5.21,5.21,0,0,1,1,.63c6.3,5.2,4,10,3.82,12.31.67-.19,2.84-5.88,4.1-1.73.88,2.93-3.89,6.79-6.33,7.1C570.74,79.2,566.07,72.92,561.89,73.44Z" class="cls-47"/></g></g><g><circle cx="562.9" cy="88.25" r="3.06" class="cls-48"/><g><ellipse cx="556.32" cy="81.95" class="cls-49" rx="4.78" ry="3.48" transform="translate(401.38 622.51) rotate(-82.39)"/><ellipse cx="556.06" cy="81.92" class="cls-50" rx="4.21" ry="3.07" transform="translate(401.19 622.22) rotate(-82.39)"/></g><g><path d="M552.54,79.34s4.57-2.29,8,4.2c.61,1.16-.36-11.63-6.88-5.42C553,77.83,552.16,78.68,552.54,79.34Z" class="cls-41"/><path d="M552.54,79.34s3.86-1.62,7.75,4.27c1.57,2.7.2-11.44-6.57-5.36C553,78,552.19,78.94,552.54,79.34Z" class="cls-51"/><path d="M553.92,78.31a5.37,5.37,0,0,1,1.91.17,6.22,6.22,0,0,1,.92.31l.45.2.42.25a2.9,2.9,0,0,1,.41.27,4.17,4.17,0,0,1,.4.3l.38.33.35.36.17.18a1.56,1.56,0,0,1,.16.2l.32.4a1.43,1.43,0,0,1,.14.2l.14.22.27.43a.08.08,0,0,1,0,.12.07.07,0,0,1-.11,0h0L560,81.8l-.13-.21a1.49,1.49,0,0,0-.15-.2l-.3-.4c0-.06-.1-.13-.16-.19l-.16-.18-.34-.36-.37-.32a2.63,2.63,0,0,0-.38-.3,4.85,4.85,0,0,0-.4-.28,6.91,6.91,0,0,0-1.75-.8A5.75,5.75,0,0,0,553.92,78.31Z" class="cls-41"/></g><polygon points="568.28 94.21 568.28 94.21 568.27 94.21 568.28 94.21" class="cls-52"/><g><ellipse cx="562.07" cy="83.35" class="cls-49" rx="4.78" ry="3.9" transform="matrix(0.13, -0.99, 0.99, 0.13, 404.99, 629.42)"/><ellipse cx="561.77" cy="83.31" class="cls-50" rx="4.21" ry="3.44" transform="translate(404.77 629.09) rotate(-82.39)"/></g><g><path d="M558.07,80.92s5.15-2.39,9.08,4.4c.68,1.22-.41-12.17-7.77-5.67C558.55,79.35,557.64,80.23,558.07,80.92Z" class="cls-41"/><path d="M558.07,80.92s4.36-1.69,8.75,4.47c1.78,2.83.22-12-7.42-5.61C558.56,79.48,557.68,80.5,558.07,80.92Z" class="cls-51"/><path d="M559.63,79.84a6.76,6.76,0,0,1,2.15.18,9,9,0,0,1,1,.33l.51.21.48.26a4.43,4.43,0,0,1,.46.29,4.5,4.5,0,0,1,.45.31l.42.34.4.38.2.19.18.2.35.42a1.84,1.84,0,0,1,.17.22l.15.22.31.45a.09.09,0,0,1,0,.13.09.09,0,0,1-.13,0h0l-.3-.44-.16-.22a1.46,1.46,0,0,0-.16-.21l-.34-.41c-.06-.07-.11-.14-.18-.21l-.19-.18-.38-.38-.41-.34a4.37,4.37,0,0,0-.44-.31,4.3,4.3,0,0,0-.45-.29,7.8,7.8,0,0,0-2-.84A7.28,7.28,0,0,0,559.63,79.84Z" class="cls-41"/></g><ellipse cx="561.13" cy="84.86" class="cls-53" rx="1.3" ry="1.19" transform="translate(411.2 632.21) rotate(-83.28)"/><ellipse cx="554.77" cy="83.25" class="cls-53" rx="1.3" ry="1.19" transform="translate(407.2 624.48) rotate(-83.28)"/><polygon points="553.41 88.61 558.79 90.79 560.38 88.03 553.41 88.61" class="cls-54"/><g><polygon points="565.53 94.52 565.53 94.52 565.53 94.52 565.53 94.52" class="cls-55"/><path d="M558.15,83.73s-1.18,2-5.89,5c0,0,4.91.1,5.46,0L561,88S558.3,87.37,558.15,83.73Z" class="cls-56"/></g></g></g></g></g><g><path fill="#f6bc67" d="M388.63,62.77S416.09,70.14,401,96.55l-12.63-12Z"/><path fill="#f2dfc9" d="M403.22,92c-.4,1-.86,2-1.39,3.08L390.06,84.56l.26-19.26s14.35,3,15,16A25.42,25.42,0,0,1,403.22,92Z"/><path fill="#4b1917" d="M403.22,92a6.74,6.74,0,0,1-1-2.61c-.56-3,.21-6.46,1.72-7.72a1.68,1.68,0,0,1,1.42-.43A25.42,25.42,0,0,1,403.22,92Z"/><g><path d="M415,224.28H364.21c-.89-.63-1.79-1.32-2.7-2.05-10-8-20.76-21.71-28.95-33.18q-1.31-1.83-2.52-3.59l-.45-.65c-6.25-9-10.37-15.82-10.37-15.82l45.25-12.31s2.59,4.88,5.59,11c2.16,4.44,4.53,9.56,6.31,14,.18.46.36.91.52,1.35.12.29.22.57.32.85.45,1.21.84,2.34,1.14,3.37.64,2.12.93,3.79.69,4.71C378.13,195.54,400.15,213,415,224.28Z" class="cls-22"/><path d="M438.4,224.28h-1.59c-.56-1.91-1-2.05,0-1.72A6,6,0,0,1,438.4,224.28Z" class="cls-22"/></g><polygon fill="#f9b76b" points="411.94 99.4 395.8 115.98 385.49 105.05 411.94 99.4"/><g><path fill="#f7c890" d="M395.8,84.09s1.5,1.85,21,14.69c0,0-21.42,6.76-24.18,6.19H382.23S390.56,99.15,395.8,84.09Z"/><polygon fill="#af2074" points="353.87 137.16 353.87 137.16 353.88 137.15 353.87 137.16"/></g><g><path d="M208.17,161.35c-4.18.41.88,32.66,6.83,44.69C221.64,201.49,209.3,178.85,208.17,161.35Z" class="cls-77"/><path d="M174,205.13c5.34-1.46,27.55,1.65,40.88-1.46C209.35,197.74,167.51,200.17,174,205.13Z" class="cls-77"/><path d="M171.75,167.43c-2.49,2.88,28.51,35,44.65,37.84C222.18,196.65,175.91,162.61,171.75,167.43Z" class="cls-77"/></g><g><path d="M208.17,161.35c-2.54,1.33,1.93,37.27,10.67,47.81,1.24-.85,13.65-8.32,10.59-9C217.33,197.6,211,159.87,208.17,161.35Z" class="cls-78"/><path d="M174,205.13c.05,2.87,27.5,1.74,41.71,4.55C213.36,197,173.9,201.18,174,205.13Z" class="cls-78"/><path d="M174.34,168.46c-2.43,2.93,29.76,37.09,45.9,39.92C226,199.77,177.69,164.41,174.34,168.46Z" class="cls-78"/></g><polygon points="215.68 209.68 220.68 206.1 215.15 199.21 208.96 205.54 215.68 209.68 215.68 209.68" class="cls-78"/><path fill="#ca7128" d="M390.55,224.28H357.8c1.17-.7,2.41-1.39,3.71-2.05,4.89-2.47,10.57-4.42,16.08-4.17A17.84,17.84,0,0,1,390.55,224.28Z"/><path d="M347.61,224.28H228.2c-4-7.91-8.11-13.51-12.51-14.6.7-.65,1.41-1.28,2.14-1.88,0,0,0,0,0,0,.84-.71,1.69-1.38,2.56-2l.19-.15a58.92,58.92,0,0,1,6.65-4.25h0c.72-.41,1.45-.79,2.18-1.16a86.46,86.46,0,0,1,24.5-7.7l1-.16c1-.17,2.07-.33,3.11-.46a3.32,3.32,0,0,1,.44-.06c3-.4,5.92-.69,8.9-.91,4.35-.31,8.72-.46,13-.49h1.13a72,72,0,0,1,18.73,2.48c1.95.52,3.89,1.12,5.8,1.78a91.89,91.89,0,0,1,30.11,17.87A111.41,111.41,0,0,1,347.61,224.28Z" class="cls-78"/><path d="M427.53,224.28H256.33a103.77,103.77,0,0,1,10.86-33.05c.05-.11.11-.22.17-.33.23-.43.46-.86.7-1.28a96.23,96.23,0,0,1,9.26-13.81c1.32-1.64,2.68-3.25,4.09-4.81a.12.12,0,0,1,0-.05c.09-.12.2-.23.3-.34,26.9-29.75,67.82-44.48,100.15-29.06A65.43,65.43,0,0,1,400.57,155a80.22,80.22,0,0,1,11.36,14.84h0c8.06,13.38,13,29.5,14.92,46.31Q427.32,220.2,427.53,224.28Z" class="cls-78"/><path d="M311.31,173.75c4.95,12.87,21.67,15.37,34.7,3.37,4.93,4.42,31.1,20.54,38.45-10.47,7.34,2.36,17.19,6.78,27.48,3.21-6.92,5.37-19.16,8-26.28,3.86-7.32,30-34.72,12.64-39.65,8.22-13,12-28.1,8.58-33-4.3-19.25,10-32.87-7.77-32.4-8.07C285.91,174.37,295.93,181.75,311.31,173.75Z" class="cls-80"/><g><path d="M507,188.66a9.45,9.45,0,0,0-3-1,12.48,12.48,0,0,0-5.81.51c-.2.06-.39.13-.57.2a11.48,11.48,0,0,0-1.77.78l2,1.64,1.59,1.3,0,0c-7.37,2.39-18.65,13-34.85,32.21H382.4c-1.6-2.09-3.2-4.17-4.81-6.22-3.36-4.27-6.75-8.41-10.18-12.17-6.76-7.4-10-13.08-10.91-17.6a13.43,13.43,0,0,1-.29-2.87c0-.22,0-.44,0-.65a9.68,9.68,0,0,1,.21-1.54c.67-3.29,2.79-5.85,5.47-8.08l-.15-.2a30.9,30.9,0,0,1,8.29-7.22,20.15,20.15,0,0,1,12.47-2.94,18.66,18.66,0,0,1,4.48,1.07,19.47,19.47,0,0,1,5.45,3.43,50.69,50.69,0,0,1,3.75,3.49c.8.82,1.62,1.7,2.44,2.62,10.89,12.18,23.13,32.19,28.2,40.78,1.52,2.58,2.4,4.13,2.4,4.13,13.72-15,40.5-29.34,55.18-34.7.77-.28,1.5-.53,2.2-.76l1.1-.35c.73-.22,1.41-.42,2-.57a14.64,14.64,0,0,1,3.34-.53h.25a25.69,25.69,0,0,1,6.23,1.05,20,20,0,0,1,4.42,1.92A13.18,13.18,0,0,1,507,188.66Z" class="cls-22"/><path d="M531.9,184.11c-2.1.91-11.64,3.28-17.22,4.95-13.76,0-33.79,6.92-30.27-3.44,2.41-7.09,52.83-9.63,41-5.62-10.59,3.57-5.08,2.8.59,2.48C530.87,182.21,535.79,182.43,531.9,184.11Z" class="cls-22"/><g><polygon points="522.61 171.01 504 174.29 487.72 169.91 507.37 167.15 522.61 171.01" class="cls-16"/><path d="M518.61,170.55h0c-.07.72-5.14,1.29-11.38,1.29s-11.3-.57-11.37-1.29h0a.17.17,0,0,1,0-.07c.31-.7,5.28-1.25,11.36-1.25s11,.55,11.37,1.25A.17.17,0,0,1,518.61,170.55Z" class="cls-17"/><polygon points="504 174.29 504 190.09 487.72 184.59 487.72 169.91 504 174.29" class="cls-13"/><polygon points="504 174.29 504 190.09 522.61 184.68 522.61 171.01 504 174.29" class="cls-12"/><path d="M516.39,163.5v6.41c0,.84-5.11,1.52-11.38,1.52s-11.37-.68-11.37-1.52V163.5a.15.15,0,0,1,0-.06c.31-.57,5.27-1,11.36-1s11,.45,11.36,1A.08.08,0,0,1,516.39,163.5Z" class="cls-13"/><path d="M516.39,163.5h0c-.07.59-5.14,1.06-11.38,1.06s-11.3-.47-11.37-1.06h0a.15.15,0,0,1,0-.06c.31-.57,5.27-1,11.36-1s11,.45,11.36,1A.08.08,0,0,1,516.39,163.5Z" class="cls-16"/><path d="M512.9,163.17h0c0,.4-3.56.73-7.89.73s-7.84-.33-7.89-.73h0s0,0,0,0c.22-.4,3.66-.71,7.88-.71s7.67.31,7.88.71C512.9,163.14,512.9,163.15,512.9,163.17Z" class="cls-13"/><path d="M516.37,163.44a.25.25,0,0,1,0,.07h0c-.11.23-.4.27-.61.35s-.47.12-.7.17c-.48.09-1,.16-1.43.22-1,.11-1.91.18-2.87.24-1.92.12-3.85.17-5.77.18s-3.84-.06-5.76-.18c-1-.06-1.92-.13-2.88-.24-.47-.06-.95-.13-1.42-.22-.24-.05-.47-.1-.71-.17s-.49-.12-.6-.35h0s0,0,0-.07,0,.05,0,.07c.11.22.39.25.61.33l.71.14c.47.07,1,.13,1.42.17,1,.1,1.92.16,2.87.21,1.92.1,3.84.13,5.76.12s3.84,0,5.76-.12c1-.05,1.92-.11,2.87-.21.48,0,1-.1,1.43-.17l.7-.14c.22-.08.5-.11.61-.33A.2.2,0,0,0,516.37,163.44Z" class="cls-17"/></g><path d="M497.31,187.18l-.23.11a18.91,18.91,0,0,0-9.38-3.66c-4.64-.07,5.94,10.12,10,8.9h0A12.18,12.18,0,0,0,497.31,187.18Z" class="cls-22"/><path d="M493.13,186.66c.59,1.87,4.83,4.14,4.62,5.86,13-3.86,18.1-1.74,24.07-3.06C526.18,188.49,507.26,179.48,493.13,186.66Z" class="cls-22"/></g><g><path d="M382.56,171c0,6.54-4.27,12.07-9.5,14.69-9.4,4.71-22.15-2.95-27.07-7.37-13,12-29.81,8-34.75-4.91-19.25,10-30.85-3.15-34.26-6.57a31.91,31.91,0,0,1,2.88-1.81c34.07-19,28.47-61.81,30.92-75.77,3.27-60,57.51-41.95,57.51-41.95,2.18,1.5,22.17,8.37,27.51,36.78-1.23,8.43.25,25.59,0,31.89,3.73,23.75,9.13,30.05,21.85,51.16C411.38,171.83,389.69,175.15,382.56,171Z" class="cls-81"/><path d="M279.86,165c29.07-16.19,29.8-48.66,30.74-73.7,1.82-51.32,41.93-52.11,57.69-44a63,63,0,0,1,21.46,15.46c6.05,8.51,7.45,16.65,8,24.91,4.3,11.72,1.8,20-1.93,28.3-19,23.25-18.44,46.34-10.49,52,0,6.55-6.47,15.93-11.7,18.56-10.93,5.17-22.7-3.84-27.62-8.26-13,12-29.81,8-34.75-4.91-19.25,10-30.85-3.15-34.26-6.57A31.91,31.91,0,0,1,279.86,165Z" class="cls-81"/><path fill="#d1683e" d="M359.43,47.63h0c4.08.5,9.23.22,12.34,1.8,4.73-3.78,10.85-10.88,7.54-17.94-8.63-10.46-20.14,4.81-21,7,4.56-13.14,0-49-28.78-35-41.45,24.73-15.16,65-14.33,76.27-3.31-1-11.2-25.72-17.4-5.22-4.37,14.45,14,32.89,26,34.38C322.81,60.14,338.79,45.07,359.43,47.63Z"/><path d="M364.23,47.63h0a31.92,31.92,0,0,1,10.71,3.18c4.73-3.78,9.5-9.5,6.19-16.56-4.93-10.52-17.57-2.28-18.47-.11C367.22,21,358.3-9,329.91,4.36a22.92,22.92,0,0,0-4.79,3.12c-31.14,25.71-8.93,62.69-8.09,74-3.32-1-11.21-25.72-17.41-5.22-4.37,14.45,12.11,31.17,24.18,32.66C322.81,60.14,343.59,45.07,364.23,47.63Z" class="cls-77"/></g><path d="M229,200.52a53,53,0,0,0-5.39,2.71,52.93,52.93,0,0,1,5.29-2.9c10.28-5,35.67-16.8,63.36-6.9-.12.74-.22,1.48-.33,2.22C264.89,185.18,239.41,195.92,229,200.52Z" class="cls-80"/><path d="M292,195.65s35.87-6.3,52.37,12.73c0,0-13.52-19.14-52-14.95Z" class="cls-80"/><path d="M389.45,72.16s10.67-1.49,13.92.38c2.43-1.34.45-6.55-3.13-5.37-5.4-12.26-20.16-3.72-23.24,2.13C376.67,69.93,389.45,72.16,389.45,72.16Z" class="cls-78"/><path fill="#f8aa2e" d="M390.72,79.52s5.18-9.69,12.65-7c1.46-.77.75-5.87-3.24-5.13-7.89-13.06-23.13-.93-23.5,3C376.4,71,390.72,79.52,390.72,79.52Z"/><path d="M399.09,67.43a15.32,15.32,0,0,0-4.33,1.24,26,26,0,0,0-4,2.21,32.06,32.06,0,0,0-3.55,2.82c-.56.51-1.09,1-1.63,1.58L384.1,77a.39.39,0,0,0,0,.53.37.37,0,0,0,.52,0h0l1.51-1.65c.53-.52,1-1.07,1.57-1.57a37.14,37.14,0,0,1,3.41-2.86A29.43,29.43,0,0,1,394.93,69,17.61,17.61,0,0,1,399.09,67.43Z" class="cls-78"/></g><g><circle cx="492.09" cy="71.46" r="7.15" class="cls-5"/><g><rect width="1.33" height="4.89" x="488.29" y="69.67" class="cls-4"/><path d="M495.33,69.67h-2.84s.58-1.3.69-1.56c.21-.44.05-.89-.28-.89h-.32l-1.95,2.45v4.89h3.28c.77,0,1-.51,1.53-1.25L496.7,71C496.91,70.33,496.09,69.67,495.33,69.67Z" class="cls-4"/></g></g><g><circle cx="475.97" cy="41.56" r="11.52" class="cls-84"/><g><rect width="2.14" height="7.89" x="469.85" y="38.66" class="cls-4"/><path d="M481.19,38.66h-4.58l1.12-2.51c.33-.7.08-1.43-.45-1.43h-.52l-3.15,3.94v7.89h5.3c1.23,0,1.64-.82,2.45-2l2-3.67C483.73,39.73,482.41,38.66,481.19,38.66Z" class="cls-4"/></g></g><g><circle cx="806.68" cy="28.17" r="15.28" class="cls-84"/><g><rect width="2.84" height="10.46" x="798.56" y="24.33" class="cls-4"/><path d="M813.61,24.33h-6.08L809,21c.43-.93.1-1.9-.6-1.9h-.69l-4.18,5.23V34.79h7c1.64,0,2.19-1.08,3.26-2.67l2.69-4.87C817,25.75,815.22,24.33,813.61,24.33Z" class="cls-4"/></g></g><g><circle cx="135.57" cy="37.33" r="18.11" class="cls-5"/><g><rect width="3.37" height="12.39" x="125.95" y="32.79" class="cls-4"/><path d="M143.78,32.79h-7.2s1.47-3.28,1.76-3.95c.51-1.1.12-2.24-.71-2.24h-.81l-4.95,6.19V45.18h8.31c1.94,0,2.59-1.28,3.86-3.17l3.2-5.76C147.76,34.47,145.69,32.79,143.78,32.79Z" class="cls-4"/></g></g><g><circle cx="1787.12" cy="45.45" r="15.28" class="cls-5"/><g><rect width="2.84" height="10.46" x="1779" y="41.62" class="cls-4"/><path d="M1794.05,41.62H1788l1.49-3.34c.43-.93.1-1.89-.6-1.89h-.69L1784,41.62V52.07h7c1.64,0,2.19-1.08,3.26-2.67l2.69-4.86C1797.41,43,1795.66,41.62,1794.05,41.62Z" class="cls-4"/></g></g><g><circle cx="259.82" cy="41.66" r="14.84" class="cls-84"/><path d="M268.6,39.81c-1.24,4.76-8.79,11.27-8.79,11.27s-7.67-5.65-8.8-11.27c-.46-2.32.56-5,3.42-5.23S259.81,38,259.81,38s2.23-3.44,5.38-3.42C267.76,34.59,269.2,37.52,268.6,39.81Z" class="cls-4"/></g><g><circle cx="434.55" cy="64.82" r="8.75" class="cls-3"/><path d="M439.73,63.73c-.74,2.81-5.19,6.64-5.19,6.64s-4.52-3.32-5.18-6.64a2.39,2.39,0,0,1,2-3.08c1.69-.16,3.17,2,3.17,2s1.32-2,3.17-2C439.23,60.65,440.08,62.38,439.73,63.73Z" class="cls-4"/></g><g><circle cx="279.49" cy="55.57" r="8.75" class="cls-3"/><path d="M284.67,54.48c-.74,2.8-5.19,6.64-5.19,6.64s-4.52-3.33-5.18-6.64a2.4,2.4,0,0,1,2-3.09c1.69-.16,3.17,2,3.17,2s1.32-2,3.17-2C284.17,51.4,285,53.13,284.67,54.48Z" class="cls-4"/></g><g><circle cx="1391.61" cy="201.76" r="12.01" class="cls-3"/><path d="M1398.72,200.26c-1,3.85-7.12,9.12-7.12,9.12s-6.2-4.57-7.11-9.12c-.38-1.87.45-4,2.76-4.23s4.35,2.76,4.35,2.76,1.81-2.77,4.36-2.76C1398,196,1399.21,198.41,1398.72,200.26Z" class="cls-4"/></g><g><circle cx="1836.86" cy="89.76" r="12.62" class="cls-3"/><path d="M1844.33,88.19c-1.06,4-7.48,9.58-7.48,9.58s-6.52-4.8-7.48-9.58c-.39-2,.48-4.23,2.91-4.45s4.57,2.91,4.57,2.91,1.89-2.92,4.57-2.91C1843.61,83.75,1844.84,86.24,1844.33,88.19Z" class="cls-4"/></g><g><circle cx="1164.66" cy="21.35" r="12.62" class="cls-3"/><path d="M1172.12,19.78c-1.06,4-7.48,9.58-7.48,9.58s-6.52-4.8-7.47-9.58c-.4-2,.47-4.23,2.9-4.45s4.57,2.91,4.57,2.91,1.9-2.92,4.58-2.91C1171.41,15.34,1172.63,17.83,1172.12,19.78Z" class="cls-4"/></g><circle cx="555.38" cy="85.44" r="69.07" fill="url(#radial-gradient)"/></g></g></g></g></svg>