<svg xmlns="http://www.w3.org/2000/svg" xmlns:xlink="http://www.w3.org/1999/xlink" viewBox="0 0 200 200"><defs><style>.cls-1{isolation:isolate;}.cls-2{fill:#f1f1f1;}.cls-3{fill:#d7d7d7;}.cls-4{fill:#f9b69b;}.cls-5{fill:#db4d07;}.cls-6{fill:#2e355c;}.cls-7{fill:#8fa2e2;}.cls-8{fill:#fc6d00;}.cls-9{fill:#435aa3;}.cls-10{opacity:0.15;mix-blend-mode:soft-light;fill:url(#Dégradé_sans_nom_92);}.cls-11,.cls-15,.cls-17{fill:#fff;}.cls-11{opacity:0.22;mix-blend-mode:lighten;}.cls-12{opacity:0.24;}.cls-13{fill:#010b16;}.cls-13,.cls-15{opacity:0.34;mix-blend-mode:overlay;}.cls-14{opacity:0.47;}.cls-16{fill:#2b4687;}.cls-18{fill:#0a1c44;}.cls-19{fill:#1f377c;}</style><linearGradient id="Dégradé_sans_nom_92" x1="63.5" y1="116.52" x2="137.49" y2="116.52" gradientUnits="userSpaceOnUse"><stop offset="0.1" stop-color="#fff"/><stop offset="0.87" stop-color="#fff" stop-opacity="0.1"/></linearGradient></defs><g class="cls-1"><g id="Layer_1" data-name="Layer 1"><circle class="cls-2" cx="100.01" cy="100.1" r="94.09"/><ellipse class="cls-3" cx="101.49" cy="174.67" rx="36.01" ry="12.15"/><path class="cls-4" d="M74.48,64.08a28.82,28.82,0,0,1,26.6-28.91c-.65,0-1.31-.07-2-.06-15.58.12-27,13.12-27,29V84.21l2.4,0Z"/><path class="cls-5" d="M122.49,63.72a19.8,19.8,0,0,0-19.78-20c-.52,0-1,0-1.56.09a19.85,19.85,0,0,1,17.74,19.89V83.84l3.6,0Z"/><path class="cls-6" d="M107.18,120.4a12.08,12.08,0,0,0,6.63-10.84,11.23,11.23,0,0,0-11.27-11.49,11.47,11.47,0,0,0-1.55.16,11.32,11.32,0,0,1,9.22,11.33,12.08,12.08,0,0,1-6.63,10.84l4.1,20.33L93.52,141l0,.08,17.78-.39Z"/><path class="cls-7" d="M61.91,123.71l0-36.93c0-4,3.18-5.52,7.08-5.55l65-.5-.84,0-67.79.52c-3.9,0-7.08,1.59-7.08,5.55l0,36.93c0,23,18.41,41.56,41,41.39l1.38,0C79.13,164,61.92,146,61.91,123.71Z"/><path class="cls-8" d="M130.59,83.78l-8.47.06V63.72a19.81,19.81,0,0,0-19.79-20A20.15,20.15,0,0,0,82.56,64V84.15l-8.47.06V64.08c0-15.85,12.66-28.85,28.23-29a28.29,28.29,0,0,1,28.26,28.54Z"/><path class="cls-9" d="M135.7,80.71l-67.79.52c-3.9,0-7.08,1.59-7.08,5.55l0,36.93c0,23,18.41,41.56,41,41.39s41-19,40.94-42V86.16C142.77,82.19,139.59,80.68,135.7,80.71Zm-25.48,60-17.78.39,4.11-20.67a11.5,11.5,0,0,1-6.32-10.4,11.81,11.81,0,0,1,11.25-12,11.23,11.23,0,0,1,11.27,11.49,12.08,12.08,0,0,1-6.63,10.84Z"/><path class="cls-10" d="M131.1,83.84l-61.21.47c-3.51,0-6.39,1.44-6.39,5l0,33.34a37.57,37.57,0,0,0,10.87,26.52l63.1-60.43C137.48,85.18,134.61,83.82,131.1,83.84Zm-23,54.2-16,.35,3.71-18.67a10.36,10.36,0,0,1-5.7-9.38,10.66,10.66,0,0,1,10.16-10.82,10.12,10.12,0,0,1,10.16,10.37,10.88,10.88,0,0,1-6,9.79Z"/><path class="cls-11" d="M78.32,63.06s-.07-.61-.15-1.67l-.06-.89c0-.32,0-.67,0-1s0-.78.06-1.21a13.11,13.11,0,0,1,.19-1.32c.08-.46.16-.94.25-1.44l.43-1.5a23.32,23.32,0,0,1,1.2-3.16,25.16,25.16,0,0,1,1.85-3.13,27.06,27.06,0,0,1,2.35-2.92,29.78,29.78,0,0,1,2.83-2.47,25.44,25.44,0,0,1,3.05-2A23.52,23.52,0,0,1,93.48,39l1.48-.5,1.42-.31a14.65,14.65,0,0,1,2.51-.37l1-.1h.9l1.68.06-1.65.31-.86.15-1,.26a22.87,22.87,0,0,0-2.35.7l-1.31.46L94,40.27c-.94.36-1.83,1-2.82,1.47a33.32,33.32,0,0,0-2.76,2A28.37,28.37,0,0,0,85.82,46a26.84,26.84,0,0,0-2.23,2.68,32.11,32.11,0,0,0-1.86,2.84c-.24.49-.48,1-.72,1.45a10.55,10.55,0,0,0-.63,1.43q-.28.7-.54,1.38l-.4,1.33a17.51,17.51,0,0,0-.58,2.36c-.08.36-.15.7-.22,1s-.07.61-.1.88C78.41,62.46,78.32,63.06,78.32,63.06Z"/><g class="cls-12"><polygon class="cls-13" points="91.64 93.04 90.53 93.04 90.36 81.07 91.47 81.06 91.64 93.04"/><polygon class="cls-13" points="110.4 92.94 109.29 92.94 109.14 80.95 110.25 80.94 110.4 92.94"/></g><g class="cls-14"><rect class="cls-15" x="60.84" y="111.6" width="15.29" height="1.11" transform="translate(-0.59 0.36) rotate(-0.3)"/><rect class="cls-13" x="60.83" y="110.31" width="15.29" height="1.11" transform="translate(-0.59 0.37) rotate(-0.3)"/></g><g class="cls-14"><rect class="cls-15" x="125.87" y="111.32" width="17.02" height="1.11" transform="translate(-0.44 0.53) rotate(-0.22)"/><polygon class="cls-13" points="142.89 111.1 125.87 111.17 125.86 110.06 142.88 109.99 142.89 111.1"/></g><path class="cls-16" d="M117.62,141.94,84.56,142a4.13,4.13,0,0,1-4.07-4.19l-.16-36.37a4.15,4.15,0,0,1,4-4.24l33.13-.17a4.13,4.13,0,0,1,4.08,4.21l.1,36.45A4.15,4.15,0,0,1,117.62,141.94Z"/><path class="cls-17" d="M108.3,134.21l.11.21-14.69,0,4-13.77a9.16,9.16,0,0,1-3.56-3.61,8.66,8.66,0,0,1,3.39-11.35,7.47,7.47,0,0,1,5.81-.74,8.76,8.76,0,0,1,5.13,4.25,8.66,8.66,0,0,1-3.4,11.35,4.76,4.76,0,0,1-.64.39Z"/><path class="cls-18" d="M104.83,121a6.08,6.08,0,0,0,.64-.39,8.66,8.66,0,0,0,3.4-11.35,8.77,8.77,0,0,0-5.13-4.26,7.64,7.64,0,0,0-2.65-.24,7.68,7.68,0,0,1,1.42.25,8.35,8.35,0,0,1,4.89,4.25c2.06,4,.09,9.22-3.8,11.36a6,6,0,0,1-.64.38l4,13.44h1.87l-.11-.2Z"/><path class="cls-13" d="M117.05,146.47h0l-31.85.07a9.08,9.08,0,0,1-8.93-9.19l-.16-35A9.1,9.1,0,0,1,85,93.08l31.91-.17h0a8.69,8.69,0,0,1,6.23,2.57,9.35,9.35,0,0,1,2.75,6.65l.09,35.08a9.36,9.36,0,0,1-2.59,6.53A8.73,8.73,0,0,1,117.05,146.47ZM116.88,94h0L85,94.19a8,8,0,0,0-7.77,8.17l.16,35a8,8,0,0,0,7.82,8.08l31.85-.07h0a7.63,7.63,0,0,0,5.5-2.39,8.24,8.24,0,0,0,2.28-5.76l-.09-35.08a8.28,8.28,0,0,0-2.42-5.87A7.65,7.65,0,0,0,116.88,94Z"/><path class="cls-19" d="M119.71,141.2h0c2-1.19,2.11-2.86,2.13-6.25l-.09-33a4.84,4.84,0,0,0-4.75-4.9l-30,.16c-3.83,0-4.7,0-6.1,2.24L117,99.27a2.62,2.62,0,0,1,2.59,2.67l.11,39.26"/></g></g></svg>